<svg width="35" height="35" viewBox="0 0 35 35" fill="none" xmlns="http://www.w3.org/2000/svg">
<g clip-path="url(#clip0_529_917)">
<path d="M17.5 35C7.85021 35 0 27.1498 0 17.5C0 7.85021 7.85021 0 17.5 0C27.1498 0 35 7.85021 35 17.5C35 27.1498 27.1498 35 17.5 35ZM17.5 1.45833C8.65521 1.45833 1.45833 8.65521 1.45833 17.5C1.45833 26.3448 8.65521 33.5417 17.5 33.5417C26.3448 33.5417 33.5417 26.3448 33.5417 17.5C33.5417 8.65521 26.3448 1.45833 17.5 1.45833ZM20.2038 25.1708L13.0915 18.06C12.7838 17.7508 12.7838 17.2477 13.0915 16.94L20.1979 9.835L19.1669 8.80396L12.0604 15.9104C11.184 16.7869 11.184 18.2146 12.0604 19.091L19.1727 26.2033L20.2038 25.1708Z" fill="#262D40"/>
</g>
<defs>
<clipPath id="clip0_529_917">
<rect width="35" height="35" fill="white"/>
</clipPath>
</defs>
</svg>
