<svg width="100" height="100" viewBox="0 0 100 100" fill="none" xmlns="http://www.w3.org/2000/svg">
<path d="M63.7497 69.5834L69.583 63.75L54.1663 48.3334V29.1667H45.833V51.6667L63.7497 69.5834ZM49.9997 91.6667C44.2358 91.6667 38.8191 90.573 33.7497 88.3855C28.6802 86.198 24.2705 83.2292 20.5205 79.4792C16.7705 75.7292 13.8018 71.3195 11.6143 66.25C9.42676 61.1806 8.33301 55.7639 8.33301 50C8.33301 44.2361 9.42676 38.8195 11.6143 33.75C13.8018 28.6806 16.7705 24.2709 20.5205 20.5209C24.2705 16.7709 28.6802 13.8021 33.7497 11.6146C38.8191 9.42712 44.2358 8.33337 49.9997 8.33337C55.7636 8.33337 61.1802 9.42712 66.2497 11.6146C71.3191 13.8021 75.7288 16.7709 79.4788 20.5209C83.2288 24.2709 86.1976 28.6806 88.3851 33.75C90.5726 38.8195 91.6663 44.2361 91.6663 50C91.6663 55.7639 90.5726 61.1806 88.3851 66.25C86.1976 71.3195 83.2288 75.7292 79.4788 79.4792C75.7288 83.2292 71.3191 86.198 66.2497 88.3855C61.1802 90.573 55.7636 91.6667 49.9997 91.6667ZM49.9997 83.3334C59.2358 83.3334 67.1004 80.0868 73.5934 73.5938C80.0865 67.1007 83.333 59.2361 83.333 50C83.333 40.7639 80.0865 32.8993 73.5934 26.4063C67.1004 19.9132 59.2358 16.6667 49.9997 16.6667C40.7636 16.6667 32.899 19.9132 26.4059 26.4063C19.9129 32.8993 16.6663 40.7639 16.6663 50C16.6663 59.2361 19.9129 67.1007 26.4059 73.5938C32.899 80.0868 40.7636 83.3334 49.9997 83.3334Z" fill="white"/>
</svg>
