<svg width="21" height="17" viewBox="0 0 21 17" fill="none" xmlns="http://www.w3.org/2000/svg">
<path d="M2.16634 16.8333C1.59342 16.8333 1.10297 16.6293 0.694987 16.2213C0.287001 15.8133 0.0830078 15.3229 0.0830078 14.75V2.24996C0.0830078 1.67704 0.287001 1.18659 0.694987 0.778605C1.10297 0.370619 1.59342 0.166626 2.16634 0.166626H18.833C19.4059 0.166626 19.8964 0.370619 20.3044 0.778605C20.7123 1.18659 20.9163 1.67704 20.9163 2.24996V14.75C20.9163 15.3229 20.7123 15.8133 20.3044 16.2213C19.8964 16.6293 19.4059 16.8333 18.833 16.8333H2.16634ZM10.4997 9.54163L2.16634 4.33329V14.75H18.833V4.33329L10.4997 9.54163ZM10.4997 7.45829L18.833 2.24996H2.16634L10.4997 7.45829ZM2.16634 4.33329V2.24996V14.75V4.33329Z" fill="#262D40"/>
</svg>
