<svg width="76" height="84" viewBox="0 0 76 84" fill="none" xmlns="http://www.w3.org/2000/svg">
<path d="M25.5 60.75C22.5833 60.75 20.1181 59.7431 18.1042 57.7292C16.0903 55.7153 15.0833 53.25 15.0833 50.3334C15.0833 47.4167 16.0903 44.9514 18.1042 42.9375C20.1181 40.9237 22.5833 39.9167 25.5 39.9167C28.4167 39.9167 30.8819 40.9237 32.8958 42.9375C34.9097 44.9514 35.9167 47.4167 35.9167 50.3334C35.9167 53.25 34.9097 55.7153 32.8958 57.7292C30.8819 59.7431 28.4167 60.75 25.5 60.75ZM8.83333 83.6667C6.54167 83.6667 4.57986 82.8507 2.94792 81.2188C1.31597 79.5868 0.5 77.625 0.5 75.3334V17C0.5 14.7084 1.31597 12.7466 2.94792 11.1146C4.57986 9.48268 6.54167 8.66671 8.83333 8.66671H13V0.333374H21.3333V8.66671H54.6667V0.333374H63V8.66671H67.1667C69.4583 8.66671 71.4201 9.48268 73.0521 11.1146C74.684 12.7466 75.5 14.7084 75.5 17V75.3334C75.5 77.625 74.684 79.5868 73.0521 81.2188C71.4201 82.8507 69.4583 83.6667 67.1667 83.6667H8.83333ZM8.83333 75.3334H67.1667V33.6667H8.83333V75.3334Z" fill="white"/>
</svg>
