<?xml version="1.0" encoding="UTF-8"?>
<!DOCTYPE svg PUBLIC "-//W3C//DTD SVG 1.1//EN" "http://www.w3.org/Graphics/SVG/1.1/DTD/svg11.dtd">
<svg xmlns="http://www.w3.org/2000/svg" version="1.1" width="502px" height="457px" style="shape-rendering:geometricPrecision; text-rendering:geometricPrecision; image-rendering:optimizeQuality; fill-rule:evenodd; clip-rule:evenodd" xmlns:xlink="http://www.w3.org/1999/xlink">
<g><path style="opacity:0.992" fill="#627594" d="M 224.5,9.5 C 225.496,23.9905 225.829,38.6572 225.5,53.5C 224.833,39.3277 224.167,24.9943 223.5,10.5C 216.168,12.1661 208.835,13.8327 201.5,15.5C 208.694,12.0931 216.36,10.0931 224.5,9.5 Z"/></g>
<g><path style="opacity:1" fill="#193b72" d="M 307.5,18.5 C 311.723,19.6109 315.723,21.2776 319.5,23.5C 319.937,25.0744 320.937,26.2411 322.5,27C 326.209,27.8461 329.209,29.6794 331.5,32.5C 331.281,33.938 330.781,35.2713 330,36.5C 323.654,35.9232 317.154,34.9232 310.5,33.5C 309.264,31.1725 307.264,30.0058 304.5,30C 305.685,28.647 307.019,27.4803 308.5,26.5C 304.583,23.9652 301.083,23.9652 298,26.5C 295.581,23.2634 292.915,22.93 290,25.5C 289.501,29.1516 289.335,32.8183 289.5,36.5C 288.448,36.3505 287.448,36.5172 286.5,37C 286.833,37.3333 287.167,37.6667 287.5,38C 284.829,38.6707 283.163,40.3374 282.5,43C 282.731,46.8705 282.731,50.7038 282.5,54.5C 284.959,57.9883 283.959,60.4883 279.5,62C 281.335,62.9277 281.668,64.0944 280.5,65.5C 278.579,66.641 276.579,66.8077 274.5,66C 276.283,64.9335 276.783,63.4335 276,61.5C 272.059,61.6737 268.059,61.6737 264,61.5C 262.203,62.2657 260.369,62.9324 258.5,63.5C 254.325,61.9359 249.992,61.2693 245.5,61.5C 245.216,59.1229 245.216,56.9562 245.5,55C 246.5,54.5 247.5,54 248.5,53.5C 252.299,54.7927 255.966,54.7927 259.5,53.5C 264.951,53.245 270.284,53.9117 275.5,55.5C 276.713,55.2528 277.38,54.5862 277.5,53.5C 278.496,39.6766 278.829,25.6766 278.5,11.5C 282.519,11.6458 286.519,11.9791 290.5,12.5C 290.5,13.5 290.5,14.5 290.5,15.5C 293.523,15.1052 294.523,16.1052 293.5,18.5C 294,18.8333 294.5,19.1667 295,19.5C 298.938,17.2778 303.104,16.9445 307.5,18.5 Z"/></g>
<g><path style="opacity:0.029" fill="#f2f3f6" d="M 219.5,8.5 C 221.56,7.1888 223.726,7.1888 226,8.5C 226.5,23.1629 226.667,37.8295 226.5,52.5C 231.033,51.0165 235.699,50.3498 240.5,50.5C 240.5,50.8333 240.5,51.1667 240.5,51.5C 235.5,52.1667 230.5,52.8333 225.5,53.5C 225.829,38.6572 225.496,23.9905 224.5,9.5C 223.081,8.54885 221.415,8.21552 219.5,8.5 Z"/></g>
<g><path style="opacity:0.529" fill="#c9d0dc" d="M 219.5,8.5 C 221.415,8.21552 223.081,8.54885 224.5,9.5C 216.36,10.0931 208.694,12.0931 201.5,15.5C 199.167,16.1667 196.833,16.8333 194.5,17.5C 192.883,18.038 191.216,18.3713 189.5,18.5C 199.05,14.0707 209.05,10.7374 219.5,8.5 Z"/></g>
<g><path style="opacity:1" fill="#314c77" d="M 291.5,11.5 C 297.112,13.2338 302.446,15.5672 307.5,18.5C 303.104,16.9445 298.938,17.2778 295,19.5C 294.5,19.1667 294,18.8333 293.5,18.5C 294.523,16.1052 293.523,15.1052 290.5,15.5C 290.5,14.5 290.5,13.5 290.5,12.5C 286.519,11.9791 282.519,11.6458 278.5,11.5C 278.829,25.6766 278.496,39.6766 277.5,53.5C 277.5,38.5 277.5,23.5 277.5,8.5C 282.012,10.1274 286.679,11.1274 291.5,11.5 Z"/></g>
<g><path style="opacity:0.184" fill="#cfd5df" d="M 291.5,11.5 C 311.191,16.3434 329.191,25.0101 345.5,37.5C 349.521,40.8544 353.188,44.521 356.5,48.5C 356.167,48.5 355.833,48.5 355.5,48.5C 345.155,37.8279 333.155,29.4946 319.5,23.5C 315.723,21.2776 311.723,19.6109 307.5,18.5C 302.446,15.5672 297.112,13.2338 291.5,11.5 Z"/></g>
<g><path style="opacity:0.102" fill="#eaedf1" d="M 189.5,18.5 C 188.713,20.1042 187.38,20.7709 185.5,20.5C 186.514,19.3263 187.847,18.6596 189.5,18.5 Z"/></g>
<g><path style="opacity:0.392" fill="#b4bfce" d="M 291.5,11.5 C 286.679,11.1274 282.012,10.1274 277.5,8.5C 277.5,23.5 277.5,38.5 277.5,53.5C 265.252,51.7496 252.918,51.0829 240.5,51.5C 240.5,51.1667 240.5,50.8333 240.5,50.5C 252.6,49.3643 264.6,50.0309 276.5,52.5C 276.5,37.5 276.5,22.5 276.5,7.5C 281.822,8.05878 286.822,9.39211 291.5,11.5 Z"/></g>
<g><path style="opacity:0.137" fill="#dee2e9" d="M 185.5,20.5 C 178.175,24.83 170.841,29.1634 163.5,33.5C 169.814,27.5362 177.147,23.2029 185.5,20.5 Z"/></g>
<g><path style="opacity:1" fill="#2d4775" d="M 194.5,17.5 C 190.767,22.3376 185.933,25.3376 180,26.5C 179.833,27.3333 179.667,28.1667 179.5,29C 179.969,30.8869 180.969,32.3869 182.5,33.5C 180.621,35.0697 180.288,36.7363 181.5,38.5C 176.36,41.9104 171.36,45.5771 166.5,49.5C 166.297,47.6096 166.963,46.1096 168.5,45C 171.622,41.6134 175.289,38.9467 179.5,37C 176.94,36.773 175.274,35.4397 174.5,33C 172.741,32.2025 171.074,32.3691 169.5,33.5C 161.075,38.7597 153.075,44.593 145.5,51C 142.276,55.2972 138.943,59.4638 135.5,63.5C 134.675,64.3857 133.675,64.719 132.5,64.5C 134.087,61.7318 135.92,59.0652 138,56.5C 146.396,48.5977 154.896,40.931 163.5,33.5C 170.841,29.1634 178.175,24.83 185.5,20.5C 187.38,20.7709 188.713,20.1042 189.5,18.5C 191.216,18.3713 192.883,18.038 194.5,17.5 Z"/></g>
<g><path style="opacity:0.094" fill="#d8dce5" d="M 295.5,28.5 C 300.685,29.7035 305.685,31.3701 310.5,33.5C 315.302,35.4013 319.636,38.068 323.5,41.5C 314.074,37.1171 304.741,32.7838 295.5,28.5 Z"/></g>
<g><path style="opacity:0.086" fill="#d5dbe3" d="M 207.5,27.5 C 208.791,27.2627 209.791,27.596 210.5,28.5C 200.645,30.9233 191.311,34.7567 182.5,40C 176.267,44.4152 169.933,48.5819 163.5,52.5C 164.167,51.1667 165.167,50.1667 166.5,49.5C 171.36,45.5771 176.36,41.9104 181.5,38.5C 189.752,33.9309 198.418,30.2642 207.5,27.5 Z"/></g>
<g><path style="opacity:0.22" fill="#dadfe7" d="M 163.5,33.5 C 154.896,40.931 146.396,48.5977 138,56.5C 135.92,59.0652 134.087,61.7318 132.5,64.5C 127.849,69.1295 124.182,74.4628 121.5,80.5C 119.167,83.8333 116.833,87.1667 114.5,90.5C 123.268,71.523 135.601,55.023 151.5,41C 155.388,38.2279 159.388,35.7279 163.5,33.5 Z"/></g>
<g><path style="opacity:0.3" fill="#aeb9cc" d="M 207.5,27.5 C 208.568,26.5655 209.901,26.2322 211.5,26.5C 211.828,37.3464 211.494,48.0131 210.5,58.5C 210.5,57.5 210.5,56.5 210.5,55.5C 210.5,46.5 210.5,37.5 210.5,28.5C 209.791,27.596 208.791,27.2627 207.5,27.5 Z"/></g>
<g><path style="opacity:0.11" fill="#dce0e8" d="M 323.5,41.5 C 331.925,45.7174 339.259,51.384 345.5,58.5C 337.728,53.2947 330.395,47.628 323.5,41.5 Z"/></g>
<g><path style="opacity:0.008" fill="#eaecf1" d="M 360.5,52.5 C 362.5,52.5 363.5,53.5 363.5,55.5C 362.167,54.8333 361.167,53.8333 360.5,52.5 Z"/></g>
<g><path style="opacity:1" fill="#5b6c8f" d="M 355.5,48.5 C 355.833,48.5 356.167,48.5 356.5,48.5C 358.5,49.1667 359.833,50.5 360.5,52.5C 361.167,53.8333 362.167,54.8333 363.5,55.5C 363.5,55.8333 363.5,56.1667 363.5,56.5C 362.325,56.719 361.325,56.3857 360.5,55.5C 358.783,53.1304 357.117,50.797 355.5,48.5 Z"/></g>
<g><path style="opacity:0.059" fill="#c8ceda" d="M 363.5,55.5 C 366.756,57.3359 369.089,60.0026 370.5,63.5C 367.785,61.4518 365.452,59.1184 363.5,56.5C 363.5,56.1667 363.5,55.8333 363.5,55.5 Z"/></g>
<g><path style="opacity:0.059" fill="#dfe4eb" d="M 210.5,55.5 C 210.5,56.5 210.5,57.5 210.5,58.5C 204.172,61.825 197.838,65.1584 191.5,68.5C 195.911,64.114 201.245,60.9473 207.5,59C 208.636,57.8549 209.636,56.6883 210.5,55.5 Z"/></g>
<g><path style="opacity:0.149" fill="#d2d7e1" d="M 345.5,58.5 C 348.056,59.5434 350.223,61.2101 352,63.5C 354.41,66.3968 356.577,69.3968 358.5,72.5C 353.51,68.5077 349.177,63.841 345.5,58.5 Z"/></g>
<g><path style="opacity:0.259" fill="#dce0e8" d="M 295.5,28.5 C 294.5,28.5 293.5,28.5 292.5,28.5C 292.334,38.1724 292.5,47.8391 293,57.5C 304.268,63.0911 314.768,69.9245 324.5,78C 327.118,80.1057 329.118,82.6057 330.5,85.5C 328.833,84.1667 327.167,82.8333 325.5,81.5C 320.891,76.5293 315.557,72.5293 309.5,69.5C 304.268,65.2949 298.434,61.9616 292,59.5C 291.5,48.8385 291.333,38.1719 291.5,27.5C 293.099,27.2322 294.432,27.5655 295.5,28.5 Z"/></g>
<g><path style="opacity:0.071" fill="#dbe0e8" d="M 370.5,63.5 C 374.662,67.0013 377.662,71.3346 379.5,76.5C 376.117,72.4474 373.117,68.1141 370.5,63.5 Z"/></g>
<g><path style="opacity:0.071" fill="#d7dce5" d="M 191.5,68.5 C 190.027,70.3947 188.36,72.0613 186.5,73.5C 182.852,76.1419 179.185,78.8086 175.5,81.5C 179.599,75.7427 184.932,71.4094 191.5,68.5 Z"/></g>
<g><path style="opacity:1" fill="#1c3d71" d="M 166.5,49.5 C 165.167,50.1667 164.167,51.1667 163.5,52.5C 142.301,69.9058 127.301,91.5724 118.5,117.5C 115.228,120.628 113.728,124.628 114,129.5C 111.358,132.029 108.192,133.029 104.5,132.5C 105.829,125.877 106.995,119.211 108,112.5C 112.41,107.338 114.744,101.338 115,94.5C 118.518,90.4632 120.685,85.7965 121.5,80.5C 124.182,74.4628 127.849,69.1295 132.5,64.5C 133.675,64.719 134.675,64.3857 135.5,63.5C 138.943,59.4638 142.276,55.2972 145.5,51C 153.075,44.593 161.075,38.7597 169.5,33.5C 171.074,32.3691 172.741,32.2025 174.5,33C 175.274,35.4397 176.94,36.773 179.5,37C 175.289,38.9467 171.622,41.6134 168.5,45C 166.963,46.1096 166.297,47.6096 166.5,49.5 Z"/></g>
<g><path style="opacity:0.231" fill="#ced4de" d="M 379.5,76.5 C 380.906,76.9731 381.573,77.9731 381.5,79.5C 380.094,79.0269 379.427,78.0269 379.5,76.5 Z"/></g>
<g><path style="opacity:0.196" fill="#dfe3ea" d="M 175.5,81.5 C 172.391,85.3971 169.057,89.0638 165.5,92.5C 167.442,87.5588 170.775,83.8922 175.5,81.5 Z"/></g>
<g><path style="opacity:0.961" fill="#6a7a98" d="M 325.5,81.5 C 327.167,82.8333 328.833,84.1667 330.5,85.5C 331.833,85.5 332.5,86.1667 332.5,87.5C 332.5,87.8333 332.5,88.1667 332.5,88.5C 329.167,87.1667 326.833,84.8333 325.5,81.5 Z"/></g>
<g><path style="opacity:0.027" fill="#e6e9ef" d="M 381.5,79.5 C 384.786,82.4 386.786,86.0666 387.5,90.5C 385.25,87.0012 383.25,83.3346 381.5,79.5 Z"/></g>
<g><path style="opacity:0.886" fill="#556c8e" d="M 186.5,73.5 C 179.167,80.1667 172.167,87.1667 165.5,94.5C 165.5,93.8333 165.5,93.1667 165.5,92.5C 169.057,89.0638 172.391,85.3971 175.5,81.5C 179.185,78.8086 182.852,76.1419 186.5,73.5 Z"/></g>
<g><path style="opacity:1" fill="#214073" d="M 319.5,23.5 C 333.155,29.4946 345.155,37.8279 355.5,48.5C 357.117,50.797 358.783,53.1304 360.5,55.5C 361.325,56.3857 362.325,56.719 363.5,56.5C 365.452,59.1184 367.785,61.4518 370.5,63.5C 373.117,68.1141 376.117,72.4474 379.5,76.5C 379.427,78.0269 380.094,79.0269 381.5,79.5C 383.25,83.3346 385.25,87.0012 387.5,90.5C 387.343,91.8734 387.51,93.2068 388,94.5C 391.137,100.44 393.97,106.44 396.5,112.5C 400.846,129.898 402.846,147.565 402.5,165.5C 383.167,165.5 363.833,165.5 344.5,165.5C 345.51,150.56 343.176,136.226 337.5,122.5C 338.496,122.414 339.329,122.748 340,123.5C 340.413,127.823 341.746,131.823 344,135.5C 344.733,144.77 345.9,153.937 347.5,163C 354.378,164.217 360.878,163.384 367,160.5C 375.415,161.483 383.915,161.817 392.5,161.5C 392.5,159.833 392.5,158.167 392.5,156.5C 383.969,156.759 375.469,156.426 367,155.5C 364.3,155.73 361.967,156.73 360,158.5C 359,156.833 358,155.167 357,153.5C 356,146.508 355.167,139.508 354.5,132.5C 356.306,137.391 357.639,142.391 358.5,147.5C 358.5,148.833 358.5,150.167 358.5,151.5C 368.5,151.5 378.5,151.5 388.5,151.5C 389.062,139.527 387.062,128.194 382.5,117.5C 378.401,100.295 370.401,85.2949 358.5,72.5C 356.577,69.3968 354.41,66.3968 352,63.5C 350.223,61.2101 348.056,59.5434 345.5,58.5C 339.259,51.384 331.925,45.7174 323.5,41.5C 319.636,38.068 315.302,35.4013 310.5,33.5C 317.154,34.9232 323.654,35.9232 330,36.5C 330.781,35.2713 331.281,33.938 331.5,32.5C 329.209,29.6794 326.209,27.8461 322.5,27C 320.937,26.2411 319.937,25.0744 319.5,23.5 Z"/></g>
<g><path style="opacity:0.149" fill="#d4d9e2" d="M 358.5,72.5 C 370.401,85.2949 378.401,100.295 382.5,117.5C 376.335,101.502 368.335,86.5017 358.5,72.5 Z"/></g>
<g><path style="opacity:0.082" fill="#d0d6e0" d="M 193.5,85.5 C 183.577,95.3174 175.077,106.317 168,118.5C 165.938,124.601 163.438,130.267 160.5,135.5C 161.167,133.167 161.833,130.833 162.5,128.5C 168.615,111.063 178.948,96.7297 193.5,85.5 Z"/></g>
<g><path style="opacity:0.106" fill="#dde1e8" d="M 332.5,87.5 C 336.456,90.7295 339.456,94.7295 341.5,99.5C 338.271,96.0567 335.271,92.39 332.5,88.5C 332.5,88.1667 332.5,87.8333 332.5,87.5 Z"/></g>
<g><path style="opacity:0.188" fill="#d8dde5" d="M 114.5,90.5 C 113.624,94.5821 111.957,98.2488 109.5,101.5C 110.209,97.3648 111.875,93.6981 114.5,90.5 Z"/></g>
<g><path style="opacity:0.039" fill="#e1e5eb" d="M 165.5,92.5 C 165.5,93.1667 165.5,93.8333 165.5,94.5C 164.167,95.8333 162.833,97.1667 161.5,98.5C 161.684,95.6627 163.018,93.6627 165.5,92.5 Z"/></g>
<g><path style="opacity:1" fill="#1c3d72" d="M 225.5,53.5 C 225.791,54.6491 226.624,55.3158 228,55.5C 238.411,52.5403 248.911,51.8737 259.5,53.5C 255.966,54.7927 252.299,54.7927 248.5,53.5C 247.5,54 246.5,54.5 245.5,55C 245.216,56.9562 245.216,59.1229 245.5,61.5C 249.992,61.2693 254.325,61.9359 258.5,63.5C 260.369,62.9324 262.203,62.2657 264,61.5C 268.059,61.6737 272.059,61.6737 276,61.5C 276.783,63.4335 276.283,64.9335 274.5,66C 276.579,66.8077 278.579,66.641 280.5,65.5C 281.668,64.0944 281.335,62.9277 279.5,62C 283.959,60.4883 284.959,57.9883 282.5,54.5C 282.731,50.7038 282.731,46.8705 282.5,43C 283.163,40.3374 284.829,38.6707 287.5,38C 287.167,37.6667 286.833,37.3333 286.5,37C 287.448,36.5172 288.448,36.3505 289.5,36.5C 289.335,32.8183 289.501,29.1516 290,25.5C 292.915,22.93 295.581,23.2634 298,26.5C 301.083,23.9652 304.583,23.9652 308.5,26.5C 307.019,27.4803 305.685,28.647 304.5,30C 307.264,30.0058 309.264,31.1725 310.5,33.5C 305.685,31.3701 300.685,29.7035 295.5,28.5C 294.432,27.5655 293.099,27.2322 291.5,27.5C 291.333,38.1719 291.5,48.8385 292,59.5C 298.434,61.9616 304.268,65.2949 309.5,69.5C 309.586,70.4959 309.252,71.3292 308.5,72C 310.102,73.9347 311.269,76.1013 312,78.5C 312.915,77.6721 313.581,76.6721 314,75.5C 315.242,76.8721 316.742,77.8721 318.5,78.5C 320.96,82.4603 323.96,85.9603 327.5,89C 333.98,90.9348 334.98,94.2682 330.5,99C 332.126,100.819 334.126,102.152 336.5,103C 335.007,104.156 335.174,104.99 337,105.5C 340.326,103.893 341.492,104.726 340.5,108C 341.416,108.374 342.25,108.874 343,109.5C 344.151,112.294 345.651,114.794 347.5,117C 346.531,120.292 347.031,123.459 349,126.5C 350.423,128.345 351.59,130.345 352.5,132.5C 353.183,132.137 353.85,131.804 354.5,131.5C 354.5,131.833 354.5,132.167 354.5,132.5C 355.167,139.508 356,146.508 357,153.5C 358,155.167 359,156.833 360,158.5C 361.967,156.73 364.3,155.73 367,155.5C 375.469,156.426 383.969,156.759 392.5,156.5C 392.5,158.167 392.5,159.833 392.5,161.5C 383.915,161.817 375.415,161.483 367,160.5C 360.878,163.384 354.378,164.217 347.5,163C 345.9,153.937 344.733,144.77 344,135.5C 341.746,131.823 340.413,127.823 340,123.5C 339.329,122.748 338.496,122.414 337.5,122.5C 337.068,121.29 336.401,120.29 335.5,119.5C 327.284,101.446 314.617,87.2788 297.5,77C 295.35,75.5886 293.016,74.7553 290.5,74.5C 281.485,69.7194 271.819,66.7194 261.5,65.5C 241.518,63.3428 222.518,67.1761 204.5,77C 200.403,79.3696 196.736,82.2029 193.5,85.5C 178.948,96.7297 168.615,111.063 162.5,128.5C 160.784,129.574 159.784,131.241 159.5,133.5C 155.893,134.489 152.226,134.823 148.5,134.5C 149.913,127.426 152.413,120.76 156,114.5C 157.011,115.337 158.178,115.67 159.5,115.5C 159.833,112.316 160,108.982 160,105.5C 163.431,102.638 165.264,98.971 165.5,94.5C 172.167,87.1667 179.167,80.1667 186.5,73.5C 188.36,72.0613 190.027,70.3947 191.5,68.5C 197.838,65.1584 204.172,61.825 210.5,58.5C 211.494,48.0131 211.828,37.3464 211.5,26.5C 209.901,26.2322 208.568,26.5655 207.5,27.5C 198.418,30.2642 189.752,33.9309 181.5,38.5C 180.288,36.7363 180.621,35.0697 182.5,33.5C 180.969,32.3869 179.969,30.8869 179.5,29C 179.667,28.1667 179.833,27.3333 180,26.5C 185.933,25.3376 190.767,22.3376 194.5,17.5C 196.833,16.8333 199.167,16.1667 201.5,15.5C 208.835,13.8327 216.168,12.1661 223.5,10.5C 224.167,24.9943 224.833,39.3277 225.5,53.5 Z"/></g>
<g><path style="opacity:0.09" fill="#d6dbe4" d="M 290.5,74.5 C 293.016,74.7553 295.35,75.5886 297.5,77C 314.617,87.2788 327.284,101.446 335.5,119.5C 324.808,100.142 309.808,85.1416 290.5,74.5 Z"/></g>
<g><path style="opacity:0.047" fill="#dadfe6" d="M 257.5,65.5 C 258.833,65.5 260.167,65.5 261.5,65.5C 271.819,66.7194 281.485,69.7194 290.5,74.5C 279.488,71.2694 268.488,68.2694 257.5,65.5 Z"/></g>
<g><path style="opacity:0.078" fill="#c9d0db" d="M 261.5,65.5 C 260.167,65.5 258.833,65.5 257.5,65.5C 245.197,65.4953 233.197,67.3286 221.5,71C 216.833,73 212.167,75 207.5,77C 203.193,80.4832 198.527,83.3166 193.5,85.5C 196.736,82.2029 200.403,79.3696 204.5,77C 222.518,67.1761 241.518,63.3428 261.5,65.5 Z"/></g>
<g><path style="opacity:0.958" fill="#4d6489" d="M 240.5,51.5 C 252.918,51.0829 265.252,51.7496 277.5,53.5C 277.38,54.5862 276.713,55.2528 275.5,55.5C 270.284,53.9117 264.951,53.245 259.5,53.5C 248.911,51.8737 238.411,52.5403 228,55.5C 226.624,55.3158 225.791,54.6491 225.5,53.5C 230.5,52.8333 235.5,52.1667 240.5,51.5 Z"/></g>
<g><path style="opacity:1" fill="#274372" d="M 309.5,69.5 C 315.557,72.5293 320.891,76.5293 325.5,81.5C 326.833,84.8333 329.167,87.1667 332.5,88.5C 335.271,92.39 338.271,96.0567 341.5,99.5C 346.428,108.683 350.762,118.016 354.5,127.5C 354.5,128.833 354.5,130.167 354.5,131.5C 353.85,131.804 353.183,132.137 352.5,132.5C 351.59,130.345 350.423,128.345 349,126.5C 347.031,123.459 346.531,120.292 347.5,117C 345.651,114.794 344.151,112.294 343,109.5C 342.25,108.874 341.416,108.374 340.5,108C 341.492,104.726 340.326,103.893 337,105.5C 335.174,104.99 335.007,104.156 336.5,103C 334.126,102.152 332.126,100.819 330.5,99C 334.98,94.2682 333.98,90.9348 327.5,89C 323.96,85.9603 320.96,82.4603 318.5,78.5C 316.742,77.8721 315.242,76.8721 314,75.5C 313.581,76.6721 312.915,77.6721 312,78.5C 311.269,76.1013 310.102,73.9347 308.5,72C 309.252,71.3292 309.586,70.4959 309.5,69.5 Z"/></g>
<g><path style="opacity:0.188" fill="#cad1dc" d="M 387.5,90.5 C 392.003,97.1344 395.003,104.468 396.5,112.5C 393.97,106.44 391.137,100.44 388,94.5C 387.51,93.2068 387.343,91.8734 387.5,90.5 Z"/></g>
<g><path style="opacity:0.047" fill="#e5e9ee" d="M 161.5,98.5 C 160.89,100.434 159.89,102.101 158.5,103.5C 158.259,100.966 159.259,99.2998 161.5,98.5 Z"/></g>
<g><path style="opacity:0.094" fill="#d9dee6" d="M 301.5,120.5 C 295.753,114.415 289.419,109.082 282.5,104.5C 277.437,100.923 271.77,98.9225 265.5,98.5C 265.082,97.7784 264.416,97.2784 263.5,97C 255.292,94.8992 247.292,95.0659 239.5,97.5C 238.833,97.5 238.167,97.5 237.5,97.5C 235.139,97.6741 232.806,98.0074 230.5,98.5C 255.45,90.5261 277.616,95.5261 297,113.5C 298.75,115.734 300.25,118.068 301.5,120.5 Z"/></g>
<g><path style="opacity:1" fill="#51678b" d="M 265.5,98.5 C 256.851,97.7974 248.185,97.464 239.5,97.5C 247.292,95.0659 255.292,94.8992 263.5,97C 264.416,97.2784 265.082,97.7784 265.5,98.5 Z"/></g>
<g><path style="opacity:1" fill="#4b6186" d="M 237.5,97.5 C 232.552,99.3281 227.886,101.828 223.5,105C 220.846,105.941 218.179,106.774 215.5,107.5C 220.035,103.732 225.035,100.732 230.5,98.5C 232.806,98.0074 235.139,97.6741 237.5,97.5 Z"/></g>
<g><path style="opacity:0.106" fill="#dce1e8" d="M 341.5,99.5 C 347.984,107.804 352.318,117.137 354.5,127.5C 350.762,118.016 346.428,108.683 341.5,99.5 Z"/></g>
<g><path style="opacity:0.063" fill="#dfe3ea" d="M 230.5,98.5 C 225.035,100.732 220.035,103.732 215.5,107.5C 212.185,109.808 208.851,112.141 205.5,114.5C 210.9,107.437 217.9,102.27 226.5,99C 227.793,98.51 229.127,98.3433 230.5,98.5 Z"/></g>
<g><path style="opacity:0.925" fill="#576a8d" d="M 215.5,107.5 C 210.167,112.167 205.167,117.167 200.5,122.5C 200.5,121.833 200.5,121.167 200.5,120.5C 202.914,119.089 204.581,117.089 205.5,114.5C 208.851,112.141 212.185,109.808 215.5,107.5 Z"/></g>
<g><path style="opacity:0.067" fill="#d0d5df" d="M 163.5,52.5 C 152.061,63.7736 141.894,76.1069 133,89.5C 124.79,103.785 119.124,119.118 116,135.5C 115.25,136.126 114.416,136.626 113.5,137C 99.6704,141.021 96.0037,136.854 102.5,124.5C 102.058,128.154 101.724,131.821 101.5,135.5C 106.099,135.8 110.599,135.467 115,134.5C 116.014,128.782 117.18,123.115 118.5,117.5C 127.301,91.5724 142.301,69.9058 163.5,52.5 Z"/></g>
<g><path style="opacity:0.09" fill="#d5dae3" d="M 109.5,101.5 C 107.036,109.176 104.703,116.843 102.5,124.5C 103.207,116.262 105.54,108.595 109.5,101.5 Z"/></g>
<g><path style="opacity:0.247" fill="#dde1e8" d="M 205.5,114.5 C 204.581,117.089 202.914,119.089 200.5,120.5C 201.473,117.865 203.14,115.865 205.5,114.5 Z"/></g>
<g><path style="opacity:1" fill="#374f7a" d="M 165.5,94.5 C 165.264,98.971 163.431,102.638 160,105.5C 160,108.982 159.833,112.316 159.5,115.5C 158.178,115.67 157.011,115.337 156,114.5C 152.413,120.76 149.913,127.426 148.5,134.5C 152.226,134.823 155.893,134.489 159.5,133.5C 159.784,131.241 160.784,129.574 162.5,128.5C 161.833,130.833 161.167,133.167 160.5,135.5C 156.167,135.5 151.833,135.5 147.5,135.5C 147.301,132.059 147.801,128.726 149,125.5C 151.365,117.776 154.531,110.442 158.5,103.5C 159.89,102.101 160.89,100.434 161.5,98.5C 162.833,97.1667 164.167,95.8333 165.5,94.5 Z"/></g>
<g><path style="opacity:0.039" fill="#d3d8e2" d="M 382.5,117.5 C 387.062,128.194 389.062,139.527 388.5,151.5C 378.5,151.5 368.5,151.5 358.5,151.5C 358.5,150.167 358.5,148.833 358.5,147.5C 360.49,148.999 362.823,149.832 365.5,150C 372.861,150.683 380.195,150.517 387.5,149.5C 386.472,138.724 384.805,128.057 382.5,117.5 Z"/></g>
<g><path style="opacity:0.09" fill="#dadfe7" d="M 200.5,120.5 C 200.5,121.167 200.5,121.833 200.5,122.5C 197.07,127.258 194.07,132.258 191.5,137.5C 192.491,132.515 194.324,127.849 197,123.5C 197.759,121.937 198.926,120.937 200.5,120.5 Z"/></g>
<g><path style="opacity:0.075" fill="#dce0e8" d="M 301.5,120.5 C 303.446,121.035 304.446,122.368 304.5,124.5C 302.738,123.738 301.738,122.404 301.5,120.5 Z"/></g>
<g><path style="opacity:0.106" fill="#d1d7e1" d="M 233.5,113.5 C 220.327,120.341 210.993,130.675 205.5,144.5C 205.167,144.5 204.833,144.5 204.5,144.5C 207.385,135.727 212.051,128.061 218.5,121.5C 223.042,117.954 228.042,115.288 233.5,113.5 Z"/></g>
<g><path style="opacity:1" fill="#1b3c71" d="M 237.5,97.5 C 238.167,97.5 238.833,97.5 239.5,97.5C 248.185,97.464 256.851,97.7974 265.5,98.5C 271.77,98.9225 277.437,100.923 282.5,104.5C 283.013,106.854 284.179,108.854 286,110.5C 287.011,111.337 288.178,111.67 289.5,111.5C 292.674,115.97 296.008,120.47 299.5,125C 298.207,125.49 296.873,125.657 295.5,125.5C 295.649,126.552 295.483,127.552 295,128.5C 294,128.833 293,129.167 292,129.5C 291.161,126.86 291.661,124.527 293.5,122.5C 292.267,119.551 290.267,118.884 287.5,120.5C 284.741,118.878 281.741,117.878 278.5,117.5C 274.71,116.105 271.043,114.438 267.5,112.5C 264.146,110.742 260.479,109.742 256.5,109.5C 250.445,109.338 244.445,109.838 238.5,111C 236.509,111.374 234.842,112.207 233.5,113.5C 228.042,115.288 223.042,117.954 218.5,121.5C 216.43,121.449 214.597,122.115 213,123.5C 211.902,122.616 211.402,121.616 211.5,120.5C 210.749,121.376 210.249,122.376 210,123.5C 209.667,123.167 209.333,122.833 209,122.5C 208.239,125.431 206.406,127.097 203.5,127.5C 203.98,130.005 204.98,132.338 206.5,134.5C 204.919,138.861 202.753,142.861 200,146.5C 199.293,149.761 200.293,152.428 203,154.5C 207.206,152.813 211.039,153.313 214.5,156C 239.396,156.524 264.23,156.357 289,155.5C 293.397,155.275 297.564,155.942 301.5,157.5C 302.167,157.167 302.833,156.833 303.5,156.5C 302.167,149.833 300.833,143.167 299.5,136.5C 301.535,135.403 302.868,133.737 303.5,131.5C 305.134,131.968 306.3,132.968 307,134.5C 307.67,140.527 308.503,146.527 309.5,152.5C 309.182,153.647 308.516,154.481 307.5,155C 311.051,156.677 312.384,159.51 311.5,163.5C 307.154,163.666 302.821,163.499 298.5,163C 297.774,161.603 296.607,160.769 295,160.5C 267.9,161.289 240.733,161.622 213.5,161.5C 213.67,160.178 213.337,159.011 212.5,158C 208.911,157.793 205.411,157.293 202,156.5C 201.075,157.047 200.242,157.713 199.5,158.5C 200,158.833 200.5,159.167 201,159.5C 204.187,160.045 207.354,160.711 210.5,161.5C 208.023,162.722 205.69,164.055 203.5,165.5C 203.111,168.553 203.777,171.22 205.5,173.5C 205.402,175.553 206.069,177.22 207.5,178.5C 208.448,181.14 209.448,183.807 210.5,186.5C 210.5,188.167 210.5,189.833 210.5,191.5C 214.122,191.951 215.622,193.951 215,197.5C 213.68,197.799 212.18,197.966 210.5,198C 209.354,198.645 208.354,199.478 207.5,200.5C 204.173,194.852 200.173,189.852 195.5,185.5C 188.999,172.965 186.999,159.632 189.5,145.5C 189.5,145.167 189.5,144.833 189.5,144.5C 190.612,142.401 191.279,140.067 191.5,137.5C 194.07,132.258 197.07,127.258 200.5,122.5C 205.167,117.167 210.167,112.167 215.5,107.5C 218.179,106.774 220.846,105.941 223.5,105C 227.886,101.828 232.552,99.3281 237.5,97.5 Z"/></g>
<g><path style="opacity:0.094" fill="#e0e4eb" d="M 260.5,111.5 C 262.806,111.993 265.139,112.326 267.5,112.5C 271.043,114.438 274.71,116.105 278.5,117.5C 281.139,119.473 283.473,121.806 285.5,124.5C 281.724,121.772 277.724,119.272 273.5,117C 269.096,115.041 264.762,113.208 260.5,111.5 Z"/></g>
<g><path style="opacity:0.137" fill="#ccd2dd" d="M 256.5,109.5 C 257.5,110.167 258.5,110.833 259.5,111.5C 256.223,111.784 253.057,111.451 250,110.5C 244.471,111.318 238.971,112.318 233.5,113.5C 234.842,112.207 236.509,111.374 238.5,111C 244.445,109.838 250.445,109.338 256.5,109.5 Z"/></g>
<g><path style="opacity:0.863" fill="#677999" d="M 256.5,109.5 C 260.479,109.742 264.146,110.742 267.5,112.5C 265.139,112.326 262.806,111.993 260.5,111.5C 260.167,111.5 259.833,111.5 259.5,111.5C 258.5,110.833 257.5,110.167 256.5,109.5 Z"/></g>
<g><path style="opacity:0.039" fill="#d4d9e2" d="M 158.5,103.5 C 154.531,110.442 151.365,117.776 149,125.5C 147.801,128.726 147.301,132.059 147.5,135.5C 151.833,135.5 156.167,135.5 160.5,135.5C 158.603,136.805 156.269,137.471 153.5,137.5C 151.167,137.333 148.833,137.167 146.5,137C 145.919,136.107 145.585,135.107 145.5,134C 147.71,123.686 151.377,113.853 156.5,104.5C 156.957,103.702 157.624,103.369 158.5,103.5 Z"/></g>
<g><path style="opacity:0.005" fill="#e4e7ed" d="M 354.5,127.5 C 357.235,133.755 358.569,140.422 358.5,147.5C 357.639,142.391 356.306,137.391 354.5,132.5C 354.5,132.167 354.5,131.833 354.5,131.5C 354.5,130.167 354.5,128.833 354.5,127.5 Z"/></g>
<g><path style="opacity:1" fill="#2c4672" d="M 121.5,80.5 C 120.685,85.7965 118.518,90.4632 115,94.5C 114.744,101.338 112.41,107.338 108,112.5C 106.995,119.211 105.829,125.877 104.5,132.5C 108.192,133.029 111.358,132.029 114,129.5C 113.728,124.628 115.228,120.628 118.5,117.5C 117.18,123.115 116.014,128.782 115,134.5C 110.599,135.467 106.099,135.8 101.5,135.5C 101.724,131.821 102.058,128.154 102.5,124.5C 104.703,116.843 107.036,109.176 109.5,101.5C 111.957,98.2488 113.624,94.5821 114.5,90.5C 116.833,87.1667 119.167,83.8333 121.5,80.5 Z"/></g>
<g><path style="opacity:0.067" fill="#dee2e9" d="M 304.5,124.5 C 308.161,128.825 310.494,133.825 311.5,139.5C 311.167,139.5 310.833,139.5 310.5,139.5C 308.761,134.361 306.761,129.361 304.5,124.5 Z"/></g>
<g><path style="opacity:0.047" fill="#e1e5eb" d="M 191.5,137.5 C 191.279,140.067 190.612,142.401 189.5,144.5C 189.171,141.772 189.837,139.438 191.5,137.5 Z"/></g>
<g><path style="opacity:0.369" fill="#c8cfdb" d="M 396.5,112.5 C 399.534,120.801 401.701,129.468 403,138.5C 403.687,147.173 404.02,155.84 404,164.5C 403.617,165.056 403.117,165.389 402.5,165.5C 402.846,147.565 400.846,129.898 396.5,112.5 Z"/></g>
<g><path style="opacity:0.031" fill="#e7ebef" d="M 311.5,139.5 C 313.265,142.123 313.932,145.123 313.5,148.5C 312.662,148.158 312.328,147.492 312.5,146.5C 312.326,144.139 311.993,141.806 311.5,139.5 Z"/></g>
<g><path style="opacity:0.698" fill="#7086a2" d="M 310.5,139.5 C 310.833,139.5 311.167,139.5 311.5,139.5C 311.993,141.806 312.326,144.139 312.5,146.5C 311.076,144.485 310.41,142.152 310.5,139.5 Z"/></g>
<g><path style="opacity:0.325" fill="#c5ccd9" d="M 158.5,161.5 C 158.5,164.167 158.5,166.833 158.5,169.5C 157.511,164.025 157.178,158.358 157.5,152.5C 138.674,151.503 119.674,151.17 100.5,151.5C 100.5,151.167 100.5,150.833 100.5,150.5C 119.329,149.338 138.329,149.171 157.5,150C 158.43,151.194 159.097,152.527 159.5,154C 158.678,156.434 158.344,158.934 158.5,161.5 Z"/></g>
<g><path style="opacity:0.016" fill="#f7f9fa" d="M 100.5,150.5 C 100.5,150.833 100.5,151.167 100.5,151.5C 99.8333,151.5 99.5,151.833 99.5,152.5C 98.5128,157.305 98.1795,162.305 98.5,167.5C 97.3493,162.35 97.1826,157.016 98,151.5C 98.6708,150.748 99.5041,150.414 100.5,150.5 Z"/></g>
<g><path style="opacity:0.895" fill="#556b91" d="M 100.5,151.5 C 119.674,151.17 138.674,151.503 157.5,152.5C 138.5,152.5 119.5,152.5 100.5,152.5C 100.5,159.5 100.5,166.5 100.5,173.5C 99.5088,166.687 99.1755,159.687 99.5,152.5C 99.5,151.833 99.8333,151.5 100.5,151.5 Z"/></g>
<g><path style="opacity:1" fill="#234172" d="M 282.5,104.5 C 289.419,109.082 295.753,114.415 301.5,120.5C 301.738,122.404 302.738,123.738 304.5,124.5C 306.761,129.361 308.761,134.361 310.5,139.5C 310.41,142.152 311.076,144.485 312.5,146.5C 312.328,147.492 312.662,148.158 313.5,148.5C 313.5,148.833 313.5,149.167 313.5,149.5C 313.805,154.762 313.471,159.928 312.5,165C 276.168,165.5 239.835,165.667 203.5,165.5C 205.69,164.055 208.023,162.722 210.5,161.5C 207.354,160.711 204.187,160.045 201,159.5C 200.5,159.167 200,158.833 199.5,158.5C 200.242,157.713 201.075,157.047 202,156.5C 205.411,157.293 208.911,157.793 212.5,158C 213.337,159.011 213.67,160.178 213.5,161.5C 240.733,161.622 267.9,161.289 295,160.5C 296.607,160.769 297.774,161.603 298.5,163C 302.821,163.499 307.154,163.666 311.5,163.5C 312.384,159.51 311.051,156.677 307.5,155C 308.516,154.481 309.182,153.647 309.5,152.5C 308.503,146.527 307.67,140.527 307,134.5C 306.3,132.968 305.134,131.968 303.5,131.5C 302.868,133.737 301.535,135.403 299.5,136.5C 300.833,143.167 302.167,149.833 303.5,156.5C 302.833,156.833 302.167,157.167 301.5,157.5C 297.564,155.942 293.397,155.275 289,155.5C 264.23,156.357 239.396,156.524 214.5,156C 211.039,153.313 207.206,152.813 203,154.5C 200.293,152.428 199.293,149.761 200,146.5C 202.753,142.861 204.919,138.861 206.5,134.5C 204.98,132.338 203.98,130.005 203.5,127.5C 206.406,127.097 208.239,125.431 209,122.5C 209.333,122.833 209.667,123.167 210,123.5C 210.249,122.376 210.749,121.376 211.5,120.5C 211.402,121.616 211.902,122.616 213,123.5C 214.597,122.115 216.43,121.449 218.5,121.5C 212.051,128.061 207.385,135.727 204.5,144.5C 203.532,146.607 203.198,148.941 203.5,151.5C 235.329,152.498 267.329,152.832 299.5,152.5C 299.795,150.265 299.461,148.265 298.5,146.5C 296.192,137.871 291.859,130.538 285.5,124.5C 283.473,121.806 281.139,119.473 278.5,117.5C 281.741,117.878 284.741,118.878 287.5,120.5C 290.267,118.884 292.267,119.551 293.5,122.5C 291.661,124.527 291.161,126.86 292,129.5C 293,129.167 294,128.833 295,128.5C 295.483,127.552 295.649,126.552 295.5,125.5C 296.873,125.657 298.207,125.49 299.5,125C 296.008,120.47 292.674,115.97 289.5,111.5C 288.178,111.67 287.011,111.337 286,110.5C 284.179,108.854 283.013,106.854 282.5,104.5 Z"/></g>
<g><path style="opacity:0.845" fill="#586e95" d="M 298.5,146.5 C 299.461,148.265 299.795,150.265 299.5,152.5C 267.329,152.832 235.329,152.498 203.5,151.5C 234.835,151.667 266.168,151.5 297.5,151C 298.38,149.644 298.714,148.144 298.5,146.5 Z"/></g>
<g><path style="opacity:0.342" fill="#c0c9d7" d="M 285.5,124.5 C 291.859,130.538 296.192,137.871 298.5,146.5C 298.714,148.144 298.38,149.644 297.5,151C 266.168,151.5 234.835,151.667 203.5,151.5C 203.198,148.941 203.532,146.607 204.5,144.5C 204.5,146.5 204.5,148.5 204.5,150.5C 233.167,150.5 261.833,150.5 290.5,150.5C 292.717,149.631 295.05,149.298 297.5,149.5C 295.026,140.397 291.026,132.064 285.5,124.5 Z"/></g>
<g><path style="opacity:0.035" fill="#f7f8fa" d="M 204.5,144.5 C 204.833,144.5 205.167,144.5 205.5,144.5C 205.5,146.167 205.5,147.833 205.5,149.5C 234.005,149.169 262.338,149.502 290.5,150.5C 261.833,150.5 233.167,150.5 204.5,150.5C 204.5,148.5 204.5,146.5 204.5,144.5 Z"/></g>
<g><path style="opacity:0.159" fill="#d9dee6" d="M 313.5,149.5 C 316.002,154.916 316.002,160.416 313.5,166C 277.502,166.5 241.502,166.667 205.5,166.5C 205.5,168.833 205.5,171.167 205.5,173.5C 203.777,171.22 203.111,168.553 203.5,165.5C 239.835,165.667 276.168,165.5 312.5,165C 313.471,159.928 313.805,154.762 313.5,149.5 Z"/></g>
<g><path style="opacity:0.161" fill="#d7dde5" d="M 335.5,119.5 C 336.401,120.29 337.068,121.29 337.5,122.5C 343.176,136.226 345.51,150.56 344.5,165.5C 363.833,165.5 383.167,165.5 402.5,165.5C 383.007,166.497 363.34,166.83 343.5,166.5C 343.358,158.604 342.858,150.604 342,142.5C 339.923,134.775 337.757,127.108 335.5,119.5 Z"/></g>
<g><path style="opacity:0.098" fill="#dfe4ea" d="M 205.5,173.5 C 206.931,174.78 207.598,176.447 207.5,178.5C 206.069,177.22 205.402,175.553 205.5,173.5 Z"/></g>
<g><path style="opacity:0.106" fill="#d2d8e1" d="M 189.5,145.5 C 186.999,159.632 188.999,172.965 195.5,185.5C 197.096,189.745 199.096,193.745 201.5,197.5C 200.357,197.092 199.357,196.425 198.5,195.5C 188.737,179.927 185.737,163.261 189.5,145.5 Z"/></g>
<g><path style="opacity:0.013" fill="#e1e5eb" d="M 158.5,161.5 C 159.59,170.514 161.257,179.514 163.5,188.5C 160.462,182.633 158.795,176.299 158.5,169.5C 158.5,166.833 158.5,164.167 158.5,161.5 Z"/></g>
<g><path style="opacity:0.055" fill="#d9dee6" d="M 113.5,165.5 C 124.082,165.18 134.582,165.513 145,166.5C 146.738,189.29 154.572,209.623 168.5,227.5C 167.504,227.586 166.671,227.252 166,226.5C 152.781,209.069 144.947,189.402 142.5,167.5C 133.19,166.502 123.857,166.168 114.5,166.5C 115.589,176.214 116.922,185.881 118.5,195.5C 117.224,193.438 116.39,191.104 116,188.5C 114.728,180.873 113.895,173.206 113.5,165.5 Z"/></g>
<g><path style="opacity:0.031" fill="#e8ecf0" d="M 163.5,188.5 C 165.074,190.102 165.741,192.102 165.5,194.5C 164.262,192.786 163.595,190.786 163.5,188.5 Z"/></g>
<g><path style="opacity:0.184" fill="#d3d9e2" d="M 207.5,178.5 C 220.483,200.318 239.483,208.485 264.5,203C 277.074,199.102 286.741,191.435 293.5,180C 299.157,179.501 304.824,179.334 310.5,179.5C 305.446,197.556 294.113,209.889 276.5,216.5C 276.5,216.167 276.5,215.833 276.5,215.5C 286.934,211.071 295.267,204.071 301.5,194.5C 305.121,190.929 307.454,186.596 308.5,181.5C 303.456,181.173 298.456,181.506 293.5,182.5C 289.183,188.149 284.517,193.483 279.5,198.5C 277.181,198.992 275.181,199.992 273.5,201.5C 268.856,202.599 264.522,204.266 260.5,206.5C 252.423,207.978 244.423,207.644 236.5,205.5C 226.177,201.522 217.511,195.189 210.5,186.5C 209.448,183.807 208.448,181.14 207.5,178.5 Z"/></g>
<g><path style="opacity:1" fill="#344d79" d="M 301.5,194.5 C 301.714,192.856 301.38,191.356 300.5,190C 303.821,189.072 305.488,186.905 305.5,183.5C 302.167,183.5 298.833,183.5 295.5,183.5C 295.528,185.582 294.861,187.416 293.5,189C 288.408,191.601 283.741,194.768 279.5,198.5C 284.517,193.483 289.183,188.149 293.5,182.5C 298.456,181.506 303.456,181.173 308.5,181.5C 307.454,186.596 305.121,190.929 301.5,194.5 Z"/></g>
<g><path style="opacity:0.094" fill="#dfe4eb" d="M 337.5,191.5 C 337.598,193.553 336.931,195.22 335.5,196.5C 335.402,194.447 336.069,192.78 337.5,191.5 Z"/></g>
<g><path style="opacity:0.059" fill="#e0e5eb" d="M 165.5,194.5 C 167.104,195.287 167.771,196.62 167.5,198.5C 165.896,197.713 165.229,196.38 165.5,194.5 Z"/></g>
<g><path style="opacity:0.035" fill="#ebeef1" d="M 118.5,195.5 C 120.074,197.102 120.741,199.102 120.5,201.5C 119.262,199.786 118.595,197.786 118.5,195.5 Z"/></g>
<g><path style="opacity:0.008" fill="#dadfe7" d="M 201.5,197.5 C 207.835,203.651 214.502,209.318 221.5,214.5C 220.448,214.649 219.448,214.483 218.5,214C 215.681,211.425 212.681,209.092 209.5,207C 206.223,204.234 203.557,201.067 201.5,197.5 Z"/></g>
<g><path style="opacity:0.098" fill="#d7dde5" d="M 393.5,213.5 C 396.117,204.98 398.117,196.313 399.5,187.5C 400.468,185.393 400.802,183.059 400.5,180.5C 396.298,180.183 392.298,180.517 388.5,181.5C 387.883,181.611 387.383,181.944 387,182.5C 386.441,186.186 385.774,189.853 385,193.5C 383.646,198.403 381.813,203.07 379.5,207.5C 381.728,198.867 383.894,190.2 386,181.5C 386.5,181 387,180.5 387.5,180C 392.167,179.333 396.833,179.333 401.5,180C 402.081,180.893 402.415,181.893 402.5,183C 401.292,186.748 400.459,190.581 400,194.5C 398.699,201.24 396.532,207.574 393.5,213.5 Z"/></g>
<g><path style="opacity:0.922" fill="#687a97" d="M 388.5,181.5 C 392.298,180.517 396.298,180.183 400.5,180.5C 400.802,183.059 400.468,185.393 399.5,187.5C 399.5,185.833 399.5,184.167 399.5,182.5C 395.881,181.756 392.215,181.423 388.5,181.5 Z"/></g>
<g><path style="opacity:1" fill="#254173" d="M 195.5,185.5 C 200.173,189.852 204.173,194.852 207.5,200.5C 208.354,199.478 209.354,198.645 210.5,198C 212.18,197.966 213.68,197.799 215,197.5C 215.622,193.951 214.122,191.951 210.5,191.5C 210.5,189.833 210.5,188.167 210.5,186.5C 217.511,195.189 226.177,201.522 236.5,205.5C 231.248,204.791 226.248,203.625 221.5,202C 223.592,203.377 225.258,205.21 226.5,207.5C 224.994,208.747 223.494,208.747 222,207.5C 220.958,210.804 222.125,212.971 225.5,214C 228.658,214.554 231.825,215.054 235,215.5C 239.125,214.695 243.292,214.695 247.5,215.5C 247.5,216.5 247.5,217.5 247.5,218.5C 253.24,218.688 258.74,217.688 264,215.5C 267.955,215.629 272.122,215.629 276.5,215.5C 276.5,215.833 276.5,216.167 276.5,216.5C 271.69,217.036 267.023,218.203 262.5,220C 254.5,220.667 246.5,220.667 238.5,220C 232.791,218.041 227.124,216.207 221.5,214.5C 214.502,209.318 207.835,203.651 201.5,197.5C 199.096,193.745 197.096,189.745 195.5,185.5 Z"/></g>
<g><path style="opacity:1" fill="#1d3e71" d="M 301.5,194.5 C 295.267,204.071 286.934,211.071 276.5,215.5C 273.617,214.077 270.617,212.744 267.5,211.5C 271.177,209.168 274.677,209.168 278,211.5C 279.582,209.376 279.749,207.21 278.5,205C 273.688,204.352 269.022,204.852 264.5,206.5C 267.628,205.017 270.628,203.351 273.5,201.5C 275.181,199.992 277.181,198.992 279.5,198.5C 283.741,194.768 288.408,191.601 293.5,189C 294.861,187.416 295.528,185.582 295.5,183.5C 298.833,183.5 302.167,183.5 305.5,183.5C 305.488,186.905 303.821,189.072 300.5,190C 301.38,191.356 301.714,192.856 301.5,194.5 Z"/></g>
<g><path style="opacity:0.047" fill="#d2d8e2" d="M 318.5,242.5 C 337.715,226.415 350.048,206.082 355.5,181.5C 350.833,181.5 346.167,181.5 341.5,181.5C 340.686,185.116 339.352,188.449 337.5,191.5C 338.191,187.774 339.191,184.107 340.5,180.5C 345.467,179.338 350.467,179.171 355.5,180C 356.357,180.689 357.023,181.522 357.5,182.5C 351.939,205.129 340.605,224.295 323.5,240C 321.922,241.094 320.255,241.928 318.5,242.5 Z"/></g>
<g><path style="opacity:0.855" fill="#6e80a0" d="M 273.5,201.5 C 270.628,203.351 267.628,205.017 264.5,206.5C 263.167,206.5 261.833,206.5 260.5,206.5C 264.522,204.266 268.856,202.599 273.5,201.5 Z"/></g>
<g><path style="opacity:0.043" fill="#dbe0e7" d="M 120.5,201.5 C 122.618,205.624 124.285,209.957 125.5,214.5C 122.485,210.804 120.818,206.47 120.5,201.5 Z"/></g>
<g><path style="opacity:1" fill="#254273" d="M 318.5,242.5 C 316.833,243.167 315.167,243.833 313.5,244.5C 313.586,243.504 313.252,242.671 312.5,242C 315.649,240.492 318.649,238.992 321.5,237.5C 321.5,236.5 321.5,235.5 321.5,234.5C 323.5,233.833 325.5,233.167 327.5,232.5C 327.595,229.728 328.929,227.728 331.5,226.5C 331.192,225.692 330.692,225.025 330,224.5C 329,225.833 328,225.833 327,224.5C 327.75,216.212 325.75,215.545 321,222.5C 320.313,224.568 320.48,226.568 321.5,228.5C 321.192,229.308 320.692,229.975 320,230.5C 318.42,226.673 316.92,226.839 315.5,231C 313.26,231.977 310.927,232.477 308.5,232.5C 313.017,228.59 317.017,224.257 320.5,219.5C 327.459,213.189 332.459,205.522 335.5,196.5C 336.931,195.22 337.598,193.553 337.5,191.5C 339.352,188.449 340.686,185.116 341.5,181.5C 346.167,181.5 350.833,181.5 355.5,181.5C 350.048,206.082 337.715,226.415 318.5,242.5 Z"/></g>
<g><path style="opacity:1" fill="#183b72" d="M 236.5,205.5 C 238.026,207.13 240.026,207.963 242.5,208C 249.167,208.667 255.833,208.667 262.5,208C 263.416,207.722 264.082,207.222 264.5,206.5C 269.022,204.852 273.688,204.352 278.5,205C 279.749,207.21 279.582,209.376 278,211.5C 274.677,209.168 271.177,209.168 267.5,211.5C 270.617,212.744 273.617,214.077 276.5,215.5C 272.122,215.629 267.955,215.629 264,215.5C 258.74,217.688 253.24,218.688 247.5,218.5C 247.5,217.5 247.5,216.5 247.5,215.5C 243.292,214.695 239.125,214.695 235,215.5C 231.825,215.054 228.658,214.554 225.5,214C 222.125,212.971 220.958,210.804 222,207.5C 223.494,208.747 224.994,208.747 226.5,207.5C 225.258,205.21 223.592,203.377 221.5,202C 226.248,203.625 231.248,204.791 236.5,205.5 Z"/></g>
<g><path style="opacity:1" fill="#37527c" d="M 236.5,205.5 C 244.423,207.644 252.423,207.978 260.5,206.5C 261.833,206.5 263.167,206.5 264.5,206.5C 264.082,207.222 263.416,207.722 262.5,208C 255.833,208.667 249.167,208.667 242.5,208C 240.026,207.963 238.026,207.13 236.5,205.5 Z"/></g>
<g><path style="opacity:1" fill="#1f3f72" d="M 157.5,152.5 C 157.178,158.358 157.511,164.025 158.5,169.5C 158.795,176.299 160.462,182.633 163.5,188.5C 163.595,190.786 164.262,192.786 165.5,194.5C 165.229,196.38 165.896,197.713 167.5,198.5C 173.568,213.749 183.568,225.916 197.5,235C 211.758,244.46 227.425,249.96 244.5,251.5C 251.321,252.655 258.321,252.821 265.5,252C 272.451,249.875 279.451,247.875 286.5,246C 288.584,245.303 290.251,244.136 291.5,242.5C 297.162,239.175 302.828,235.841 308.5,232.5C 306.825,235.61 304.325,237.943 301,239.5C 300.493,240.996 300.993,242.163 302.5,243C 296.989,243.216 291.656,244.716 286.5,247.5C 286.514,250.679 284.68,252.679 281,253.5C 279.847,251.503 278.347,251.17 276.5,252.5C 277.641,253.425 277.641,254.259 276.5,255C 269.833,256.126 263.333,257.626 257,259.5C 250.576,256.081 244.242,256.081 238,259.5C 235.498,257.566 232.664,256.566 229.5,256.5C 229.5,257.5 229.5,258.5 229.5,259.5C 231.415,259.216 233.081,259.549 234.5,260.5C 231.299,260.587 227.965,260.92 224.5,261.5C 223.962,259.883 223.629,258.216 223.5,256.5C 220.214,257.207 216.881,257.54 213.5,257.5C 213.33,256.178 213.663,255.011 214.5,254C 230.671,254.376 231.337,251.876 216.5,246.5C 211.291,246.418 206.791,244.752 203,241.5C 203.445,245.533 201.611,246.866 197.5,245.5C 196.23,247.757 196.564,249.757 198.5,251.5C 197.833,251.5 197.167,251.5 196.5,251.5C 192.447,248.117 188.114,245.117 183.5,242.5C 183.5,242.167 183.5,241.833 183.5,241.5C 178.5,236.833 173.5,232.167 168.5,227.5C 154.572,209.623 146.738,189.29 145,166.5C 134.582,165.513 124.082,165.18 113.5,165.5C 112.686,167.631 112.186,169.964 112,172.5C 111.072,170.665 109.906,170.332 108.5,171.5C 107.069,171.023 105.736,170.357 104.5,169.5C 105.795,166.634 105.795,163.801 104.5,161C 105.025,160.308 105.692,159.808 106.5,159.5C 120.121,160.648 133.788,160.815 147.5,160C 149.405,159.174 149.739,158.007 148.5,156.5C 132.845,156.914 117.178,156.247 101.5,154.5C 101.334,161.841 101.5,169.174 102,176.5C 102.903,177.701 104.069,178.535 105.5,179C 104.244,183.039 103.577,187.206 103.5,191.5C 101.224,185.845 100.224,179.845 100.5,173.5C 100.5,166.5 100.5,159.5 100.5,152.5C 119.5,152.5 138.5,152.5 157.5,152.5 Z"/></g>
<g><path style="opacity:0.102" fill="#e0e4eb" d="M 379.5,207.5 C 378.958,210.912 377.625,213.912 375.5,216.5C 376.059,213.057 377.393,210.057 379.5,207.5 Z"/></g>
<g><path style="opacity:0.106" fill="#dde1e9" d="M 335.5,196.5 C 332.459,205.522 327.459,213.189 320.5,219.5C 325.764,211.963 330.764,204.296 335.5,196.5 Z"/></g>
<g><path style="opacity:0.049" fill="#dadfe7" d="M 221.5,214.5 C 227.124,216.207 232.791,218.041 238.5,220C 246.5,220.667 254.5,220.667 262.5,220C 267.023,218.203 271.69,217.036 276.5,216.5C 268.654,220.723 260.154,222.723 251,222.5C 241.771,222.493 232.938,220.66 224.5,217C 223.058,216.623 222.058,215.79 221.5,214.5 Z"/></g>
<g><path style="opacity:0.043" fill="#dee2e9" d="M 125.5,214.5 C 131.397,225.072 137.731,235.405 144.5,245.5C 135.894,236.634 129.561,226.301 125.5,214.5 Z"/></g>
<g><path style="opacity:0.043" fill="#d0d5e0" d="M 393.5,213.5 C 390.606,223.628 385.939,232.628 379.5,240.5C 384.243,231.456 388.91,222.456 393.5,213.5 Z"/></g>
<g><path style="opacity:0.035" fill="#d7dce4" d="M 168.5,227.5 C 173.5,232.167 178.5,236.833 183.5,241.5C 183.5,241.833 183.5,242.167 183.5,242.5C 177.5,238.5 172.5,233.5 168.5,227.5 Z"/></g>
<g><path style="opacity:0.22" fill="#d7dce5" d="M 167.5,198.5 C 188.906,236.024 221.239,252.858 264.5,249C 267.757,247.957 271.09,247.457 274.5,247.5C 264.951,251.042 254.951,252.376 244.5,251.5C 227.425,249.96 211.758,244.46 197.5,235C 183.568,225.916 173.568,213.749 167.5,198.5 Z"/></g>
<g><path style="opacity:0.259" fill="#dbe0e8" d="M 320.5,219.5 C 317.017,224.257 313.017,228.59 308.5,232.5C 302.828,235.841 297.162,239.175 291.5,242.5C 289.883,243.038 288.216,243.371 286.5,243.5C 298.877,236.978 310.211,228.978 320.5,219.5 Z"/></g>
<g><path style="opacity:1" fill="#1d3d72" d="M 113.5,165.5 C 113.895,173.206 114.728,180.873 116,188.5C 116.39,191.104 117.224,193.438 118.5,195.5C 118.595,197.786 119.262,199.786 120.5,201.5C 120.818,206.47 122.485,210.804 125.5,214.5C 129.561,226.301 135.894,236.634 144.5,245.5C 157.873,262.838 174.54,275.838 194.5,284.5C 195.234,285.708 195.567,287.041 195.5,288.5C 198.249,288.274 200.916,288.607 203.5,289.5C 204.429,290.689 204.762,292.022 204.5,293.5C 207.5,293.5 210.5,293.5 213.5,293.5C 212.918,281.684 212.251,270.017 211.5,258.5C 207.001,256.345 202.668,254.011 198.5,251.5C 196.564,249.757 196.23,247.757 197.5,245.5C 201.611,246.866 203.445,245.533 203,241.5C 206.791,244.752 211.291,246.418 216.5,246.5C 231.337,251.876 230.671,254.376 214.5,254C 213.663,255.011 213.33,256.178 213.5,257.5C 216.881,257.54 220.214,257.207 223.5,256.5C 223.629,258.216 223.962,259.883 224.5,261.5C 222.492,262.616 221.492,264.449 221.5,267C 223.567,276.304 224.067,285.804 223,295.5C 222.308,296.025 221.808,296.692 221.5,297.5C 225.398,304.285 223.398,306.951 215.5,305.5C 205.996,303.413 196.662,300.747 187.5,297.5C 146.594,276.746 119.094,244.413 105,200.5C 104.304,197.522 103.804,194.522 103.5,191.5C 103.577,187.206 104.244,183.039 105.5,179C 104.069,178.535 102.903,177.701 102,176.5C 101.5,169.174 101.334,161.841 101.5,154.5C 117.178,156.247 132.845,156.914 148.5,156.5C 149.739,158.007 149.405,159.174 147.5,160C 133.788,160.815 120.121,160.648 106.5,159.5C 105.692,159.808 105.025,160.308 104.5,161C 105.795,163.801 105.795,166.634 104.5,169.5C 105.736,170.357 107.069,171.023 108.5,171.5C 109.906,170.332 111.072,170.665 112,172.5C 112.186,169.964 112.686,167.631 113.5,165.5 Z"/></g>
<g><path style="opacity:1" fill="#183b72" d="M 183.5,241.5 C 183.297,239.362 182.297,237.695 180.5,236.5C 180.808,235.692 181.308,235.025 182,234.5C 185.976,236.382 188.142,235.048 188.5,230.5C 191.389,234.225 194.723,237.392 198.5,240C 197.368,242.133 195.868,243.966 194,245.5C 192.941,245.37 192.108,244.87 191.5,244C 192.591,241.936 192.758,239.769 192,237.5C 189.603,239.782 186.769,241.116 183.5,241.5 Z"/></g>
<g><path style="opacity:0.075" fill="#e0e4eb" d="M 286.5,243.5 C 283.044,246.208 279.044,247.541 274.5,247.5C 278.277,245.799 282.277,244.466 286.5,243.5 Z"/></g>
<g><path style="opacity:0.102" fill="#d9dee6" d="M 183.5,242.5 C 188.114,245.117 192.447,248.117 196.5,251.5C 191.333,249.746 187,246.746 183.5,242.5 Z"/></g>
<g><path style="opacity:1" fill="#183b72" d="M 313.5,244.5 C 312.198,246.822 310.198,248.155 307.5,248.5C 304.307,248.954 301.474,250.287 299,252.5C 296.486,252.483 293.986,252.149 291.5,251.5C 290.795,255.62 289.128,259.287 286.5,262.5C 288.603,264.127 288.936,266.127 287.5,268.5C 289.153,276.367 289.987,284.367 290,292.5C 292.432,293.45 294.932,293.45 297.5,292.5C 297.759,295.48 296.426,297.313 293.5,298C 294.5,299 295.5,300 296.5,301C 293.581,302.14 290.581,302.973 287.5,303.5C 285.956,303.21 284.623,302.544 283.5,301.5C 282.345,298.554 282.179,295.554 283,292.5C 284.138,296.35 285.304,296.35 286.5,292.5C 285.569,285.204 285.235,277.871 285.5,270.5C 282.619,269.016 280.286,269.683 278.5,272.5C 278.789,268.894 278.456,265.394 277.5,262C 271.222,261.204 265.056,261.704 259,263.5C 257.187,263.173 255.52,262.507 254,261.5C 252.042,262.051 250.042,262.385 248,262.5C 243.504,261.75 239.004,261.084 234.5,260.5C 233.081,259.549 231.415,259.216 229.5,259.5C 229.5,258.5 229.5,257.5 229.5,256.5C 232.664,256.566 235.498,257.566 238,259.5C 244.242,256.081 250.576,256.081 257,259.5C 263.333,257.626 269.833,256.126 276.5,255C 277.641,254.259 277.641,253.425 276.5,252.5C 278.347,251.17 279.847,251.503 281,253.5C 284.68,252.679 286.514,250.679 286.5,247.5C 291.656,244.716 296.989,243.216 302.5,243C 300.993,242.163 300.493,240.996 301,239.5C 304.325,237.943 306.825,235.61 308.5,232.5C 310.927,232.477 313.26,231.977 315.5,231C 316.92,226.839 318.42,226.673 320,230.5C 320.692,229.975 321.192,229.308 321.5,228.5C 320.48,226.568 320.313,224.568 321,222.5C 325.75,215.545 327.75,216.212 327,224.5C 328,225.833 329,225.833 330,224.5C 330.692,225.025 331.192,225.692 331.5,226.5C 328.929,227.728 327.595,229.728 327.5,232.5C 325.5,233.167 323.5,233.833 321.5,234.5C 321.5,235.5 321.5,236.5 321.5,237.5C 318.649,238.992 315.649,240.492 312.5,242C 313.252,242.671 313.586,243.504 313.5,244.5 Z"/></g>
<g><path style="opacity:1" fill="#52698f" d="M 291.5,242.5 C 290.251,244.136 288.584,245.303 286.5,246C 279.451,247.875 272.451,249.875 265.5,252C 258.321,252.821 251.321,252.655 244.5,251.5C 254.951,252.376 264.951,251.042 274.5,247.5C 279.044,247.541 283.044,246.208 286.5,243.5C 288.216,243.371 289.883,243.038 291.5,242.5 Z"/></g>
<g><path style="opacity:0.102" fill="#dce0e8" d="M 318.5,242.5 C 318.586,243.496 318.252,244.329 317.5,245C 309.581,250.211 301.414,255.045 293,259.5C 292.168,269.184 292.335,278.851 293.5,288.5C 298.646,285.924 303.979,283.924 309.5,282.5C 308.833,283.167 308.167,283.833 307.5,284.5C 303.203,285.655 299.203,287.321 295.5,289.5C 294.167,289.5 292.833,289.5 291.5,289.5C 291.333,278.828 291.5,268.161 292,257.5C 297.771,255.37 302.938,252.37 307.5,248.5C 310.198,248.155 312.198,246.822 313.5,244.5C 315.167,243.833 316.833,243.167 318.5,242.5 Z"/></g>
<g><path style="opacity:1" fill="#1f3f72" d="M 388.5,181.5 C 392.215,181.423 395.881,181.756 399.5,182.5C 399.5,184.167 399.5,185.833 399.5,187.5C 398.117,196.313 396.117,204.98 393.5,213.5C 388.91,222.456 384.243,231.456 379.5,240.5C 373.173,248.495 366.84,256.495 360.5,264.5C 338.22,286.14 311.887,300.14 281.5,306.5C 280.5,306.5 279.5,306.5 278.5,306.5C 278.5,295.167 278.5,283.833 278.5,272.5C 280.286,269.683 282.619,269.016 285.5,270.5C 285.235,277.871 285.569,285.204 286.5,292.5C 285.304,296.35 284.138,296.35 283,292.5C 282.179,295.554 282.345,298.554 283.5,301.5C 284.623,302.544 285.956,303.21 287.5,303.5C 290.581,302.973 293.581,302.14 296.5,301C 295.5,300 294.5,299 293.5,298C 296.426,297.313 297.759,295.48 297.5,292.5C 294.932,293.45 292.432,293.45 290,292.5C 289.987,284.367 289.153,276.367 287.5,268.5C 288.936,266.127 288.603,264.127 286.5,262.5C 289.128,259.287 290.795,255.62 291.5,251.5C 293.986,252.149 296.486,252.483 299,252.5C 301.474,250.287 304.307,248.954 307.5,248.5C 302.938,252.37 297.771,255.37 292,257.5C 291.5,268.161 291.333,278.828 291.5,289.5C 292.833,289.5 294.167,289.5 295.5,289.5C 300.375,289.631 304.375,287.964 307.5,284.5C 308.167,283.833 308.833,283.167 309.5,282.5C 336.47,270.37 357.303,251.37 372,225.5C 373.284,222.47 374.451,219.47 375.5,216.5C 377.625,213.912 378.958,210.912 379.5,207.5C 381.813,203.07 383.646,198.403 385,193.5C 385.774,189.853 386.441,186.186 387,182.5C 387.383,181.944 387.883,181.611 388.5,181.5 Z"/></g>
<g><path style="opacity:0.11" fill="#d9dee6" d="M 375.5,216.5 C 374.451,219.47 373.284,222.47 372,225.5C 357.303,251.37 336.47,270.37 309.5,282.5C 330.831,271.343 348.664,256.01 363,236.5C 367.455,229.904 371.621,223.238 375.5,216.5 Z"/></g>
<g><path style="opacity:1" fill="#314b76" d="M 234.5,260.5 C 239.004,261.084 243.504,261.75 248,262.5C 250.042,262.385 252.042,262.051 254,261.5C 255.52,262.507 257.187,263.173 259,263.5C 265.056,261.704 271.222,261.204 277.5,262C 278.456,265.394 278.789,268.894 278.5,272.5C 278.5,283.833 278.5,295.167 278.5,306.5C 279.5,306.5 280.5,306.5 281.5,306.5C 280.432,307.434 279.099,307.768 277.5,307.5C 277.5,292.833 277.5,278.167 277.5,263.5C 265.222,265.043 252.888,265.71 240.5,265.5C 235.523,264.673 230.523,264.006 225.5,263.5C 225.5,278.167 225.5,292.833 225.5,307.5C 221.96,307.247 218.627,306.581 215.5,305.5C 223.398,306.951 225.398,304.285 221.5,297.5C 221.808,296.692 222.308,296.025 223,295.5C 224.067,285.804 223.567,276.304 221.5,267C 221.492,264.449 222.492,262.616 224.5,261.5C 227.965,260.92 231.299,260.587 234.5,260.5 Z"/></g>
<g><path style="opacity:0.008" fill="#d6dbe4" d="M 379.5,240.5 C 378.453,244.261 376.619,247.594 374,250.5C 371,254.167 368,257.833 365,261.5C 363.871,263.141 362.371,264.141 360.5,264.5C 366.84,256.495 373.173,248.495 379.5,240.5 Z"/></g>
<g><path style="opacity:0.038" fill="#e6e9ee" d="M 240.5,265.5 C 240.5,265.833 240.5,266.167 240.5,266.5C 235.773,266.221 231.107,265.554 226.5,264.5C 226.824,279.412 226.491,294.245 225.5,309C 212.037,307.678 199.37,303.845 187.5,297.5C 196.662,300.747 205.996,303.413 215.5,305.5C 218.627,306.581 221.96,307.247 225.5,307.5C 225.5,292.833 225.5,278.167 225.5,263.5C 230.523,264.006 235.523,264.673 240.5,265.5 Z"/></g>
<g><path style="opacity:0.09" fill="#d7dce5" d="M 144.5,245.5 C 152.653,253.815 161.319,261.649 170.5,269C 179.116,274.492 187.783,279.659 196.5,284.5C 195.833,284.5 195.167,284.5 194.5,284.5C 174.54,275.838 157.873,262.838 144.5,245.5 Z"/></g>
<g><path style="opacity:0.071" fill="#d7dce5" d="M 99.5,152.5 C 99.1755,159.687 99.5088,166.687 100.5,173.5C 100.224,179.845 101.224,185.845 103.5,191.5C 103.804,194.522 104.304,197.522 105,200.5C 119.094,244.413 146.594,276.746 187.5,297.5C 146.517,279.013 119.017,248.346 105,205.5C 100.915,193.161 98.7484,180.494 98.5,167.5C 98.1795,162.305 98.5128,157.305 99.5,152.5 Z"/></g>
<g><path style="opacity:0.312" fill="#c5ccd9" d="M 196.5,251.5 C 197.167,251.5 197.833,251.5 198.5,251.5C 202.668,254.011 207.001,256.345 211.5,258.5C 211.5,268.833 211.5,279.167 211.5,289.5C 207.584,289.975 204.251,288.975 201.5,286.5C 203.936,286.317 206.103,286.984 208,288.5C 208.667,287.833 209.333,287.167 210,286.5C 210.667,277.833 210.667,269.167 210,260.5C 206.245,257.518 202.078,255.185 197.5,253.5C 196.702,253.043 196.369,252.376 196.5,251.5 Z"/></g>
<g><path style="opacity:0.384" fill="#b5bfce" d="M 277.5,307.5 C 277.167,307.5 276.833,307.5 276.5,307.5C 276.667,293.496 276.5,279.496 276,265.5C 275.439,264.978 274.772,264.645 274,264.5C 262.929,267.445 251.762,268.112 240.5,266.5C 240.5,266.167 240.5,265.833 240.5,265.5C 252.888,265.71 265.222,265.043 277.5,263.5C 277.5,278.167 277.5,292.833 277.5,307.5 Z"/></g>
<g><path style="opacity:0.976" fill="#586a91" d="M 307.5,284.5 C 304.375,287.964 300.375,289.631 295.5,289.5C 299.203,287.321 303.203,285.655 307.5,284.5 Z"/></g>
<g><path style="opacity:1" fill="#324b78" d="M 211.5,258.5 C 212.251,270.017 212.918,281.684 213.5,293.5C 210.5,293.5 207.5,293.5 204.5,293.5C 204.762,292.022 204.429,290.689 203.5,289.5C 200.916,288.607 198.249,288.274 195.5,288.5C 195.567,287.041 195.234,285.708 194.5,284.5C 195.167,284.5 195.833,284.5 196.5,284.5C 197.93,285.537 199.597,286.204 201.5,286.5C 204.251,288.975 207.584,289.975 211.5,289.5C 211.5,279.167 211.5,268.833 211.5,258.5 Z"/></g>
<g><path style="opacity:0.012" fill="#f0f2f5" d="M 196.5,284.5 C 198.698,284.12 200.365,284.787 201.5,286.5C 199.597,286.204 197.93,285.537 196.5,284.5 Z"/></g>
<g><path style="opacity:0.047" fill="#d5dae3" d="M 360.5,264.5 C 359.457,267.056 357.79,269.223 355.5,271C 333.478,290.962 307.812,303.795 278.5,309.5C 277.287,309.253 276.62,308.586 276.5,307.5C 276.833,307.5 277.167,307.5 277.5,307.5C 279.099,307.768 280.432,307.434 281.5,306.5C 311.887,300.14 338.22,286.14 360.5,264.5 Z"/></g>
<g><path style="opacity:1" fill="#314c7d" d="M 138.5,376.5 C 138.167,375.5 137.5,374.833 136.5,374.5C 135.786,368.33 135.619,361.997 136,355.5C 135.484,352.966 134.317,350.8 132.5,349C 133.126,348.25 133.626,347.416 134,346.5C 134.172,340.319 134.672,334.319 135.5,328.5C 137.764,327.781 140.097,327.448 142.5,327.5C 143.125,333.116 143.792,338.783 144.5,344.5C 147.084,345.393 149.751,345.726 152.5,345.5C 152.334,338.825 152.5,332.158 153,325.5C 155.565,323.821 158.398,323.154 161.5,323.5C 162.587,338.497 163.587,353.497 164.5,368.5C 164.069,369.293 163.735,370.127 163.5,371C 165.316,375.588 166.983,380.255 168.5,385C 165.862,386.549 163.029,387.715 160,388.5C 159.055,388.095 158.388,387.428 158,386.5C 155.52,375.29 154.02,363.957 153.5,352.5C 150.518,352.037 147.518,351.704 144.5,351.5C 144.59,359.483 144.59,367.483 144.5,375.5C 142.833,376.167 141.167,376.833 139.5,377.5C 138.893,377.376 138.56,377.043 138.5,376.5 Z"/></g>
<g><path style="opacity:1" fill="#2d4a7b" d="M 356.5,323.5 C 357.167,323.5 357.833,323.5 358.5,323.5C 360.167,323.5 361.833,323.5 363.5,323.5C 363.194,326.385 363.527,329.052 364.5,331.5C 364.5,332.5 364.5,333.5 364.5,334.5C 364.5,337.167 364.5,339.833 364.5,342.5C 366.099,342.768 367.432,342.434 368.5,341.5C 371.054,340.612 373.721,340.279 376.5,340.5C 376.822,342.722 376.155,344.556 374.5,346C 371.568,347.145 368.568,347.978 365.5,348.5C 365.407,354.516 365.074,360.516 364.5,366.5C 364.739,368.467 364.406,370.301 363.5,372C 364.094,372.464 364.761,372.631 365.5,372.5C 366.302,378.152 366.469,383.818 366,389.5C 364.134,392.434 361.467,394.1 358,394.5C 355.602,387.646 355.102,380.646 356.5,373.5C 355.729,369.685 355.062,365.852 354.5,362C 355.169,358.501 355.336,355.001 355,351.5C 354.692,350.692 354.192,350.025 353.5,349.5C 349.616,348.559 345.949,347.059 342.5,345C 340.65,341.253 341.817,339.086 346,338.5C 348.657,339.077 351.157,340.077 353.5,341.5C 354.495,336.208 354.828,330.875 354.5,325.5C 355.5,325.167 356.167,324.5 356.5,323.5 Z"/></g>
<g><path style="opacity:0.8" fill="#8a9bb7" d="M 356.5,323.5 C 356.167,324.5 355.5,325.167 354.5,325.5C 354.062,325.565 353.728,325.399 353.5,325C 354.244,323.961 355.244,323.461 356.5,323.5 Z"/></g>
<g><path style="opacity:0.467" fill="#8296b2" d="M 358.5,323.5 C 360.265,322.539 362.265,322.205 364.5,322.5C 364.5,325.5 364.5,328.5 364.5,331.5C 363.527,329.052 363.194,326.385 363.5,323.5C 361.833,323.5 360.167,323.5 358.5,323.5 Z"/></g>
<g><path style="opacity:0.733" fill="#6a80a2" d="M 142.5,327.5 C 140.097,327.448 137.764,327.781 135.5,328.5C 136.312,327.007 137.645,326.34 139.5,326.5C 140.726,326.52 141.726,326.853 142.5,327.5 Z"/></g>
<g><path style="opacity:1" fill="#304b7d" d="M 409.5,354.5 C 410.833,354.5 412.167,354.5 413.5,354.5C 413.629,352.784 413.962,351.117 414.5,349.5C 417.373,347.518 420.373,347.185 423.5,348.5C 423.777,351.448 423.444,354.281 422.5,357C 423.577,357.47 424.577,357.303 425.5,356.5C 426.597,360.408 428.264,364.075 430.5,367.5C 430.471,369.029 429.804,370.196 428.5,371C 426.5,371.5 424.5,372 422.5,372.5C 421.353,372.182 420.519,371.516 420,370.5C 419.089,367.689 418.256,364.856 417.5,362C 416.902,360.699 415.902,359.865 414.5,359.5C 412.377,362.246 410.377,365.079 408.5,368C 405.909,369.718 403.242,370.218 400.5,369.5C 399.615,364.874 398.949,360.207 398.5,355.5C 398.721,354.265 399.388,353.265 400.5,352.5C 399.675,351.614 398.675,351.281 397.5,351.5C 396.117,345.095 396.45,338.761 398.5,332.5C 399.308,330.78 400.308,329.113 401.5,327.5C 403.717,326.631 406.05,326.298 408.5,326.5C 408.149,332.661 407.816,338.828 407.5,345C 407.515,348.576 408.182,351.742 409.5,354.5 Z"/></g>
<g><path style="opacity:1" fill="#365080" d="M 46.5,360.5 C 48.1788,360.285 49.1788,360.952 49.5,362.5C 48.5707,363.315 47.5707,364.148 46.5,365C 36.5775,367.974 26.7442,371.141 17,374.5C 15.5596,373.07 15.2263,371.403 16,369.5C 23.4705,361.457 25.4705,352.124 22,341.5C 21.4257,339.508 20.259,338.008 18.5,337C 13.9072,335.749 9.24056,334.915 4.5,334.5C 4.28649,332.856 4.61983,331.356 5.5,330C 8.68653,329.111 11.8532,328.278 15,327.5C 26.4258,329.92 37.9258,329.92 49.5,327.5C 53.7085,327.443 55.0418,329.276 53.5,333C 46.1991,334.163 38.8658,334.997 31.5,335.5C 31.2317,338.119 31.565,340.619 32.5,343C 36.5575,343.767 40.5575,343.6 44.5,342.5C 46.1123,345.753 45.1123,347.92 41.5,349C 38.5682,349.953 35.5682,350.453 32.5,350.5C 32.1237,354.966 31.1237,359.299 29.5,363.5C 29.8333,363.833 30.1667,364.167 30.5,364.5C 35.6842,362.537 41.0175,361.204 46.5,360.5 Z"/></g>
<g><path style="opacity:0.467" fill="#a2b1c6" d="M 401.5,327.5 C 400.308,329.113 399.308,330.78 398.5,332.5C 397.916,329.715 398.916,328.048 401.5,327.5 Z"/></g>
<g><path style="opacity:1" fill="#344e7f" d="M 313.5,362.5 C 314.09,363.766 314.59,365.099 315,366.5C 315.383,365.944 315.883,365.611 316.5,365.5C 318.655,365.628 320.655,365.128 322.5,364C 324.083,362.242 325.75,360.742 327.5,359.5C 329.017,359.489 330.184,358.823 331,357.5C 331.678,359.598 331.511,361.598 330.5,363.5C 326.756,369.046 321.422,372.046 314.5,372.5C 312.366,372.485 310.366,371.985 308.5,371C 304.758,366.483 303.591,361.316 305,355.5C 306.881,347.547 308.548,339.547 310,331.5C 312.653,328.806 315.82,327.973 319.5,329C 320.059,329.725 320.392,330.558 320.5,331.5C 317.006,341.885 314.673,352.218 313.5,362.5 Z"/></g>
<g><path style="opacity:1" fill="#354f80" d="M 201.5,362.5 C 201.427,364.027 202.094,365.027 203.5,365.5C 207.141,368.852 211.141,369.019 215.5,366C 217.027,364.968 218.36,363.801 219.5,362.5C 220.833,362.5 221.5,361.833 221.5,360.5C 225.979,353.47 227.812,354.137 227,362.5C 225.285,364.759 223.452,366.926 221.5,369C 216.502,371.555 211.335,373.722 206,375.5C 195.31,374.969 190.477,369.303 191.5,358.5C 191.998,346.549 198.331,340.383 210.5,340C 216.379,338.777 221.879,339.611 227,342.5C 227.93,345.85 227.097,348.683 224.5,351C 217.707,356.113 210.041,358.78 201.5,359C 200.829,359.986 200.829,361.153 201.5,362.5 Z M 210.5,345.5 C 213.588,345.197 215.254,346.53 215.5,349.5C 212.972,350.011 210.472,350.678 208,351.5C 202.508,351.483 201.675,349.983 205.5,347C 207.382,346.802 209.048,346.302 210.5,345.5 Z"/></g>
<g><path style="opacity:0.467" fill="#a1b0c5" d="M 364.5,334.5 C 365.468,336.607 365.802,338.941 365.5,341.5C 366.5,341.5 367.5,341.5 368.5,341.5C 367.432,342.434 366.099,342.768 364.5,342.5C 364.5,339.833 364.5,337.167 364.5,334.5 Z"/></g>
<g><path style="opacity:1" fill="#344f7f" d="M 266.5,346.5 C 267.514,347.674 268.847,348.34 270.5,348.5C 272.384,348.712 273.717,349.712 274.5,351.5C 276.097,355.79 277.597,360.124 279,364.5C 281.563,366.888 282.063,369.555 280.5,372.5C 278.517,372.157 277.183,372.824 276.5,374.5C 275.749,375.573 274.749,375.74 273.5,375C 272.104,372.292 270.437,369.792 268.5,367.5C 265.467,369.759 262.134,371.426 258.5,372.5C 257.261,372.058 256.261,371.391 255.5,370.5C 254.833,368.5 253.5,367.167 251.5,366.5C 246.836,358.963 247.836,352.13 254.5,346C 258.587,345.238 262.587,345.404 266.5,346.5 Z M 257.5,352.5 C 264.273,352.487 266.273,355.654 263.5,362C 262.902,363.301 261.902,364.135 260.5,364.5C 256.672,361.187 255.672,357.187 257.5,352.5 Z"/></g>
<g><path style="opacity:1" fill="#314c7d" d="M 493.5,406.5 C 493.672,408.492 493.005,410.158 491.5,411.5C 491.624,412.107 491.957,412.44 492.5,412.5C 493.209,413.404 494.209,413.737 495.5,413.5C 495.263,414.791 495.596,415.791 496.5,416.5C 496.5,417.5 496.5,418.5 496.5,419.5C 494.067,419.786 494.067,420.452 496.5,421.5C 496.672,422.492 496.338,423.158 495.5,423.5C 494.226,424.189 494.226,425.023 495.5,426C 492.598,426.919 492.265,427.752 494.5,428.5C 495.097,428.735 495.43,429.235 495.5,430C 492.704,437.557 487.371,442.057 479.5,443.5C 477.173,443.753 475.173,443.086 473.5,441.5C 472.158,443.005 470.492,443.672 468.5,443.5C 466.358,443.31 464.025,443.144 461.5,443C 458.995,441.247 456.329,439.747 453.5,438.5C 451.585,436.929 450.585,434.929 450.5,432.5C 448.217,432.392 446.217,431.559 444.5,430C 443.748,429.329 443.414,428.496 443.5,427.5C 443.715,425.821 443.048,424.821 441.5,424.5C 440.662,424.158 440.328,423.492 440.5,422.5C 440.843,420.517 440.176,419.183 438.5,418.5C 437.766,417.292 437.433,415.959 437.5,414.5C 438.815,413.105 438.481,412.105 436.5,411.5C 431.701,400.259 433.034,389.759 440.5,380C 445.44,376.342 450.774,375.675 456.5,378C 457.167,379 457.833,380 458.5,381C 449.236,378.76 444.069,382.26 443,391.5C 442.333,395.167 442.333,398.833 443,402.5C 444.942,408.824 446.775,415.157 448.5,421.5C 449.5,421.5 450.5,421.5 451.5,421.5C 452.044,423.58 452.878,425.58 454,427.5C 455.518,428.163 456.685,429.163 457.5,430.5C 457.586,431.496 457.252,432.329 456.5,433C 457.793,433.49 459.127,433.657 460.5,433.5C 460.821,435.048 461.821,435.715 463.5,435.5C 464.183,437.176 465.517,437.843 467.5,437.5C 482.052,440.436 489.052,434.436 488.5,419.5C 483.433,401.133 478.266,382.8 473,364.5C 468.338,369.918 462.505,372.084 455.5,371C 454.333,370.5 453.5,369.667 453,368.5C 453.725,362.257 454.391,355.924 455,349.5C 456.11,347.963 457.61,347.297 459.5,347.5C 461.167,347.5 462.833,347.5 464.5,347.5C 464.5,348.833 464.5,350.167 464.5,351.5C 463.387,355.507 463.387,359.507 464.5,363.5C 469.618,359.862 472.452,354.862 473,348.5C 476.116,346.193 479.616,344.86 483.5,344.5C 482.787,352.762 483.787,360.762 486.5,368.5C 486.32,369.554 485.987,370.554 485.5,371.5C 489.088,382.947 491.755,394.613 493.5,406.5 Z"/></g>
<g><path style="opacity:0.6" fill="#93a3bc" d="M 266.5,346.5 C 268.38,346.229 269.713,346.896 270.5,348.5C 268.847,348.34 267.514,347.674 266.5,346.5 Z"/></g>
<g><path style="opacity:0.467" fill="#9eaec3" d="M 459.5,347.5 C 461.265,346.539 463.265,346.205 465.5,346.5C 465.784,348.415 465.451,350.081 464.5,351.5C 464.5,350.167 464.5,348.833 464.5,347.5C 462.833,347.5 461.167,347.5 459.5,347.5 Z"/></g>
<g><path style="opacity:1" fill="#314d7e" d="M 87.5,354.5 C 84.8333,354.5 82.1667,354.5 79.5,354.5C 79.5,353.5 79.5,352.5 79.5,351.5C 80.0577,350.21 81.0577,349.377 82.5,349C 89.4921,348.5 96.4921,348.334 103.5,348.5C 103.201,351.642 101.534,353.809 98.5,355C 94.8297,355.279 91.163,355.112 87.5,354.5 Z"/></g>
<g><path style="opacity:0.667" fill="#7f93b0" d="M 397.5,351.5 C 398.675,351.281 399.675,351.614 400.5,352.5C 399.388,353.265 398.721,354.265 398.5,355.5C 397.566,354.432 397.232,353.099 397.5,351.5 Z"/></g>
<g><path style="opacity:0.667" fill="#7a8ead" d="M 414.5,349.5 C 413.962,351.117 413.629,352.784 413.5,354.5C 412.167,354.5 410.833,354.5 409.5,354.5C 410.209,353.596 411.209,353.263 412.5,353.5C 412.229,351.62 412.896,350.287 414.5,349.5 Z"/></g>
<g><path style="opacity:0.467" fill="#9dacc3" d="M 79.5,351.5 C 79.5,352.5 79.5,353.5 79.5,354.5C 82.1667,354.5 84.8333,354.5 87.5,354.5C 84.6965,355.638 81.6965,355.805 78.5,355C 77.7129,353.687 78.0462,352.52 79.5,351.5 Z"/></g>
<g><path style="opacity:0.733" fill="#748aaa" d="M 423.5,348.5 C 424.255,351.053 424.922,353.72 425.5,356.5C 424.577,357.303 423.577,357.47 422.5,357C 423.444,354.281 423.777,351.448 423.5,348.5 Z"/></g>
<g><path style="opacity:0.6" fill="#99a9c1" d="M 330.5,363.5 C 331.511,361.598 331.678,359.598 331,357.5C 330.184,358.823 329.017,359.489 327.5,359.5C 328.401,357.273 330.067,356.273 332.5,356.5C 333.01,359.388 332.344,361.721 330.5,363.5 Z"/></g>
<g><path style="opacity:0.733" fill="#8d9fb9" d="M 46.5,360.5 C 47.9464,359.387 49.6131,359.22 51.5,360C 50.9341,360.995 50.2674,361.828 49.5,362.5C 49.1788,360.952 48.1788,360.285 46.5,360.5 Z"/></g>
<g><path style="opacity:0.533" fill="#b8c2d3" d="M 221.5,360.5 C 221.5,361.833 220.833,362.5 219.5,362.5C 219.833,361.5 220.5,360.833 221.5,360.5 Z"/></g>
<g><path style="opacity:0.533" fill="#93a3bc" d="M 201.5,362.5 C 202.906,362.973 203.573,363.973 203.5,365.5C 202.094,365.027 201.427,364.027 201.5,362.5 Z"/></g>
<g><path style="opacity:0.2" fill="#bcc7d6" d="M 313.5,362.5 C 315.144,362.81 316.144,363.81 316.5,365.5C 315.883,365.611 315.383,365.944 315,366.5C 314.59,365.099 314.09,363.766 313.5,362.5 Z"/></g>
<g><path style="opacity:0.467" fill="#94a2bc" d="M 251.5,366.5 C 253.5,367.167 254.833,368.5 255.5,370.5C 255.565,370.938 255.399,371.272 255,371.5C 253.331,370.154 252.164,368.487 251.5,366.5 Z"/></g>
<g><path style="opacity:0.467" fill="#a7b6c9" d="M 364.5,366.5 C 365.461,368.265 365.795,370.265 365.5,372.5C 364.761,372.631 364.094,372.464 363.5,372C 364.406,370.301 364.739,368.467 364.5,366.5 Z"/></g>
<g><path style="opacity:0.467" fill="#aab8cb" d="M 280.5,372.5 C 279.329,373.345 277.995,374.011 276.5,374.5C 277.183,372.824 278.517,372.157 280.5,372.5 Z"/></g>
<g><path style="opacity:0.067" fill="#b8c2d3" d="M 136.5,374.5 C 137.5,374.833 138.167,375.5 138.5,376.5C 137.167,376.5 136.5,375.833 136.5,374.5 Z"/></g>
<g><path style="opacity:0.667" fill="#7087a8" d="M 493.5,406.5 C 494.451,407.919 494.784,409.585 494.5,411.5C 493.508,411.328 492.842,411.662 492.5,412.5C 491.957,412.44 491.624,412.107 491.5,411.5C 493.005,410.158 493.672,408.492 493.5,406.5 Z"/></g>
<g><path style="opacity:0.133" fill="#b9c5d4" d="M 436.5,411.5 C 438.481,412.105 438.815,413.105 437.5,414.5C 436.596,413.791 436.263,412.791 436.5,411.5 Z"/></g>
<g><path style="opacity:0.533" fill="#8699b4" d="M 494.5,411.5 C 496.213,412.635 496.88,414.302 496.5,416.5C 495.596,415.791 495.263,414.791 495.5,413.5C 494.209,413.737 493.209,413.404 492.5,412.5C 493.492,412.672 494.158,412.338 494.5,411.5 Z"/></g>
<g><path style="opacity:0.467" fill="#8fa0ba" d="M 438.5,418.5 C 440.176,419.183 440.843,420.517 440.5,422.5C 439.655,421.329 438.989,419.995 438.5,418.5 Z"/></g>
<g><path style="opacity:0.333" fill="#b4c0d1" d="M 496.5,419.5 C 496.5,420.167 496.5,420.833 496.5,421.5C 494.067,420.452 494.067,419.786 496.5,419.5 Z"/></g>
<g><path style="opacity:0.467" fill="#aab8cb" d="M 441.5,424.5 C 443.048,424.821 443.715,425.821 443.5,427.5C 442.599,426.71 441.932,425.71 441.5,424.5 Z"/></g>
<g><path style="opacity:0.067" fill="#b4c0d1" d="M 495.5,423.5 C 496.933,425.518 496.599,427.185 494.5,428.5C 492.265,427.752 492.598,426.919 495.5,426C 494.226,425.023 494.226,424.189 495.5,423.5 Z"/></g>
<g><path style="opacity:0.4" fill="#acb9cc" d="M 457.5,430.5 C 458.5,431.5 459.5,432.5 460.5,433.5C 459.127,433.657 457.793,433.49 456.5,433C 457.252,432.329 457.586,431.496 457.5,430.5 Z"/></g>
<g><path style="opacity:0.2" fill="#d3dae4" d="M 460.5,433.5 C 461.71,433.932 462.71,434.599 463.5,435.5C 461.821,435.715 460.821,435.048 460.5,433.5 Z"/></g>
<g><path style="opacity:0.4" fill="#a1b1c6" d="M 463.5,435.5 C 464.995,435.989 466.329,436.655 467.5,437.5C 465.517,437.843 464.183,437.176 463.5,435.5 Z"/></g>
<g><path style="opacity:0.333" fill="#a3b2c6" d="M 479.5,443.5 C 475.833,444.833 472.167,444.833 468.5,443.5C 470.492,443.672 472.158,443.005 473.5,441.5C 475.173,443.086 477.173,443.753 479.5,443.5 Z"/></g>
</svg>
