<svg version="1.1" id="Layer_1" xmlns="http://www.w3.org/2000/svg" xmlns:xlink="http://www.w3.org/1999/xlink" x="0px" y="0px"
	 width="100%" viewBox="0 0 317 312" enable-background="new 0 0 317 312" xml:space="preserve">
<path fill="#FCFCFD" opacity="1.000000" stroke="none" 
	d="
M318.000000,113.000000 
	C318.000000,179.999985 318.000000,246.499985 318.000000,313.000000 
	C212.333359,313.000000 106.666725,313.000000 1.000069,313.000000 
	C1.000046,209.000046 1.000046,105.000099 1.000023,1.000111 
	C106.666595,1.000074 212.333191,1.000074 317.999878,1.000037 
	C318.000000,38.166668 318.000000,75.333336 318.000000,113.000000 
M67.442329,153.877426 
	C68.007477,150.238464 66.598534,148.844116 62.790714,148.879944 
	C46.295059,149.035126 29.796429,149.031006 13.300602,148.887238 
	C9.690431,148.855759 8.553085,150.309555 8.773932,153.629852 
	C9.359352,162.431320 8.885998,171.430237 10.565646,180.011627 
	C23.113623,244.119705 61.150742,285.131989 123.769325,303.427124 
	C127.053299,304.386566 130.495758,304.803497 134.879517,305.674744 
	C134.879517,290.279388 134.879517,275.614075 134.879517,260.383453 
	C152.423752,264.210754 169.071869,264.236542 186.537537,260.602814 
	C186.537537,275.867493 186.537537,290.432953 186.537537,306.196136 
	C193.597076,304.257751 199.673370,302.780273 205.630951,300.922180 
	C241.069107,289.869415 268.724274,268.509857 288.873352,237.440201 
	C299.417114,221.181808 306.366425,203.428482 309.742462,184.322693 
	C310.021576,182.742950 310.066620,179.714523 309.767487,179.655533 
	C306.425690,178.996429 302.941376,178.314682 299.613647,178.689178 
	C298.246582,178.843048 296.440094,181.375671 296.060089,183.097015 
	C286.662659,225.666824 262.698486,257.286255 224.564865,278.124512 
	C217.365509,282.058624 209.533356,284.834778 200.735931,288.697266 
	C200.735931,278.452087 200.907425,269.852386 200.660477,261.264740 
	C200.544495,257.231628 202.061310,255.254425 205.585800,253.157669 
	C214.988388,247.564011 224.588562,241.979172 232.917114,234.972610 
	C248.908020,221.519974 258.652222,203.809616 264.391144,183.792130 
	C265.567413,179.689377 264.452393,178.117004 260.314758,178.378006 
	C259.153015,178.451294 257.959839,178.531433 256.819946,178.355911 
	C252.535568,177.696198 250.797226,179.667313 249.453171,183.697754 
	C247.358505,189.979034 244.699814,196.163483 241.530701,201.980682 
	C217.340775,246.383408 156.501831,262.831390 113.535118,236.497971 
	C83.134735,217.866196 67.591202,190.616302 67.442329,153.877426 
M85.061890,101.603447 
	C111.948799,65.909264 152.359741,53.807232 194.275009,68.896950 
	C229.571198,81.603745 253.976059,117.616646 253.792389,157.177002 
	C253.770767,161.832474 255.096863,163.155685 259.657104,163.070129 
	C275.814758,162.767044 291.979858,162.747086 308.140961,162.835831 
	C311.535034,162.854462 312.741669,161.549011 312.450836,158.447815 
	C311.441467,147.685516 311.447357,136.698883 309.179810,126.205399 
	C297.460358,71.971283 265.473663,34.509499 213.952911,13.965935 
	C205.420273,10.563601 196.357910,8.489717 186.471451,5.476099 
	C186.471451,21.534401 186.471451,36.257362 186.471451,51.539238 
	C168.906982,47.476070 152.118896,47.801029 134.657516,51.552479 
	C134.657516,36.363895 134.657516,21.787897 134.657516,7.199132 
	C115.322632,7.990211 76.895493,23.907846 53.243916,48.334000 
	C30.192183,72.140671 15.900259,100.064476 10.518939,133.398102 
	C14.334704,133.398102 17.310415,133.338455 20.282627,133.414856 
	C23.261765,133.491409 24.555058,132.290619 25.232548,129.192032 
	C34.610855,86.299156 58.825554,54.403572 97.250771,33.392616 
	C104.274132,29.552231 111.994270,26.986113 119.317589,23.863829 
	C120.149864,25.331453 120.598442,25.754725 120.600395,26.180050 
	C120.642471,35.339378 120.816666,44.505997 120.461845,53.651680 
	C120.400879,55.223278 118.353287,57.369133 116.705978,58.131065 
	C87.704163,71.545250 68.485237,93.599220 58.348694,123.734207 
	C57.379253,126.616272 56.918983,129.669617 56.050198,133.378281 
	C59.580997,133.378281 62.067619,133.168442 64.504860,133.425964 
	C68.458855,133.843750 70.024422,132.288010 71.621834,128.470947 
	C75.390099,119.466537 80.222816,110.907585 85.061890,101.603447 
M102.734222,179.722809 
	C115.081734,207.229630 140.687469,221.758728 170.176071,217.787689 
	C192.562973,214.772995 213.297714,197.089859 218.138016,179.220566 
	C209.372803,176.647720 204.795959,178.078461 199.459015,184.824326 
	C187.079330,200.472137 170.700943,207.284439 151.314590,203.495941 
	C132.460831,199.811508 119.437225,188.217667 113.951065,169.241531 
	C112.272720,163.436295 112.733154,162.924332 118.735802,162.922470 
	C151.898407,162.912216 185.061142,162.896667 218.223450,163.001816 
	C221.436768,163.012024 222.982697,162.501434 223.146011,158.752029 
	C225.219131,111.154457 174.551559,78.406334 132.243256,100.190216 
	C103.250771,115.117989 90.562546,148.978333 102.734222,179.722809 
z"/>
<path fill="#224275" opacity="1.000000" stroke="none" 
	d="
M67.439224,154.339081 
	C67.591202,190.616302 83.134735,217.866196 113.535118,236.497971 
	C156.501831,262.831390 217.340775,246.383408 241.530701,201.980682 
	C244.699814,196.163483 247.358505,189.979034 249.453171,183.697754 
	C250.797226,179.667313 252.535568,177.696198 256.819946,178.355911 
	C257.959839,178.531433 259.153015,178.451294 260.314758,178.378006 
	C264.452393,178.117004 265.567413,179.689377 264.391144,183.792130 
	C258.652222,203.809616 248.908020,221.519974 232.917114,234.972610 
	C224.588562,241.979172 214.988388,247.564011 205.585800,253.157669 
	C202.061310,255.254425 200.544495,257.231628 200.660477,261.264740 
	C200.907425,269.852386 200.735931,278.452087 200.735931,288.697266 
	C209.533356,284.834778 217.365509,282.058624 224.564865,278.124512 
	C262.698486,257.286255 286.662659,225.666824 296.060089,183.097015 
	C296.440094,181.375671 298.246582,178.843048 299.613647,178.689178 
	C302.941376,178.314682 306.425690,178.996429 309.767487,179.655533 
	C310.066620,179.714523 310.021576,182.742950 309.742462,184.322693 
	C306.366425,203.428482 299.417114,221.181808 288.873352,237.440201 
	C268.724274,268.509857 241.069107,289.869415 205.630951,300.922180 
	C199.673370,302.780273 193.597076,304.257751 186.537537,306.196136 
	C186.537537,290.432953 186.537537,275.867493 186.537537,260.602814 
	C169.071869,264.236542 152.423752,264.210754 134.879517,260.383453 
	C134.879517,275.614075 134.879517,290.279388 134.879517,305.674744 
	C130.495758,304.803497 127.053299,304.386566 123.769325,303.427124 
	C61.150742,285.131989 23.113623,244.119705 10.565646,180.011627 
	C8.885998,171.430237 9.359352,162.431320 8.773932,153.629852 
	C8.553085,150.309555 9.690431,148.855759 13.300602,148.887238 
	C29.796429,149.031006 46.295059,149.035126 62.790714,148.879944 
	C66.598534,148.844116 68.007477,150.238464 67.439224,154.339081 
M120.793282,263.725098 
	C121.646179,257.803894 119.287941,254.573257 113.564430,252.057129 
	C98.679909,245.513702 86.560745,235.086197 76.582161,222.324371 
	C63.999279,206.231857 56.244804,188.042358 54.264397,167.606079 
	C53.894058,163.784485 52.435169,162.489685 48.597443,162.673767 
	C41.950016,162.992599 35.256943,163.151947 28.624130,162.730728 
	C23.393148,162.398544 22.221781,164.553757 23.024673,169.118607 
	C24.148228,175.506592 24.648592,182.042969 26.252056,188.301559 
	C38.173470,234.832886 67.027939,266.625916 111.114746,284.957886 
	C113.794426,286.072113 116.676483,286.699677 120.800842,287.963104 
	C120.800842,279.482788 120.800842,272.077057 120.793282,263.725098 
z"/>
<path fill="#224275" opacity="1.000000" stroke="none" 
	d="
M84.843437,101.885948 
	C80.222816,110.907585 75.390099,119.466537 71.621834,128.470947 
	C70.024422,132.288010 68.458855,133.843750 64.504860,133.425964 
	C62.067619,133.168442 59.580997,133.378281 56.050198,133.378281 
	C56.918983,129.669617 57.379253,126.616272 58.348694,123.734207 
	C68.485237,93.599220 87.704163,71.545250 116.705978,58.131065 
	C118.353287,57.369133 120.400879,55.223278 120.461845,53.651680 
	C120.816666,44.505997 120.642471,35.339378 120.600395,26.180050 
	C120.598442,25.754725 120.149864,25.331453 119.317589,23.863829 
	C111.994270,26.986113 104.274132,29.552231 97.250771,33.392616 
	C58.825554,54.403572 34.610855,86.299156 25.232548,129.192032 
	C24.555058,132.290619 23.261765,133.491409 20.282627,133.414856 
	C17.310415,133.338455 14.334704,133.398102 10.518939,133.398102 
	C15.900259,100.064476 30.192183,72.140671 53.243916,48.334000 
	C76.895493,23.907846 115.322632,7.990211 134.657516,7.199132 
	C134.657516,21.787897 134.657516,36.363895 134.657516,51.552479 
	C152.118896,47.801029 168.906982,47.476070 186.471451,51.539238 
	C186.471451,36.257362 186.471451,21.534401 186.471451,5.476099 
	C196.357910,8.489717 205.420273,10.563601 213.952911,13.965935 
	C265.473663,34.509499 297.460358,71.971283 309.179810,126.205399 
	C311.447357,136.698883 311.441467,147.685516 312.450836,158.447815 
	C312.741669,161.549011 311.535034,162.854462 308.140961,162.835831 
	C291.979858,162.747086 275.814758,162.767044 259.657104,163.070129 
	C255.096863,163.155685 253.770767,161.832474 253.792389,157.177002 
	C253.976059,117.616646 229.571198,81.603745 194.275009,68.896950 
	C152.359741,53.807232 111.948799,65.909264 84.843437,101.885948 
M250.932892,51.550728 
	C236.201263,39.446903 220.401062,29.337852 200.758270,24.255892 
	C200.758270,33.806335 200.937393,42.578815 200.677429,51.338264 
	C200.559769,55.302456 202.133698,57.182243 205.635803,58.821304 
	C227.596741,69.099472 244.368240,84.940048 255.705963,106.448151 
	C261.834045,118.073395 265.451874,130.473663 266.957336,143.479080 
	C267.407684,147.369278 268.537872,149.424347 273.054474,149.116867 
	C279.185913,148.699463 285.367889,149.048630 291.527954,149.019562 
	C298.569550,148.986359 298.769714,148.759415 297.933350,141.566681 
	C293.778961,105.838997 278.446381,75.901489 250.932892,51.550728 
z"/>
<path fill="#234375" opacity="1.000000" stroke="none" 
	d="
M102.578094,179.370880 
	C90.562546,148.978333 103.250771,115.117989 132.243256,100.190216 
	C174.551559,78.406334 225.219131,111.154457 223.146011,158.752029 
	C222.982697,162.501434 221.436768,163.012024 218.223450,163.001816 
	C185.061142,162.896667 151.898407,162.912216 118.735802,162.922470 
	C112.733154,162.924332 112.272720,163.436295 113.951065,169.241531 
	C119.437225,188.217667 132.460831,199.811508 151.314590,203.495941 
	C170.700943,207.284439 187.079330,200.472137 199.459015,184.824326 
	C204.795959,178.078461 209.372803,176.647720 218.138016,179.220566 
	C213.297714,197.089859 192.562973,214.772995 170.176071,217.787689 
	C140.687469,221.758728 115.081734,207.229630 102.578094,179.370880 
M189.592331,116.869980 
	C178.181686,108.877792 165.651291,105.388580 151.841202,108.166496 
	C132.467621,112.063522 120.084389,123.963676 113.975296,142.516037 
	C112.113564,148.169815 112.867950,148.960342 118.627808,148.966385 
	C146.573547,148.995758 174.519318,149.013031 202.465073,149.007919 
	C208.152512,149.006866 208.859283,148.104767 207.195755,142.450165 
	C204.202621,132.276001 198.635925,123.780258 189.592331,116.869980 
z"/>
<path fill="#FBFBFC" opacity="1.000000" stroke="none" 
	d="
M120.797058,264.198242 
	C120.800842,272.077057 120.800842,279.482788 120.800842,287.963104 
	C116.676483,286.699677 113.794426,286.072113 111.114746,284.957886 
	C67.027939,266.625916 38.173470,234.832886 26.252056,188.301559 
	C24.648592,182.042969 24.148228,175.506592 23.024673,169.118607 
	C22.221781,164.553757 23.393148,162.398544 28.624130,162.730728 
	C35.256943,163.151947 41.950016,162.992599 48.597443,162.673767 
	C52.435169,162.489685 53.894058,163.784485 54.264397,167.606079 
	C56.244804,188.042358 63.999279,206.231857 76.582161,222.324371 
	C86.560745,235.086197 98.679909,245.513702 113.564430,252.057129 
	C119.287941,254.573257 121.646179,257.803894 120.797058,264.198242 
z"/>
<path fill="#FBFCFC" opacity="1.000000" stroke="none" 
	d="
M251.210876,51.772701 
	C278.446381,75.901489 293.778961,105.838997 297.933350,141.566681 
	C298.769714,148.759415 298.569550,148.986359 291.527954,149.019562 
	C285.367889,149.048630 279.185913,148.699463 273.054474,149.116867 
	C268.537872,149.424347 267.407684,147.369278 266.957336,143.479080 
	C265.451874,130.473663 261.834045,118.073395 255.705963,106.448151 
	C244.368240,84.940048 227.596741,69.099472 205.635803,58.821304 
	C202.133698,57.182243 200.559769,55.302456 200.677429,51.338264 
	C200.937393,42.578815 200.758270,33.806335 200.758270,24.255892 
	C220.401062,29.337852 236.201263,39.446903 251.210876,51.772701 
z"/>
<path fill="#FAFBFC" opacity="1.000000" stroke="none" 
	d="
M189.898468,117.056931 
	C198.635925,123.780258 204.202621,132.276001 207.195755,142.450165 
	C208.859283,148.104767 208.152512,149.006866 202.465073,149.007919 
	C174.519318,149.013031 146.573547,148.995758 118.627808,148.966385 
	C112.867950,148.960342 112.113564,148.169815 113.975296,142.516037 
	C120.084389,123.963676 132.467621,112.063522 151.841202,108.166496 
	C165.651291,105.388580 178.181686,108.877792 189.898468,117.056931 
z"/>
</svg>