<svg version="1.1" id="Layer_1" xmlns="http://www.w3.org/2000/svg" xmlns:xlink="http://www.w3.org/1999/xlink" x="0px" y="0px"
	 width="100%" viewBox="0 0 498 130" enable-background="new 0 0 498 130" xml:space="preserve">
<path fill="#FEFEFF" opacity="1.000000" stroke="none" 
	d="
M334.000000,131.000000 
	C222.666718,131.000000 111.833443,131.000000 1.000119,131.000000 
	C1.000079,87.666740 1.000079,44.333481 1.000040,1.000165 
	C166.999847,1.000110 332.999695,1.000110 498.999634,1.000055 
	C498.999756,44.333160 498.999756,87.666321 498.999878,130.999741 
	C444.166656,131.000000 389.333344,131.000000 334.000000,131.000000 
M462.794128,52.841160 
	C466.075867,51.048733 469.357605,49.256310 473.134308,47.193523 
	C473.651215,48.485390 474.455322,50.042797 474.907623,51.696434 
	C478.828888,66.032814 483.107025,80.292076 486.363464,94.780052 
	C487.725159,100.838173 488.279175,107.773239 486.690613,113.628700 
	C484.549286,121.521660 471.150513,123.858536 463.097137,119.009148 
	C455.508850,114.439796 449.994995,107.753975 446.699371,99.990822 
	C442.609131,90.355934 438.964081,80.200806 442.970520,69.268959 
	C444.107544,66.166443 445.303772,63.936825 448.988281,63.894878 
	C451.506622,63.866199 454.021027,63.493347 458.002075,63.146881 
	C455.764893,61.602867 454.840332,60.512234 453.734528,60.278301 
	C448.355560,59.140404 443.088715,60.228962 439.472748,64.184746 
	C434.935364,69.148537 432.821716,75.609543 433.591583,82.356461 
	C434.145905,87.214272 436.157440,91.886642 437.150421,96.717499 
	C439.346130,107.399780 447.501862,113.776840 454.427948,121.027473 
	C455.747864,122.409225 457.704956,123.190323 459.388519,124.215012 
	C462.477814,126.095322 470.825958,126.065910 472.986633,124.474068 
	C474.398438,125.132538 475.872986,126.441765 476.742889,126.119408 
	C480.708557,124.649864 484.884003,123.240822 488.236725,120.788406 
	C490.752869,118.947899 494.062836,115.146255 493.596832,112.940895 
	C492.755615,108.959824 494.498138,105.433731 495.205048,102.451370 
	C496.254211,98.025040 495.609680,96.378181 492.283508,95.053619 
	C492.593109,93.262268 493.403015,91.505524 493.074524,89.996651 
	C491.082733,80.848518 488.725128,71.780434 486.699524,62.639111 
	C485.034454,55.124706 483.336090,47.590168 482.294617,39.976715 
	C481.773926,36.170643 482.688568,32.168236 482.953949,28.255348 
	C475.911377,27.888481 473.392975,29.647469 472.008453,35.606800 
	C470.489563,42.144440 466.892639,46.126125 461.622009,46.129761 
	C462.503662,40.742977 463.362335,35.496773 464.220673,30.252325 
	C456.322906,29.544559 455.538483,30.326967 454.765381,37.753521 
	C454.479523,40.499802 453.379639,43.167454 452.593018,45.853981 
	C451.563629,49.369431 453.550690,52.754505 456.982056,53.050232 
	C458.631805,53.192413 460.307251,53.036560 462.794128,52.841160 
M161.118164,24.100061 
	C160.633667,18.166597 160.149185,12.233131 159.664963,6.302962 
	C152.380814,7.264263 152.038605,7.797811 152.698624,14.676162 
	C153.015610,17.979586 153.122345,21.372215 152.706528,24.645983 
	C152.516464,26.142365 150.475891,28.772047 149.888351,28.613485 
	C147.300522,27.915106 142.915497,30.112343 142.608124,24.951698 
	C142.303986,19.845530 142.035843,14.737218 141.752838,9.646351 
	C134.418228,9.767161 133.783096,10.580603 133.938370,17.354986 
	C134.038773,21.734974 133.575546,26.126329 133.438065,30.514883 
	C133.415665,31.230127 133.780243,31.955662 133.954437,32.679211 
	C134.635895,35.509781 135.696533,38.313839 135.902786,41.179104 
	C136.224899,45.653858 135.833084,50.175186 135.994965,54.667736 
	C136.137802,58.632332 138.390823,59.822449 142.008209,58.173145 
	C145.657181,56.509441 144.381409,53.399158 144.164627,50.695709 
	C143.732239,45.303051 143.125534,39.924362 142.608093,34.713791 
	C151.245377,32.384190 153.377380,34.083412 154.078888,41.375591 
	C155.004471,50.997059 156.609650,60.553154 158.006958,70.752602 
	C161.714325,69.504005 164.418503,68.593269 167.319931,67.616096 
	C162.825043,56.588425 161.808929,45.666245 162.020950,34.526661 
	C162.081711,31.334509 161.542435,28.130938 161.118164,24.100061 
M346.259735,21.956858 
	C344.784424,22.705536 343.309113,23.454212 341.833832,24.202877 
	C342.713165,25.452139 343.347382,27.058630 344.528015,27.868834 
	C346.404144,29.156321 348.621399,30.666237 350.736542,30.732376 
	C354.827637,30.860302 355.385559,33.407211 355.471558,36.300404 
	C355.738831,45.295052 355.716614,54.298378 355.991302,63.292702 
	C356.118286,67.451073 356.673462,71.596375 357.047333,75.894547 
	C364.694855,74.120720 367.154266,70.047112 365.579468,63.373276 
	C364.861115,60.329067 363.511932,57.309464 363.453766,54.259529 
	C363.331573,47.856091 363.963623,41.441933 364.104675,35.028191 
	C364.171814,31.972370 365.185730,30.346905 368.395905,29.500969 
	C371.541687,28.672005 375.700989,28.255274 375.848267,23.020346 
	C371.884125,23.688093 368.207794,24.307358 364.521179,24.928354 
	C363.971069,18.217957 363.448578,11.844446 362.918793,5.381719 
	C361.598999,5.481277 360.944885,5.526025 360.291595,5.580648 
	C355.966370,5.942283 353.180023,6.962840 354.643433,12.601868 
	C355.618164,16.357937 354.828430,20.571896 354.828430,25.300150 
	C351.300964,23.805922 349.181366,22.908077 346.259735,21.956858 
M44.472847,47.157722 
	C46.227947,45.956654 47.983047,44.755585 49.738144,43.554516 
	C49.512081,43.154770 49.286018,42.755028 49.059952,42.355282 
	C42.155903,44.112488 35.251850,45.869694 27.890276,47.743343 
	C29.058130,43.808010 30.502151,40.564404 30.891010,37.198883 
	C31.324358,33.448303 32.812962,32.023865 36.545940,31.975811 
	C40.327675,31.927134 43.658440,30.637419 44.780102,26.005526 
	C42.250496,26.139387 39.974869,26.330364 37.696732,26.367413 
	C30.230183,26.488838 29.939199,26.155363 30.375010,18.048674 
	C32.171967,17.732222 34.075981,17.292681 36.005020,17.078218 
	C40.454159,16.583580 44.947842,16.392237 49.353153,15.656766 
	C50.776501,15.419136 51.980671,13.868695 53.285107,12.918792 
	C51.828960,12.232012 50.425179,11.169128 48.902920,10.957182 
	C47.146549,10.712639 45.288784,11.263215 43.469601,11.391072 
	C36.359005,11.890829 29.251909,12.566401 22.132139,12.761497 
	C17.998915,12.874757 13.827794,11.843978 9.706103,12.033210 
	C7.787187,12.121310 5.945261,13.886357 4.068436,14.891261 
	C6.065994,15.614491 8.033158,16.441168 10.067583,17.038923 
	C14.025293,18.201775 19.391029,16.985651 21.142984,22.072916 
	C24.573040,32.033005 25.039516,41.864201 17.859732,50.757698 
	C16.794550,52.077122 16.242943,53.811161 14.838913,56.554829 
	C25.577221,53.201244 34.688644,50.355740 44.472847,47.157722 
M217.037613,36.805779 
	C220.612381,33.676521 226.248184,32.479675 226.791718,26.126118 
	C225.406219,25.205734 224.014923,23.616785 222.382645,23.310051 
	C214.514496,21.831480 206.719437,22.113436 199.564896,26.202452 
	C197.488327,27.389275 195.285156,28.978428 194.081940,30.956194 
	C189.970535,37.714249 190.337143,44.946159 193.873199,51.704983 
	C194.953232,53.769360 198.023056,55.469524 200.475616,56.015190 
	C208.617554,57.826687 215.508057,53.972740 221.684219,49.465794 
	C224.670029,47.286938 227.625580,43.792942 225.845047,38.821392 
	C222.209976,42.367756 219.326523,46.168903 215.546097,48.539883 
	C212.783524,50.272491 208.248550,51.538593 205.586334,50.424789 
	C202.783249,49.252045 201.267303,45.002796 199.322754,42.284760 
	C205.781464,40.275036 211.041336,38.638348 217.037613,36.805779 
M412.396118,35.807991 
	C410.772278,36.621063 409.148468,37.434139 407.524628,38.247211 
	C406.952423,38.018803 406.380219,37.790398 405.808014,37.561993 
	C406.351349,28.482067 406.894653,19.402145 407.437592,10.328864 
	C400.229004,9.436966 399.099854,10.176481 397.903137,17.186750 
	C397.403534,20.113600 396.805634,23.123091 396.993042,26.047548 
	C397.411652,32.581013 398.137054,39.107643 399.076782,45.587856 
	C399.400848,47.822510 400.730896,49.911278 401.601379,52.066685 
	C404.120972,50.698486 407.014557,49.733997 409.052643,47.845993 
	C411.003174,46.039101 412.064667,43.272484 413.576324,40.831760 
	C420.009308,43.525375 417.434021,51.205406 421.862213,54.672009 
	C423.736237,54.101521 425.812561,53.984020 427.106354,52.917343 
	C428.196472,52.018551 429.234283,49.705132 428.816223,48.555973 
	C426.714661,42.779129 424.127655,37.178890 421.485413,30.987751 
	C418.536713,30.841614 414.438812,30.194717 412.396118,35.807991 
M266.099945,50.322124 
	C270.178864,48.231606 270.681305,51.988937 271.347321,54.055527 
	C273.242950,59.937340 276.382477,55.518936 278.555389,54.796669 
	C279.392609,54.518372 279.887634,51.063194 279.399994,49.386608 
	C278.332855,45.717445 275.693634,42.368183 275.222717,38.692726 
	C274.355774,31.926048 269.191986,30.349991 264.371765,28.859198 
	C260.316101,27.604876 255.701111,27.514830 252.203278,31.107241 
	C248.250381,35.167027 248.046814,44.010750 251.727615,49.207661 
	C255.667358,54.770164 257.244934,54.969242 266.099945,50.322124 
M329.159760,46.449551 
	C329.981720,44.508041 330.803680,42.566532 331.625641,40.625023 
	C331.115601,40.354969 330.605560,40.084915 330.095551,39.814857 
	C327.632477,42.120029 325.451508,44.902260 322.616638,46.578705 
	C320.368683,47.908043 317.305511,48.305355 314.634094,48.216854 
	C313.762207,48.187969 312.120178,45.206718 312.317078,43.781055 
	C313.056427,38.427906 314.345428,33.144867 315.551147,27.863573 
	C316.764954,22.546854 318.124725,17.263470 319.486755,11.694647 
	C311.033752,12.119635 310.268860,12.811109 308.999237,19.140602 
	C307.581848,26.206692 306.173523,33.284683 304.400787,40.265953 
	C303.172821,45.101849 305.251923,48.554829 308.153931,51.865402 
	C313.175140,57.593502 323.943298,52.875084 329.159760,46.449551 
M84.698219,37.059994 
	C88.523567,37.056728 92.349648,37.098763 96.174049,37.036781 
	C99.634438,36.980701 101.527145,35.151398 102.267731,30.876865 
	C95.205780,31.324900 88.564896,31.581959 81.969276,32.271816 
	C80.156906,32.461380 78.479897,33.945068 76.740768,34.834919 
	C77.330811,35.589466 77.920853,36.344009 78.510887,37.098557 
	C80.265648,37.098557 82.020401,37.098557 84.698219,37.059994 
z"/>
<path fill="#1B4074" opacity="1.000000" stroke="none" 
	d="
M462.382568,52.928417 
	C460.307251,53.036560 458.631805,53.192413 456.982056,53.050232 
	C453.550690,52.754505 451.563629,49.369431 452.593018,45.853981 
	C453.379639,43.167454 454.479523,40.499802 454.765381,37.753521 
	C455.538483,30.326967 456.322906,29.544559 464.220673,30.252325 
	C463.362335,35.496773 462.503662,40.742977 461.622009,46.129761 
	C466.892639,46.126125 470.489563,42.144440 472.008453,35.606800 
	C473.392975,29.647469 475.911377,27.888481 482.953949,28.255348 
	C482.688568,32.168236 481.773926,36.170643 482.294617,39.976715 
	C483.336090,47.590168 485.034454,55.124706 486.699524,62.639111 
	C488.725128,71.780434 491.082733,80.848518 493.074524,89.996651 
	C493.403015,91.505524 492.593109,93.262268 492.283508,95.053619 
	C495.609680,96.378181 496.254211,98.025040 495.205048,102.451370 
	C494.498138,105.433731 492.755615,108.959824 493.596832,112.940895 
	C494.062836,115.146255 490.752869,118.947899 488.236725,120.788406 
	C484.884003,123.240822 480.708557,124.649864 476.742889,126.119408 
	C475.872986,126.441765 474.398438,125.132538 472.986633,124.474068 
	C470.825958,126.065910 462.477814,126.095322 459.388519,124.215012 
	C457.704956,123.190323 455.747864,122.409225 454.427948,121.027473 
	C447.501862,113.776840 439.346130,107.399780 437.150421,96.717499 
	C436.157440,91.886642 434.145905,87.214272 433.591583,82.356461 
	C432.821716,75.609543 434.935364,69.148537 439.472748,64.184746 
	C443.088715,60.228962 448.355560,59.140404 453.734528,60.278301 
	C454.840332,60.512234 455.764893,61.602867 458.002075,63.146881 
	C454.021027,63.493347 451.506622,63.866199 448.988281,63.894878 
	C445.303772,63.936825 444.107544,66.166443 442.970520,69.268959 
	C438.964081,80.200806 442.609131,90.355934 446.699371,99.990822 
	C449.994995,107.753975 455.508850,114.439796 463.097137,119.009148 
	C471.150513,123.858536 484.549286,121.521660 486.690613,113.628700 
	C488.279175,107.773239 487.725159,100.838173 486.363464,94.780052 
	C483.107025,80.292076 478.828888,66.032814 474.907623,51.696434 
	C474.455322,50.042797 473.651215,48.485390 473.134308,47.193523 
	C469.357605,49.256310 466.075867,51.048733 462.382568,52.928417 
z"/>
<path fill="#193F73" opacity="1.000000" stroke="none" 
	d="
M161.198212,24.516333 
	C161.542435,28.130938 162.081711,31.334509 162.020950,34.526661 
	C161.808929,45.666245 162.825043,56.588425 167.319931,67.616096 
	C164.418503,68.593269 161.714325,69.504005 158.006958,70.752602 
	C156.609650,60.553154 155.004471,50.997059 154.078888,41.375591 
	C153.377380,34.083412 151.245377,32.384190 142.608093,34.713791 
	C143.125534,39.924362 143.732239,45.303051 144.164627,50.695709 
	C144.381409,53.399158 145.657181,56.509441 142.008209,58.173145 
	C138.390823,59.822449 136.137802,58.632332 135.994965,54.667736 
	C135.833084,50.175186 136.224899,45.653858 135.902786,41.179104 
	C135.696533,38.313839 134.635895,35.509781 133.954437,32.679211 
	C133.780243,31.955662 133.415665,31.230127 133.438065,30.514883 
	C133.575546,26.126329 134.038773,21.734974 133.938370,17.354986 
	C133.783096,10.580603 134.418228,9.767161 141.752838,9.646351 
	C142.035843,14.737218 142.303986,19.845530 142.608124,24.951698 
	C142.915497,30.112343 147.300522,27.915106 149.888351,28.613485 
	C150.475891,28.772047 152.516464,26.142365 152.706528,24.645983 
	C153.122345,21.372215 153.015610,17.979586 152.698624,14.676162 
	C152.038605,7.797811 152.380814,7.264263 159.664963,6.302962 
	C160.149185,12.233131 160.633667,18.166597 161.198212,24.516333 
z"/>
<path fill="#1A4073" opacity="1.000000" stroke="none" 
	d="
M346.660767,21.983543 
	C349.181366,22.908077 351.300964,23.805922 354.828430,25.300150 
	C354.828430,20.571896 355.618164,16.357937 354.643433,12.601868 
	C353.180023,6.962840 355.966370,5.942283 360.291595,5.580648 
	C360.944885,5.526025 361.598999,5.481277 362.918793,5.381719 
	C363.448578,11.844446 363.971069,18.217957 364.521179,24.928354 
	C368.207794,24.307358 371.884125,23.688093 375.848267,23.020346 
	C375.700989,28.255274 371.541687,28.672005 368.395905,29.500969 
	C365.185730,30.346905 364.171814,31.972370 364.104675,35.028191 
	C363.963623,41.441933 363.331573,47.856091 363.453766,54.259529 
	C363.511932,57.309464 364.861115,60.329067 365.579468,63.373276 
	C367.154266,70.047112 364.694855,74.120720 357.047333,75.894547 
	C356.673462,71.596375 356.118286,67.451073 355.991302,63.292702 
	C355.716614,54.298378 355.738831,45.295052 355.471558,36.300404 
	C355.385559,33.407211 354.827637,30.860302 350.736542,30.732376 
	C348.621399,30.666237 346.404144,29.156321 344.528015,27.868834 
	C343.347382,27.058630 342.713165,25.452139 341.833801,24.202885 
	C343.309113,23.454212 344.784424,22.705536 346.660767,21.983543 
z"/>
<path fill="#1C4275" opacity="1.000000" stroke="none" 
	d="
M44.136459,47.333977 
	C34.688644,50.355740 25.577221,53.201244 14.838913,56.554829 
	C16.242943,53.811161 16.794550,52.077122 17.859732,50.757698 
	C25.039516,41.864201 24.573040,32.033005 21.142984,22.072916 
	C19.391029,16.985651 14.025293,18.201775 10.067583,17.038923 
	C8.033158,16.441168 6.065994,15.614491 4.068436,14.891261 
	C5.945261,13.886357 7.787187,12.121310 9.706103,12.033210 
	C13.827794,11.843978 17.998915,12.874757 22.132139,12.761497 
	C29.251909,12.566401 36.359005,11.890829 43.469601,11.391072 
	C45.288784,11.263215 47.146549,10.712639 48.902920,10.957182 
	C50.425179,11.169128 51.828960,12.232012 53.285107,12.918792 
	C51.980671,13.868695 50.776501,15.419136 49.353153,15.656766 
	C44.947842,16.392237 40.454159,16.583580 36.005020,17.078218 
	C34.075981,17.292681 32.171967,17.732222 30.375010,18.048674 
	C29.939199,26.155363 30.230183,26.488838 37.696732,26.367413 
	C39.974869,26.330364 42.250496,26.139387 44.780102,26.005526 
	C43.658440,30.637419 40.327675,31.927134 36.545940,31.975811 
	C32.812962,32.023865 31.324358,33.448303 30.891010,37.198883 
	C30.502151,40.564404 29.058130,43.808010 27.890276,47.743343 
	C35.251850,45.869694 42.155903,44.112488 49.059952,42.355282 
	C49.286018,42.755028 49.512081,43.154770 49.738144,43.554516 
	C47.983047,44.755585 46.227947,45.956654 44.136459,47.333977 
z"/>
<path fill="#1B4074" opacity="1.000000" stroke="none" 
	d="
M216.669403,36.903717 
	C211.041336,38.638348 205.781464,40.275036 199.322754,42.284760 
	C201.267303,45.002796 202.783249,49.252045 205.586334,50.424789 
	C208.248550,51.538593 212.783524,50.272491 215.546097,48.539883 
	C219.326523,46.168903 222.209976,42.367756 225.845047,38.821392 
	C227.625580,43.792942 224.670029,47.286938 221.684219,49.465794 
	C215.508057,53.972740 208.617554,57.826687 200.475616,56.015190 
	C198.023056,55.469524 194.953232,53.769360 193.873199,51.704983 
	C190.337143,44.946159 189.970535,37.714249 194.081940,30.956194 
	C195.285156,28.978428 197.488327,27.389275 199.564896,26.202452 
	C206.719437,22.113436 214.514496,21.831480 222.382645,23.310051 
	C224.014923,23.616785 225.406219,25.205734 226.791718,26.126118 
	C226.248184,32.479675 220.612381,33.676521 216.669403,36.903717 
M202.255020,31.221689 
	C202.208328,31.980524 201.833817,33.187016 202.165146,33.429638 
	C205.883331,36.152435 214.107819,33.500496 215.908188,28.646856 
	C211.217102,27.786152 206.790558,27.060564 202.255020,31.221689 
z"/>
<path fill="#1A4073" opacity="1.000000" stroke="none" 
	d="
M412.413208,35.415207 
	C414.438812,30.194717 418.536713,30.841614 421.485413,30.987751 
	C424.127655,37.178890 426.714661,42.779129 428.816223,48.555973 
	C429.234283,49.705132 428.196472,52.018551 427.106354,52.917343 
	C425.812561,53.984020 423.736237,54.101521 421.862213,54.672009 
	C417.434021,51.205406 420.009308,43.525375 413.576324,40.831760 
	C412.064667,43.272484 411.003174,46.039101 409.052643,47.845993 
	C407.014557,49.733997 404.120972,50.698486 401.601379,52.066685 
	C400.730896,49.911278 399.400848,47.822510 399.076782,45.587856 
	C398.137054,39.107643 397.411652,32.581013 396.993042,26.047548 
	C396.805634,23.123091 397.403534,20.113600 397.903137,17.186750 
	C399.099854,10.176481 400.229004,9.436966 407.437592,10.328864 
	C406.894653,19.402145 406.351349,28.482067 405.808014,37.561993 
	C406.380219,37.790398 406.952423,38.018803 407.524628,38.247211 
	C409.148468,37.434139 410.772278,36.621063 412.413208,35.415207 
M399.010498,35.379761 
	C399.236237,35.370216 399.461945,35.360676 399.687683,35.351139 
	C399.570312,35.243668 399.452942,35.136196 399.010498,35.379761 
z"/>
<path fill="#1B4174" opacity="1.000000" stroke="none" 
	d="
M265.846405,50.639790 
	C257.244934,54.969242 255.667358,54.770164 251.727615,49.207661 
	C248.046814,44.010750 248.250381,35.167027 252.203278,31.107241 
	C255.701111,27.514830 260.316101,27.604876 264.371765,28.859198 
	C269.191986,30.349991 274.355774,31.926048 275.222717,38.692726 
	C275.693634,42.368183 278.332855,45.717445 279.399994,49.386608 
	C279.887634,51.063194 279.392609,54.518372 278.555389,54.796669 
	C276.382477,55.518936 273.242950,59.937340 271.347321,54.055527 
	C270.681305,51.988937 270.178864,48.231606 265.846405,50.639790 
M257.766724,45.722446 
	C258.840515,46.338352 260.157776,47.702202 260.947357,47.445148 
	C265.132935,46.082531 266.346893,38.749226 263.042725,35.840679 
	C259.544495,32.761307 257.363464,33.786869 255.835419,38.113678 
	C254.761780,41.153679 255.974030,42.971512 257.766724,45.722446 
z"/>
<path fill="#1A4074" opacity="1.000000" stroke="none" 
	d="
M328.985229,46.793575 
	C323.943298,52.875084 313.175140,57.593502 308.153931,51.865402 
	C305.251923,48.554829 303.172821,45.101849 304.400787,40.265953 
	C306.173523,33.284683 307.581848,26.206692 308.999237,19.140602 
	C310.268860,12.811109 311.033752,12.119635 319.486755,11.694647 
	C318.124725,17.263470 316.764954,22.546854 315.551147,27.863573 
	C314.345428,33.144867 313.056427,38.427906 312.317078,43.781055 
	C312.120178,45.206718 313.762207,48.187969 314.634094,48.216854 
	C317.305511,48.305355 320.368683,47.908043 322.616638,46.578705 
	C325.451508,44.902260 327.632477,42.120029 330.095551,39.814857 
	C330.605560,40.084915 331.115601,40.354969 331.625641,40.625023 
	C330.803680,42.566532 329.981720,44.508041 328.985229,46.793575 
z"/>
<path fill="#1D4275" opacity="1.000000" stroke="none" 
	d="
M84.236694,37.079277 
	C82.020401,37.098557 80.265648,37.098557 78.510887,37.098557 
	C77.920853,36.344009 77.330811,35.589466 76.740768,34.834919 
	C78.479897,33.945068 80.156906,32.461380 81.969276,32.271816 
	C88.564896,31.581959 95.205780,31.324900 102.267731,30.876865 
	C101.527145,35.151398 99.634438,36.980701 96.174049,37.036781 
	C92.349648,37.098763 88.523567,37.056728 84.236694,37.079277 
z"/>
<path fill="#F6F8FA" opacity="1.000000" stroke="none" 
	d="
M202.549316,30.914770 
	C206.790558,27.060564 211.217102,27.786152 215.908188,28.646856 
	C214.107819,33.500496 205.883331,36.152435 202.165146,33.429638 
	C201.833817,33.187016 202.208328,31.980524 202.549316,30.914770 
z"/>
<path fill="#FEFEFF" opacity="1.000000" stroke="none" 
	d="
M399.173035,35.204243 
	C399.452942,35.136196 399.570312,35.243668 399.687683,35.351135 
	C399.461945,35.360676 399.236237,35.370216 399.173035,35.204243 
z"/>
<path fill="#F5F7F9" opacity="1.000000" stroke="none" 
	d="
M257.548035,45.416363 
	C255.974030,42.971512 254.761780,41.153679 255.835419,38.113678 
	C257.363464,33.786869 259.544495,32.761307 263.042725,35.840679 
	C266.346893,38.749226 265.132935,46.082531 260.947357,47.445148 
	C260.157776,47.702202 258.840515,46.338352 257.548035,45.416363 
z"/>
</svg>