<svg width="808" height="200" viewBox="0 0 808 200" fill="none" xmlns="http://www.w3.org/2000/svg">
<path d="M768.044 195.041H771.901V196.694H773.003V198.347H777.961L776.308 198.898V200H773.003V198.898L770.799 198.347L771.35 195.592H768.044V195.041Z" fill="white"/>
<path d="M756.474 195.041H759.78V196.694L757.025 197.245L756.474 198.347H752.066L751.515 196.694H756.474V195.041Z" fill="white"/>
<path d="M742.149 191.736H745.455V193.388H747.108V195.041H749.862L750.413 196.694H747.108L746.557 193.939L743.251 193.388V192.287L742.149 191.736Z" fill="white"/>
<path d="M779.614 37.4656H785.675L786.226 38.0165V47.3829L785.675 49.5868H784.573V58.9532H785.675L786.226 60.6061V67.2176L787.879 67.7686V70.5234H789.532V83.7466H790.634L791.185 85.3995V93.6639H792.838V98.0716H793.939L794.49 99.7245V104.683H795.592L796.694 110.193V114.601L796.143 117.906L797.796 118.457V121.212H798.898L799.449 122.865V126.722H800.551L801.102 128.375V134.435H802.204L802.755 139.394H803.857V144.353H802.755V146.006H800.551L801.102 149.311H802.204L802.755 147.658L805.51 148.209V149.311H807.163L807.714 158.678L807.163 159.229H804.408V160.331H805.51L806.061 161.983L807.163 162.534V164.187H806.061V165.84H804.408V167.493H805.51L807.163 169.146V170.248L806.061 170.799H802.755V172.452H801.102V173.554H803.857L804.408 174.105V179.063H802.755V183.471L801.102 184.022L799.449 186.777L796.143 187.328V190.083L794.49 190.634V191.736L791.185 192.287V193.388L787.879 193.939V195.041L782.92 195.592L780.716 197.245H779.614V198.347L776.309 198.898V200H773.003V198.898L770.799 198.347L771.35 195.592H768.044V198.898H761.984L761.433 197.245H757.025L756.474 198.347H752.066L751.515 197.245L747.108 196.694L746.557 193.939L743.251 193.388V192.287L739.945 191.736V191.185L736.639 190.083V187.328L733.884 186.777L733.333 184.022H732.231L731.681 180.716L730.579 180.165V179.063H727.273L726.722 177.41H725.62V175.758H722.314L721.763 174.105H720.661L719.559 168.044L717.355 167.493V165.84H715.703L715.152 159.229H714.05V157.576H712.397L711.295 153.168H710.744L710.193 147.107L708.54 144.353L707.438 140.496L706.887 131.68V130.028L705.785 129.477V127.824H704.132V120.11H705.785V112.948H706.887L707.438 106.887L708.54 106.336L709.091 103.581H710.744V101.377L711.846 100.826L712.397 98.0716H713.499V96.9697L715.152 96.4187L715.703 95.3168H717.355V93.6639L720.661 93.113V92.011L725.069 91.4601L725.62 90.3581H740.496V91.4601L742.149 92.011V93.6639H743.251V96.9697H725.62L725.069 98.6226H723.967V100.275H722.314L721.763 103.03H720.661V109.642L719.559 110.744L718.457 119.559L719.008 126.171L718.457 127.824H717.355L718.457 130.579L719.008 132.782H720.661V139.394H721.763L722.865 145.455L723.967 147.658V149.311H725.069L725.62 150.964V155.923H727.273L728.375 157.025V160.882H727.273V162.534H731.681V164.187H733.333L733.884 168.595L736.639 169.146L737.19 173.554L740.496 174.105L743.251 176.86L743.802 181.267L746.557 180.716L748.209 182.369V185.124H752.066L754.821 187.328L755.372 188.43H759.78L761.433 188.981L761.984 190.083H779.614V188.981L784.573 187.328L787.879 186.777V184.022L788.981 183.471L789.532 181.818L791.185 180.165L791.736 179.063H792.838V175.207H793.939V164.187L794.49 154.27H792.838V147.658H791.185L790.634 144.353H789.532L788.981 138.292L787.879 137.741L787.328 131.68L786.226 131.129L785.675 125.069L784.573 124.518L784.022 118.457L782.92 117.906V112.948H781.818L780.716 107.989V106.887H779.614L779.063 102.479L777.962 101.928L777.411 96.4187L776.309 94.7659L775.758 89.8072L774.656 88.1543L774.105 82.0937H773.003L772.452 74.9311L771.35 73.8292V70.5234H769.697V68.8705H768.044V70.5234H766.391V72.1763H764.738V73.8292L761.984 74.9311L758.678 76.0331L758.127 77.135H754.821V78.2369L749.311 79.3389H743.802L738.843 78.7879L737.19 77.135L736.639 73.2782H735.537V66.1157L736.639 65.5647L737.19 62.8099H738.292L738.843 55.6474H739.945V44.6281L741.598 44.0771V42.9752L744.904 42.4243V41.3223L746.557 40.7714H756.474V43.5262L755.372 47.3829L754.821 50.6887H753.168V57.3003H752.066V65.5647L751.515 67.2176L753.719 67.7686L754.821 68.3196V67.2176H758.678V66.1157L760.331 64.4628H761.433V62.259H763.085V59.5041H764.738V57.3003H765.84L766.942 52.8926H768.044V45.73H769.146V42.9752L771.35 40.7714L773.003 39.6694L777.411 39.1185L777.962 38.0165L779.614 37.4656Z" fill="white"/>
<path d="M251.24 1.65295H256.198L256.749 2.20392V24.2425H257.851V32.5069L259.504 33.0579V38.0166H261.157V42.9753L260.055 47.383V64.4629L261.157 68.8706V82.0937H262.81V87.0524H263.912L265.014 93.113L266.116 94.7659V98.6227H267.769V103.581H265.014V104.683L260.055 105.785L258.953 106.887H252.893V101.928H251.791L251.24 100.827L250.689 92.0111H249.587L249.036 82.0937H247.934V69.4215L246.281 68.8706L245.73 52.3417L245.179 49.5868L241.322 49.0359V47.9339H228.65V68.8706H229.752L230.303 75.4822H231.405V80.4408H230.303V83.1957H231.405V85.3995H229.752V87.0524H226.446V88.1543L225.344 88.7053H219.835L217.631 87.0524L216.529 85.3995V50.6888H215.427L214.876 47.9339L213.223 46.2811V44.6282L211.57 44.0772L212.121 40.7714H213.223L213.774 35.8127H214.876V29.7521H213.774L213.223 22.5896V11.5703L213.774 9.91742L216.529 9.36645V8.26452H219.835V7.1626L221.488 6.61163H226.446L226.997 9.91742V28.0992H228.099L228.65 37.4656L236.915 38.0166V39.1185H241.322V38.0166H242.975L243.526 34.1598V16.529L242.975 14.8761V6.61163L244.628 6.06067V4.95874H246.281V3.30585L250.138 2.75488L251.24 1.65295Z" fill="white"/>
<path d="M584.573 0.00012207H588.981L589.532 1.10205V8.26459H590.634L591.185 19.8348V32.507H595.592V31.4051L603.857 30.8541V29.7522H610.468V34.1599L609.366 34.7109L608.815 36.3638H607.162V38.0167H602.755L602.204 39.6695H599.449V40.7715L593.939 41.3224V42.4244L592.837 42.9753L592.286 46.2811H591.185V80.4409H589.532V82.0938L592.286 81.5428L592.837 93.1131L593.939 93.664V105.234H592.837V109.642L592.286 111.295L591.185 111.846L590.634 113.499H589.532V114.601L587.879 115.152H584.022V116.254H580.716V115.152L579.063 114.601V111.846H577.961L577.41 103.581V92.0111L577.961 89.8073H579.063V88.7054H577.961L577.41 74.3803H576.308L575.758 70.5235V44.6282L574.105 44.0773V42.9753H569.146L566.391 42.4244L564.738 41.3224L563.085 40.7715V39.6695H559.78V38.0167L557.025 37.4657V36.3638L554.821 35.8128V34.1599H553.719L553.168 31.4051H554.821L555.372 29.2012L558.127 27.5483L565.84 28.0993L566.391 29.2012L569.697 29.7522L571.35 30.8541L573.003 31.4051V32.507H574.105L574.656 27.5483H575.758L575.207 11.5704H574.656V3.30591L577.41 2.20398L577.961 1.65301L582.92 1.10205L584.573 0.00012207Z" fill="white"/>
<path d="M72.7273 9.36646L80.4408 9.91742L82.0937 11.5703V13.2232H80.9917L80.4408 17.08L78.7879 18.1819L65.0138 18.7328L62.8099 18.1819V19.2838L61.157 19.8348L48.4848 20.3857L47.3829 21.4877H42.9752L44.0771 29.2012L44.6281 29.7521V34.7108H67.7686L67.2176 37.4656H66.1157L65.5647 39.6695H64.4628L63.9118 41.3224H62.8099V42.4243L59.5041 42.9753V44.0772L55.6474 44.6282H49.5868V45.7301H46.281L45.73 49.5868H44.6281V56.1984L44.0771 57.3003H42.9752V61.1571L41.8733 62.81L40.7714 67.2177H39.6694V69.9725L41.3223 68.8706L46.281 68.3196L47.9339 67.2177H52.8926V66.1158L54.5455 65.5648H58.9532V64.4629L65.5647 62.81L66.1157 62.259H72.1763V61.1571L75.4821 60.6061V63.9119L73.8292 65.5648H72.1763V67.2177H70.5234L69.9725 68.3196L66.1157 69.4216V70.5235L61.157 71.0744V72.1764H56.1983L55.6474 73.8293L51.2397 74.3802L49.5868 75.4822L44.6281 76.0331V77.135L39.6694 77.686V78.7879L34.7107 79.3389V80.4408H29.7521V82.0937H24.7934V83.1957L23.6915 83.7466H19.8347L18.7328 83.1957V82.0937H19.8347V77.135H21.4876V75.4822H23.1405V73.8293H24.7934L25.3444 71.0744L26.4463 68.8706L27.5482 68.3196L28.0992 65.5648H29.2011L29.7521 60.6061H30.854V37.4656L29.7521 34.7108V29.7521L28.0992 29.2012V26.4463L26.4463 25.8954L24.7934 24.2425V23.1406L21.4876 22.5896L20.3857 22.0386L13.2231 20.9367V19.8348H2.20386L1.65289 18.1819H0.550964L0 14.8761L0.550964 13.2232L4.95868 12.6722V11.5703L9.91736 11.0193L10.4683 9.91742H23.6915L24.7934 10.4684V11.5703L26.9972 12.1213H44.0771L44.6281 11.5703L62.259 11.0193V9.91742L72.7273 9.36646Z" fill="white"/>
<path d="M339.945 28.0992H349.311V29.2012H357.576L359.78 29.7521V30.8541L362.534 31.405L363.085 32.507L364.738 33.0579V34.7108H366.391L365.84 38.0166H364.738L364.187 41.3224H363.085L362.534 44.0772L361.432 45.1791L359.78 46.2811H358.127V47.383L354.821 47.934L354.27 49.5868L353.168 50.6888H351.515V52.3417L346.005 52.8926V53.9946L343.251 54.5455V55.6475L339.945 56.1984V57.3003L333.333 57.8513L330.578 58.4023L330.027 58.9532L321.763 59.5042V63.9119H323.416V67.2177H325.069V69.4216L326.722 69.9725V72.1764H328.375V73.8293H330.027V75.4822H341.598V73.8293H346.556V72.1764H347.658V70.5235L349.311 69.9725L349.862 68.8706H351.515V67.2177H353.168V65.5648H354.821V64.4629L355.923 63.9119L356.474 62.259H357.576L358.127 59.5042L360.881 57.3003L362.534 55.6475L364.738 56.1984V57.3003H365.84V62.259H364.738L364.187 65.5648H363.085L362.534 68.3196L360.881 70.5235H359.78V72.1764H358.127V73.8293H356.474V75.4822L353.719 76.0331L351.515 75.4822V77.1351H349.862V78.7879H347.658V80.4408L343.251 80.9918V82.0937L337.19 82.6447L336.639 83.7466L332.782 84.8486L331.68 85.3995H328.375L327.273 84.2976H325.069V85.3995L321.763 84.2976L317.355 83.7466L316.804 82.0937H315.151L312.948 79.3389L311.846 78.7879V77.1351H310.193V70.5235H309.091L308.54 69.4216V65.5648H307.438L306.887 64.4629V57.3003L307.438 52.3417L309.091 47.934H310.193V44.0772H311.846V40.7714L313.499 39.1185L314.049 38.0166L318.457 37.4656L319.008 35.8127H320.11V34.7108L321.763 34.1598L322.314 33.0579L325.069 32.507V31.405L333.333 30.8541V29.7521H339.945V28.0992ZM334.986 38.0166V39.1185H330.027L328.926 39.6695V40.7714L326.722 41.3224V42.9753H325.069V47.383L336.639 47.934L339.945 47.383V46.2811L344.353 45.7301V44.6282L346.556 44.0772V42.4243H347.658L348.209 39.6695H346.556V38.0166H334.986Z" fill="white"/>
<path d="M658.402 7.1626L663.361 8.81549L662.81 14.8761H661.708V23.1406L661.157 28.0992H660.055V50.6888H661.157L661.708 53.9946H664.463L665.014 52.3417H669.421V47.9339L672.176 45.7301L673.278 44.0772H674.38V42.9753L679.339 42.4243H687.603L688.154 49.0359H689.256V54.5455H690.909V57.3003H692.562L692.011 59.5042L691.46 60.6061H692.562L693.113 62.259V67.2177H694.215V68.8706L696.419 69.4216L697.521 70.5235V72.1764H699.173L698.622 74.9312L697.521 77.135H695.868V78.7879L692.562 80.4408L688.154 80.9918L687.603 82.0937H684.297V79.8899H683.195L682.644 77.135H681.543L680.992 75.4822V69.4216H679.89L679.339 66.1158L677.686 65.5648V62.81L676.033 61.1571L674.38 60.6061V58.9532L671.625 59.5042L671.074 62.259H669.972V63.9119H668.319L667.768 66.1158H666.667L666.116 70.5235H665.014V72.1764H663.361V73.8293L661.708 74.3802L661.157 75.4822L656.749 76.0331V77.135L651.79 77.686L650.138 77.135L649.587 73.8293H648.485V60.6061H646.832L646.281 50.6888L645.179 50.1378L644.628 45.7301V28.0992L645.179 21.4877L646.281 18.1819L646.832 13.2232H647.934L648.485 11.0193H649.587V9.91742H651.24V8.26453H658.402V7.1626ZM656.198 44.0772L655.096 44.6282V45.7301L656.749 47.383H657.851L658.402 44.6282L656.198 44.0772ZM648.485 49.5868V50.6888H649.587V49.5868H648.485ZM685.95 56.1984V57.3003H687.603V56.1984H685.95Z" fill="white"/>
<path d="M413.774 38.0166H418.733V39.1185H421.487V38.0166H426.997V39.1185L433.058 39.6695L435.812 42.4243L438.016 42.9753V44.0772L440.22 44.6282V45.7301H441.322V47.383H442.975L444.628 49.0359L445.179 57.3004H446.281L446.832 61.1571H447.934V62.259H446.832V63.9119H448.485V65.5648H449.587L450.138 70.5235H451.239V72.1764H452.892V73.8293H454.545V80.4408H453.443L452.892 82.0937H448.485L447.934 83.7466H446.281V85.3995H441.322L439.669 83.7466V82.0937H438.567L438.016 78.788L436.363 77.1351V74.3802L430.303 73.8293L429.752 76.0331L428.65 77.1351L423.691 77.686V78.788H421.487V79.8899L420.385 80.4408H413.774V78.788H410.468L409.917 76.5841L408.815 76.0331V74.3802L407.162 73.8293V72.1764H404.958V69.4216L403.857 68.8706V67.7687L402.204 67.2177V51.2397H403.857V47.383H404.958L406.06 42.9753L408.815 42.4243V40.7714H410.468V39.6695L413.774 39.1185V38.0166ZM415.978 47.934L415.427 50.6888H413.774V57.3004L412.121 57.8513V60.6061H413.774V62.81H414.876L415.427 65.5648L416.529 66.1158L417.08 68.8706H418.733V70.5235H422.038V68.8706H423.691V67.2177H425.344V65.5648H426.446L426.997 60.6061H428.099L428.65 55.6475L428.099 54.5455H426.997L426.446 51.2397L423.691 50.6888V49.5869L420.385 49.0359V47.934H415.978Z" fill="white"/>
<path d="M513.499 9.91748H516.804L517.355 11.5704V18.1819L516.804 19.8348H515.702L515.152 25.8954H514.05L513.499 33.058H512.948L511.846 38.0167H510.744V40.7715L509.091 41.3224V42.4244H510.193L510.744 45.7302L510.193 47.934H509.091V52.8927L508.54 57.8514H507.438L508.54 58.9533L507.989 61.1572L507.438 62.2591H505.785V65.5649H507.438V67.2178H509.091V72.1764H510.193V70.5235L513.499 71.0745V72.1764H516.804V70.5235L521.763 69.9726V68.8706H523.416V67.2178H525.069L525.62 65.5649H526.722L527.273 62.2591H528.375L529.477 60.6062H531.68L532.231 58.9533H533.884L534.435 57.3004H538.292V58.9533H537.19V60.6062H538.292V63.912H537.19L536.639 66.1158L536.088 67.2178H533.884L533.333 70.5235H532.231L531.68 73.2784L528.926 74.3803L528.375 75.4822L525.62 76.0332L525.069 77.1351L520.661 77.6861L520.11 78.788L517.906 79.339L517.355 80.4409H514.05V82.0938H508.54V80.9919L501.928 80.4409L500.826 79.8899V77.1351H497.521L495.868 73.8293V72.1764H494.766L493.664 69.4216L492.562 68.8706V55.6475L493.664 54.5456L494.215 49.5869L495.317 49.0359L495.868 47.383H497.521L496.97 41.3224L497.521 39.1186H498.623V33.058L499.174 27.5483H500.276L500.826 19.2839H501.928L502.479 14.3252L503.581 13.2233H505.785V12.1213L510.744 11.0194H513.499V9.91748Z" fill="white"/>
<path d="M130.027 42.9752H143.251V44.0771L146.556 42.9752H162.534V44.6281H161.432L160.881 47.9339H159.779L159.228 50.6887L156.474 51.2397V52.3416L153.168 52.8926H123.416L121.763 52.3416V49.5868L122.865 49.0358L123.416 47.3829H125.069V45.73H126.722V44.6281L130.027 44.0771V42.9752Z" fill="white"/>
<path d="M741.598 92.0111L742.149 93.664H743.251V96.9698H725.62L725.069 98.6227H723.967V100.276H722.314L721.763 103.03H720.661V109.642L719.56 110.744L718.458 119.559L719.009 126.171L718.458 127.824H717.356L718.458 130.579L719.009 131.681L716.805 131.13V117.906L717.356 114.601H718.458V108.54L720.11 107.989V101.928L721.763 101.377V99.7246H723.416L723.967 96.9698L725.069 96.4188H730.579V95.3169L732.232 94.7659H741.598V92.0111Z" fill="white"/>
<path d="M402.204 51.2397L403.857 51.7907V52.8926H402.755V55.6475H405.509V59.5042H402.755V60.6061H403.857V64.4629L402.755 65.5648H403.857V67.2177L406.06 67.7687L407.162 67.2177V68.8706H408.815V67.2177H410.468V70.5235L406.06 71.0745L404.958 72.1764V69.4216L403.857 68.8706V67.7687L402.204 67.2177V51.2397Z" fill="white"/>
<path d="M259.504 38.0166H261.157V42.9753L260.055 47.383V64.4629L261.157 68.8706V82.0937H259.504V77.1351H260.606V72.1764H259.504L258.953 68.3196V44.0772L259.504 40.7714H260.606V39.6695H259.504V38.0166Z" fill="white"/>
<path d="M243.526 14.8761H245.179V35.8127L244.628 38.0166H243.526L242.975 39.6695H231.956L231.405 38.0166H236.915V39.1185H241.322V38.0166H242.975L243.526 34.1598V14.8761Z" fill="white"/>
<path d="M29.752 30.854L30.3029 32.5069H31.4048L31.9558 35.8127V42.4243H33.0577V54.5455H31.9558V59.5041L31.4048 62.259H30.3029L29.752 63.3609V60.6061H30.8539V37.4656L29.752 34.7108V30.854Z" fill="white"/>
<path d="M741.598 92.0111L742.149 93.664H743.251V96.9698H725.62V98.0717H723.967V96.9698L725.069 96.4188H730.578V95.3169L732.231 94.7659H741.598V92.0111Z" fill="white"/>
<path d="M787.879 70.5236H789.532V83.7467H790.634L791.185 85.3996V93.6641H792.838V98.0718H793.94L794.49 101.929H792.838L792.287 99.7247V95.3169L790.634 94.766V87.0525H789.532L788.981 85.3996V80.4409H787.879V78.788H788.981V72.1765H787.879V70.5236Z" fill="white"/>
<path d="M256.198 2.20398H256.749V24.2425H257.851V28.0993H256.198L255.647 24.7935V2.75494L256.198 2.20398Z" fill="white"/>
<path d="M800.551 128.375H801.102V134.435H802.204L802.755 139.394H803.857V144.353H802.755V146.006H800.551V147.658H799.449L798.898 144.904L799.449 144.353H802.204V137.741H800.551V128.375Z" fill="white"/>
<path d="M785.675 45.1792L786.226 47.3831L785.675 49.5869H784.573V58.9533H785.675L786.226 60.6062V67.2178L787.879 67.7687V70.5236L785.675 68.8707V63.912H784.573L784.022 60.6062V47.934L784.573 45.7302L785.675 45.1792Z" fill="white"/>
<path d="M247.934 78.2371L249.587 78.788L250.138 82.0938V88.7054H251.24L251.791 92.0112V98.6227H252.893V101.929H251.791L251.24 100.827L250.689 92.0112H249.587L249.036 82.0938H247.934V78.2371Z" fill="white"/>
<path d="M309.091 47.934H310.193V49.5869H309.091V57.3003L307.438 57.8513V62.259H308.54L309.091 63.9119V68.8706H310.193V70.5235H309.091L308.54 69.4216V65.5648H307.438L306.887 64.4629V57.3003L307.438 52.3417L309.091 47.934Z" fill="white"/>
<path d="M78.9697 15.8021H80.6226V16.9041L78.9697 18.006L65.1956 18.5569L62.9918 18.006V19.1079L61.3389 19.6589H56.9312L58.0331 19.1079V18.006L62.4408 17.455H74.011V16.3531L78.9697 15.8021Z" fill="white"/>
<path d="M136.088 42.9752H143.251V44.0771L146.556 42.9752H152.617V44.0771L151.515 44.6281H136.639L136.088 42.9752Z" fill="white"/>
<path d="M47.1451 34.6084H60.9192V36.2613H47.6961L46.0432 35.1594L47.1451 34.6084Z" fill="white"/>
<path d="M574.656 6.61169H576.309V31.4051H574.656V27.5483H575.758L575.207 11.5704H574.656V6.61169Z" fill="white"/>
<path d="M672.727 44.6282H673.278V47.383L671.625 47.934V52.3417L671.074 52.8926H666.115V53.9946L665.013 54.5455H661.157L661.708 52.8926V53.9946H664.463L665.013 52.3417H669.421V47.934L672.176 45.7301L672.727 44.6282Z" fill="white"/>
<path d="M584.573 0.00012207H588.98L589.531 1.10205V8.26458H590.633V9.91748H588.98V1.65301L584.573 2.20398H579.614V3.30591H577.41L577.961 1.65301L582.92 1.10205L584.573 0.00012207Z" fill="white"/>
<path d="M44.6282 11.5703H51.2397V13.2232H26.9973V12.6722L44.0772 12.1213L44.6282 11.5703Z" fill="white"/>
<path d="M316.804 82.0938L319.008 82.6447L325.069 83.1957L330.028 83.7466V84.8486H331.129L331.68 83.1957H336.639V83.7466L332.782 84.8486L331.68 85.3995H328.375L327.273 84.2976H325.069V85.3995L321.763 84.2976L317.355 83.7466L316.804 82.0938Z" fill="white"/>
<path d="M259.504 64.4629H260.055L261.157 68.8706V82.0937H259.504V77.1351H260.606V72.1764H259.504V64.4629Z" fill="white"/>
<path d="M687.603 45.7301H688.154V49.0359H689.256V54.5455H690.909V56.1984H689.807V57.3004H687.603V56.1984L686.501 55.6475H687.603V45.7301Z" fill="white"/>
<path d="M245.179 49.5868H246.832V63.9119H247.934V69.4215L246.281 68.8705L245.73 52.3416L245.179 49.5868Z" fill="white"/>
<path d="M213.774 22.5896L215.427 23.1406V38.0166H213.774V35.8127H214.876V29.7521H213.774V22.5896Z" fill="white"/>
<path d="M592.287 40.7715H596.143L593.94 41.3224V42.4244L592.838 42.9753L592.287 46.2811H591.185V60.6062H590.634V42.9753L592.287 42.4244V40.7715Z" fill="white"/>
<path d="M645.179 47.3831H650.138V51.2398H646.832L646.281 52.3417V50.6888L645.179 50.1379V47.3831ZM648.485 49.5869V50.6888H649.587V49.5869H648.485Z" fill="white"/>
<path d="M737.741 75.4822H738.843V77.1351H740.496V78.237H753.168V77.1351H754.821V78.237L749.312 79.3389H743.802L738.843 78.788L737.19 77.1351L737.741 75.4822Z" fill="white"/>
<path d="M725.069 150.964H725.62V155.923H727.273L728.375 157.025V160.882H727.273V162.535H731.681L731.13 163.637L728.926 163.086V164.188H726.722V158.127L725.069 156.474V150.964Z" fill="white"/>
<path d="M402.204 51.2397L403.857 51.7907V52.8926H402.755V55.6475H405.509V59.5042H402.755L402.204 60.6061V51.2397Z" fill="white"/>
<path d="M330.027 37.4656H344.904V38.0165H334.986V39.1185L328.926 39.6694V40.7714L326.722 39.6694L329.477 39.1185L330.027 37.4656Z" fill="white"/>
<path d="M739.945 44.6282H740.496V58.9532L738.843 59.5042V63.9119H737.19V62.81H738.292L738.843 55.6475H739.945V44.6282Z" fill="white"/>
<path d="M44.0771 52.3417H44.6281V56.1984L44.0771 57.3004H42.9752V61.1571L41.8733 62.81L40.7714 67.2177H39.6694V65.5648H40.7714L41.3223 60.6061H42.4243V55.6475L42.9752 53.9946H44.0771V52.3417Z" fill="white"/>
<path d="M774.656 83.7467L775.207 85.3996H776.309L776.86 92.0112H777.962V96.4189L776.309 94.766L775.758 89.8073L774.656 88.1544V83.7467Z" fill="white"/>
<path d="M576.309 47.934H577.411L577.961 49.0359V56.1984L577.411 57.3004H576.309V47.934Z" fill="white"/>
<path d="M413.774 38.0166H418.733V39.1185H421.487V38.0166H423.691L423.14 39.6695H412.121L413.774 39.1185V38.0166Z" fill="white"/>
<path d="M231.405 38.0166H236.915V39.1185H241.322V38.0166H242.975V39.6695H231.956L231.405 38.0166Z" fill="white"/>
<path d="M590.634 19.8348H591.185V32.507H595.592V31.4051H598.898L597.796 31.9561V33.058H590.634V19.8348Z" fill="white"/>
<path d="M717.356 118.457H718.458V122.865L719.009 126.171L718.458 127.824H717.356L718.458 130.579L719.009 131.681L716.805 131.13L717.356 118.457Z" fill="white"/>
<path d="M262.81 87.0524H263.912L265.014 93.113L266.116 94.7659V98.6226H267.769V100.276L265.565 99.7245V95.3168H264.463L263.361 90.3582H262.81V87.0524Z" fill="white"/>
<path d="M590.634 90.3583H592.287L592.838 93.1131L593.94 93.6641V98.6227L592.287 98.0718V93.6641H590.634V90.3583Z" fill="white"/>
<path d="M430.303 72.1764H435.262V73.2783L436.915 73.8293V77.1351H436.364V74.3802L430.303 73.8293L429.752 76.0331L428.65 74.9312H429.752L430.303 72.1764Z" fill="white"/>
<path d="M66.1157 62.259L67.2176 62.81L66.1157 64.4629H61.157V65.5648L59.5041 66.1158H55.6474V67.2177H52.8926V66.1158L54.5455 65.5648H58.9532V64.4629L65.5648 62.81L66.1157 62.259Z" fill="white"/>
<path d="M659.504 33.058H660.055V50.6888H661.157V52.8927H659.504V33.058Z" fill="white"/>
<path d="M680.992 74.9312L683.196 75.4821V78.2369L684.848 78.7879V80.4408H688.154L687.603 82.0937H684.297V79.8898H683.196L682.645 77.135H681.543L680.992 74.9312Z" fill="white"/>
<path d="M226.446 9.91748H226.997V28.0993H228.099V29.7522H226.446V9.91748Z" fill="white"/>
<path d="M244.628 4.95874L246.281 5.5097H245.179L244.628 7.1626H243.526V9.91742H244.628V14.8761H242.975V6.61163L244.628 6.06067V4.95874Z" fill="white"/>
<path d="M785.675 45.1792L786.226 47.3831L785.675 49.5869H784.573V60.6062H784.022V47.934L784.573 45.7302L785.675 45.1792Z" fill="white"/>
<path d="M790.633 91.4601L791.184 93.6639H792.837V98.0717H793.939L794.49 101.928H792.837L792.286 99.7245V95.3168L790.633 94.7659V91.4601Z" fill="white"/>
<path d="M47.9339 67.2177H52.3416V67.7686H49.5868V68.8705L47.9339 69.4215H42.9752V70.5234H39.6694L41.3223 68.8705L46.281 68.3196L47.9339 67.2177Z" fill="white"/>
<path d="M708.54 106.336L709.091 108.54H707.989V112.948L707.438 116.254H705.785V112.948H706.887L707.438 106.887L708.54 106.336Z" fill="white"/>
<path d="M507.438 52.3417L508.54 52.8926V57.8513H507.438L508.54 58.9532L507.989 61.1571L506.887 62.259V54.5455L507.438 52.3417Z" fill="white"/>
<path d="M10.4685 9.91748H14.8762L13.7743 10.4684V11.5704L6.61175 12.1213V13.2233H3.85693L4.95886 12.6723V11.5704L9.91754 11.0194L10.4685 9.91748Z" fill="white"/>
<path d="M452.893 73.8292H454.545V80.4408H453.444L452.893 81.5427V73.8292Z" fill="white"/>
<path d="M746.557 40.7715H756.474V43.5263L755.372 47.3831H754.821V41.3224H746.557V40.7715Z" fill="white"/>
<path d="M19.8346 77.1351L21.4875 77.6861H20.3856V83.1957H21.4875V82.0938H24.7933V83.1957L23.6913 83.7467H19.8346L18.7327 83.1957V82.0938H19.8346V77.1351Z" fill="white"/>
<path d="M226.446 29.7521H228.099V36.3636H226.446V29.7521Z" fill="white"/>
<path d="M13.2231 19.8348H17.0799V20.3858L23.1405 20.9368V22.5897L15.427 21.4877L13.2231 20.9368V19.8348Z" fill="white"/>
<path d="M247.934 78.2371L249.587 78.788L250.138 82.0938V88.7054H249.587L249.036 82.0938H247.934V78.2371Z" fill="white"/>
<path d="M416.529 70.5236H418.733V72.1765H420.386V73.8293L417.08 74.3803L416.529 73.8293V70.5236Z" fill="white"/>
<path d="M259.504 38.0166H261.157V42.9753L260.055 47.383H259.504V40.7714H260.606V39.6695H259.504V38.0166Z" fill="white"/>
<path d="M721.763 141.047H722.314L722.865 145.455L723.967 147.658V149.311H725.069V150.964H723.416V148.209L721.763 147.658V141.047Z" fill="white"/>
<path d="M316.804 82.0938L319.008 82.6447L327.273 83.7466L325.069 84.2976V85.3995L321.763 84.2976L317.355 83.7466L316.804 82.0938Z" fill="white"/>
<path d="M330.028 75.4822H341.598V76.0331H336.639V77.1351H333.334V76.0331H330.028V75.4822Z" fill="white"/>
<path d="M362.535 55.6475L363.637 56.1984L361.984 57.8513L361.433 59.5042H359.78V60.6061L358.678 61.1571L358.127 62.81L356.474 62.259H357.576L358.127 59.5042L360.882 57.3004L362.535 55.6475Z" fill="white"/>
<path d="M536.639 57.3004H538.292V58.9533H537.19V60.6062H538.292V63.912H537.19L536.639 65.5649V57.3004Z" fill="white"/>
<path d="M751.515 53.9946H753.168V57.3004H752.066V65.5649H751.515V53.9946Z" fill="white"/>
<path d="M415.427 47.3831H422.038L422.589 49.0359H420.385V47.934H415.978L415.427 50.6888H413.774V49.0359H414.876L415.427 47.3831Z" fill="white"/>
<path d="M661.157 11.5703H662.81V14.8761H661.708V23.1406H661.157V11.5703Z" fill="white"/>
<path d="M62.259 9.91748H67.7686L67.2177 11.5704H59.5042V11.0194H62.259V9.91748Z" fill="white"/>
<path d="M751.515 67.2177L753.719 67.7686L754.821 68.3196V67.2177H758.127L757.025 67.7686V68.8705L753.168 69.4215L751.515 68.8705V67.2177Z" fill="white"/>
<path d="M306.887 62.259H308.54L309.091 63.9119V68.8706H310.193V70.5235H309.091L308.54 69.4216V65.5648H307.438L306.887 62.259Z" fill="white"/>
<path d="M364.188 56.1984L364.738 57.3003H365.84V62.259H364.738L364.188 63.9119V56.1984Z" fill="white"/>
<path d="M646.832 53.9946H648.485V57.3004V58.9533V60.6062H646.832V53.9946Z" fill="white"/>
<path d="M221.487 6.61169H226.446V8.26459H219.834V7.16266L221.487 6.61169Z" fill="white"/>
<path d="M800.551 128.375H801.102V134.435H802.204L802.755 137.741H800.551V128.375Z" fill="white"/>
<path d="M577.961 85.3995L579.614 85.9505V92.0111H577.961V89.8072H579.063V88.7053H577.961V85.3995Z" fill="white"/>
<path d="M588.981 80.4408L589.532 82.0937L592.287 81.5427V85.3995L590.634 84.8485V83.7466H588.981V80.4408Z" fill="white"/>
<path d="M310.193 70.5236H310.744V75.4822H312.396V78.2371L314.049 78.788L313.498 80.4409L311.846 78.788V77.1351H310.193V70.5236Z" fill="white"/>
<path d="M438.016 65.5648H440.22V68.8706H436.915V67.2177H438.016V65.5648Z" fill="white"/>
<path d="M46.2812 44.0773H55.6476V44.6282H49.587V45.7302H46.2812V44.0773Z" fill="white"/>
<path d="M603.857 29.7521H608.264L608.815 30.854L607.713 31.405H600.551V30.854H603.857V29.7521Z" fill="white"/>
<path d="M0.551025 17.6309L3.85681 18.1818V18.7328L13.2232 19.2838V19.8347H2.20392L1.65295 18.1818L0.551025 17.6309Z" fill="white"/>
<path d="M228.099 62.8101H228.65V68.8707H229.752V72.1764H228.099V62.8101Z" fill="white"/>
<path d="M246.281 63.912H247.934V69.4216L246.281 68.8707V63.912Z" fill="white"/>
<path d="M73.8291 60.6061H75.482V63.9119L73.8291 64.4628V62.8099L71.6252 62.259L72.1762 61.157L73.8291 60.6061Z" fill="white"/>
<path d="M231.405 45.7301H236.364L236.915 47.383H231.405V45.7301Z" fill="white"/>
<path d="M655.096 42.4243H658.402L657.851 44.6282H655.096V45.7301L656.198 46.2811H654.545V42.9753L655.096 42.4243Z" fill="white"/>
<path d="M575.758 23.1405H576.309V31.405H574.656V27.5482H575.758V23.1405Z" fill="white"/>
<path d="M660.055 24.2424H661.157V28.0992H660.055V33.0579H659.504V24.7934L660.055 24.2424Z" fill="white"/>
<path d="M797.796 121.212H798.898L799.449 122.865V126.722H800.551V128.375L798.898 127.824V124.518H797.796L797.245 122.865L797.796 121.212Z" fill="white"/>
<path d="M577.961 106.887L578.512 107.989H579.614V114.601H579.063V111.846H577.961V106.887Z" fill="white"/>
<path d="M38.0165 77.1351H40.7714L39.6694 77.6861V78.788L34.7108 79.339V80.4409H33.0579V78.788L38.0165 78.2371V77.1351Z" fill="white"/>
<path d="M230.303 78.2371H231.405V80.4409H230.303V83.1957H231.405V85.3996H229.752V78.788L230.303 78.2371Z" fill="white"/>
<path d="M260.606 76.5841H261.157V82.0937H259.504V77.1351L260.606 76.5841Z" fill="white"/>
<path d="M493.664 54.5455H494.215V60.6061H492.562V55.6475L493.664 54.5455Z" fill="white"/>
<path d="M727.273 159.78H728.375V160.882H727.273V162.534H731.68L731.129 163.636L728.926 163.085V164.187H726.722V160.331L727.273 159.78Z" fill="white"/>
<path d="M805.51 149.311H807.163V154.27H805.51V149.311Z" fill="white"/>
<path d="M792.837 149.311H794.49V154.27H792.837V149.311Z" fill="white"/>
<path d="M257.851 104.683H262.81V105.234L259.504 106.336L258.953 106.887H252.893V106.336H257.851V104.683Z" fill="white"/>
<path d="M331.681 47.934H336.639V49.5869H331.681V47.934Z" fill="white"/>
<path d="M429.752 39.6696H433.058L435.262 42.4244L433.609 42.9753L433.058 41.3224H430.303L429.752 39.6696Z" fill="white"/>
<path d="M588.981 9.91748H590.634V14.8762H588.981V9.91748Z" fill="white"/>
<path d="M704.132 120.11H705.785V121.763H704.683V126.171H705.785V127.824H704.132V120.11Z" fill="white"/>
<path d="M523.416 67.2177L523.967 69.4215L523.416 70.5234L521.763 71.0744H517.356L516.805 72.1763V70.5234L521.763 69.9725V68.8705H523.416V67.2177Z" fill="white"/>
<path d="M495.317 49.0359H495.868V53.9946L494.215 54.5455V49.5869L495.317 49.0359Z" fill="white"/>
<path d="M769.146 42.9752H769.697V49.5868H768.044V45.73H769.146V42.9752Z" fill="white"/>
<path d="M773.002 39.6696H776.308V41.3224H771.9V42.4244H770.248V41.3224L773.002 40.2205V39.6696Z" fill="white"/>
<path d="M57.8514 18.1819H62.8101V19.2838L61.1572 19.8348H56.7495L57.8514 19.2838V18.1819Z" fill="white"/>
<path d="M786.226 186.777H787.879V188.981H781.268V188.43L786.226 186.777Z" fill="white"/>
</svg>
