<svg width="225" height="56" viewBox="0 0 225 56" fill="none" xmlns="http://www.w3.org/2000/svg">
<path d="M213.949 54.6116H215.024V55.0744H215.331V55.5372H216.712L216.252 55.6915V56H215.331V55.6915L214.717 55.5372L214.87 54.7658H213.949V54.6116Z" fill="#6A68A7"/>
<path d="M210.727 54.6116H211.647V55.0744L210.88 55.2287L210.727 55.5372H209.499L209.345 55.0744H210.727V54.6116Z" fill="#6A68A7"/>
<path d="M206.736 53.686H207.657V54.1488H208.117V54.6117H208.885L209.038 55.0745H208.117L207.964 54.3031L207.043 54.1488V53.8403L206.736 53.686Z" fill="#6A68A7"/>
<path d="M217.173 10.4905H218.861L219.014 10.6447V13.2673L218.861 13.8844H218.554V16.507H218.861L219.014 16.9698V18.8211L219.475 18.9753V19.7467H219.935V23.4492H220.242L220.396 23.912V26.226H220.856V27.4602H221.163L221.317 27.923V29.3114H221.623L221.93 30.8541V32.0883L221.777 33.0139L222.237 33.1682V33.9395H222.544L222.698 34.4023V35.4822H223.005L223.158 35.945V37.642H223.465L223.619 39.0304H223.926V40.4189H223.619V40.8817H223.005L223.158 41.8073H223.465L223.619 41.3445L224.386 41.4987V41.8073H224.847L225 44.4299L224.847 44.5841H224.079V44.8927H224.386L224.54 45.3555L224.847 45.5098V45.9726H224.54V46.4354H224.079V46.8982H224.386L224.847 47.361V47.6695L224.54 47.8238H223.619V48.2866H223.158V48.5952H223.926L224.079 48.7494V50.1379H223.619V51.372L223.158 51.5263L222.698 52.2976L221.777 52.4519V53.2233L221.317 53.3775V53.6861L220.396 53.8403V54.1489L219.475 54.3032V54.6117L218.093 54.766L217.48 55.2288H217.173V55.5373L216.252 55.6916V56.0001H215.331V55.6916L214.717 55.5373L214.87 54.766H213.95V55.6916H212.261L212.108 55.2288H210.88L210.726 55.5373H209.499L209.345 55.2288L208.117 55.0745L207.964 54.3032L207.043 54.1489V53.8403L206.122 53.6861V53.5318L205.201 53.2233V52.4519L204.434 52.2976L204.28 51.5263H203.973L203.82 50.6007L203.513 50.4464V50.1379H202.592L202.439 49.6751H202.132V49.2122H201.211L201.057 48.7494H200.75L200.443 47.0525L199.829 46.8982V46.4354H199.369L199.216 44.5841H198.909V44.1213H198.448L198.141 42.8872H197.988L197.834 41.1902L197.374 40.4189L197.067 39.339L196.913 36.8706V36.4078L196.606 36.2536V35.7908H196.146V33.631H196.606V31.6255H196.913L197.067 29.9285L197.374 29.7742L197.527 29.0029H197.988V28.3858L198.295 28.2315L198.448 27.4602H198.755V27.1516L199.216 26.9974L199.369 26.6888H199.829V26.226L200.75 26.0717V25.7632L201.978 25.6089L202.132 25.3004H206.276V25.6089L206.736 25.7632V26.226H207.043V27.1516H202.132L201.978 27.6144H201.671V28.0773H201.211L201.057 28.8486H200.75V30.6998L200.443 31.0084L200.136 33.4767L200.29 35.3279L200.136 35.7908H199.829L200.136 36.5621L200.29 37.1792H200.75V39.0304H201.057L201.364 40.7274L201.671 41.3445V41.8073H201.978L202.132 42.2701V43.6585H202.592L202.899 43.9671V45.047H202.592V45.5098H203.82V45.9726H204.28L204.434 47.2067L205.201 47.361L205.355 48.5952L206.276 48.7494L207.043 49.5208L207.196 50.7549L207.964 50.6007L208.424 51.0635V51.8348H209.499L210.266 52.4519L210.42 52.7605H211.647L212.108 52.9147L212.261 53.2233H217.173V52.9147L218.554 52.4519L219.475 52.2976V51.5263L219.782 51.372L219.935 50.9092L220.396 50.4464L220.549 50.1379H220.856V49.058H221.163V45.9726L221.317 43.1957H220.856V41.3445H220.396L220.242 40.4189H219.935L219.782 38.7219L219.475 38.5676L219.321 36.8706L219.014 36.7164L218.861 35.0194L218.554 34.8651L218.4 33.1682L218.093 33.0139V31.6255H217.787L217.48 30.237V29.9285H217.173L217.019 28.6943L216.712 28.5401L216.559 26.9974L216.252 26.5346L216.098 25.1461L215.791 24.6833L215.638 22.9863H215.331L215.177 20.9808L214.87 20.6723V19.7467H214.41V19.2839H213.95V19.7467H213.489V20.2095H213.029V20.6723L212.261 20.9808L211.34 21.2894L211.187 21.5979H210.266V21.9065L208.731 22.215H207.196L205.815 22.0607L205.355 21.5979L205.201 20.518H204.894V18.5125L205.201 18.3582L205.355 17.5869H205.662L205.815 15.5814H206.122V12.496L206.583 12.3417V12.0332L207.503 11.8789V11.5704L207.964 11.4161H210.726V12.1874L210.42 13.2673L210.266 14.193H209.806V16.0442H209.499V18.3582L209.345 18.8211L209.959 18.9753L210.266 19.1296V18.8211H211.34V18.5125L211.801 18.0497H212.108V17.4326H212.568V16.6613H213.029V16.0442H213.336L213.643 14.81H213.95V12.8045H214.257V12.0332L214.87 11.4161L215.331 11.1076L216.559 10.9533L216.712 10.6447L217.173 10.4905Z" fill="#6A68A7"/>
<path d="M69.9865 0.462891H71.3678L71.5213 0.617161V6.78796H71.8283V9.10201L72.2887 9.25628V10.6447H72.7491V12.0331L72.4422 13.2673V18.0497L72.7491 19.2838V22.9863H73.2096V24.3747H73.5165L73.8235 26.0717L74.1304 26.5345V27.6144H74.5909V29.0028H73.8235V29.3114L72.4422 29.6199L72.1352 29.9285H70.4469V28.54H70.14L69.9865 28.2315L69.833 25.7632H69.5261L69.3726 22.9863H69.0656V19.4381L68.6052 19.2838L68.4517 14.6557L68.2982 13.8844L67.2239 13.7301V13.4216H63.6939V19.2838H64.0008L64.1543 21.1351H64.4613V22.5235H64.1543V23.2948H64.4613V23.9119H64.0008V24.3747H63.08V24.6833L62.773 24.8375H61.2382L60.6243 24.3747L60.3173 23.9119V14.1929H60.0104L59.8569 13.4216L59.3965 12.9588V12.4959L58.936 12.3417L59.0895 11.4161H59.3965L59.55 10.0276H59.8569V8.33066H59.55L59.3965 6.32515V3.23975L59.55 2.77694L60.3173 2.62267V2.31413H61.2382V2.00559L61.6987 1.85132H63.08L63.2334 2.77694V7.86785H63.5404L63.6939 10.4904L65.9961 10.6447V10.9532H67.2239V10.6447H67.6843L67.8378 9.56482V4.62818L67.6843 4.16537V1.85132L68.1448 1.69705V1.38851H68.6052V0.925701L69.6796 0.771431L69.9865 0.462891Z" fill="#6A68A7"/>
<path d="M162.841 0H164.069L164.222 0.30854V2.31405H164.529L164.683 5.55372V9.10193H165.911V8.79339L168.213 8.63912V8.33058H170.055V9.56474L169.748 9.71901L169.594 10.1818H169.134V10.6446H167.906L167.752 11.1074H166.985V11.416L165.45 11.5702V11.8788L165.143 12.0331L164.99 12.9587H164.683V22.5234H164.222V22.9862L164.99 22.832L165.143 26.0716L165.45 26.2259V29.4656H165.143V30.6997L164.99 31.1625L164.683 31.3168L164.529 31.7796H164.222V32.0882L163.762 32.2424H162.688V32.551H161.767V32.2424L161.306 32.0882V31.3168H160.999L160.846 29.0028V25.7631L160.999 25.146H161.306V24.8375H160.999L160.846 20.8264H160.539L160.385 19.7466V12.4959L159.925 12.3416V12.0331H158.544L157.776 11.8788L157.316 11.5702L156.855 11.416V11.1074H155.935V10.6446L155.167 10.4904V10.1818L154.553 10.0275V9.56474H154.246L154.093 8.79339H154.553L154.707 8.17631L155.474 7.7135L157.623 7.86777L157.776 8.17631L158.697 8.33058L159.158 8.63912L159.618 8.79339V9.10193H159.925L160.078 7.7135H160.385L160.232 3.23967H160.078V0.92562L160.846 0.61708L160.999 0.46281L162.381 0.30854L162.841 0Z" fill="#6A68A7"/>
<path d="M20.2592 2.62256L22.4079 2.77683L22.8683 3.23964V3.70245H22.5614L22.4079 4.78234L21.9475 5.09088L18.1105 5.24515L17.4966 5.09088V5.39942L17.0362 5.55369L13.5061 5.70796L13.1992 6.0165H11.9713L12.2783 8.17628L12.4318 8.33055V9.71898H18.8779L18.7244 10.4903H18.4175L18.264 11.1074H17.957L17.8035 11.5702H17.4966V11.8788L16.5757 12.033V12.3416L15.5014 12.4958H13.8131V12.8044H12.8922L12.7387 13.8843H12.4318V15.7355L12.2783 16.044H11.9713V17.1239L11.6644 17.5867L11.3574 18.8209H11.0505V19.5923L11.5109 19.2837L12.8922 19.1294L13.3527 18.8209H14.734V18.5124L15.1944 18.3581H16.4222V18.0496L18.264 17.5867L18.4175 17.4325H20.1057V17.1239L21.0266 16.9697V17.8953L20.5662 18.3581H20.1057V18.8209H19.6453L19.4918 19.1294L18.4175 19.438V19.7465L17.0362 19.9008V20.2093H15.6548L15.5014 20.6721L14.2735 20.8264L13.8131 21.135L12.4318 21.2892V21.5978L11.0505 21.752V22.0606L9.66917 22.2148V22.5234H8.28786V22.9862H6.90655V23.2947L6.59959 23.449H5.52524L5.21828 23.2947V22.9862H5.52524V21.5978H5.98567V21.135H6.44611V20.6721H6.90655L7.06003 19.9008L7.36698 19.2837L7.67394 19.1294L7.82742 18.3581H8.13438L8.28786 16.9697H8.59482V10.4903L8.28786 9.71898V8.33055L7.82742 8.17628V7.40493L7.36698 7.25066L6.90655 6.78785V6.47931L5.98567 6.32504L5.67872 6.17077L3.68349 5.86223V5.55369H0.613915L0.460437 5.09088H0.153479L0 4.16526L0.153479 3.70245L1.38131 3.54818V3.23964L2.76262 3.08537L2.9161 2.77683H6.59959L6.90655 2.9311V3.23964L7.52046 3.39391H12.2783L12.4318 3.23964L17.3431 3.08537V2.77683L20.2592 2.62256Z" fill="#6A68A7"/>
<path d="M94.6965 7.86768H97.3057V8.17622H99.6078L100.222 8.33049V8.63903L100.989 8.7933L101.143 9.10184L101.603 9.25611V9.71892H102.064L101.91 10.6445H101.603L101.45 11.5702H101.143L100.989 12.3415L100.682 12.65L100.222 12.9586H99.7613V13.2671L98.8405 13.4214L98.687 13.8842L98.38 14.1927H97.9196V14.6556L96.3848 14.8098V15.1184L95.6174 15.2726V15.5812L94.6965 15.7354V16.044L92.8548 16.1983L92.0874 16.3525L91.9339 16.5068L89.6317 16.6611V17.8952H90.0922V18.8208H90.5526V19.4379L91.013 19.5922V20.2093H91.4735V20.6721H91.9339V21.1349H95.157V20.6721H96.5383V20.2093H96.8452V19.7465L97.3057 19.5922L97.4591 19.2837H97.9196V18.8208H98.38V18.358H98.8405V18.0495L99.1474 17.8952L99.3009 17.4324H99.6078L99.7613 16.6611L100.529 16.044L100.989 15.5812L101.603 15.7354V16.044H101.91V17.4324H101.603L101.45 18.358H101.143L100.989 19.1294L100.529 19.7465H100.222V20.2093H99.7613V20.6721H99.3009V21.1349L98.5335 21.2892L97.9196 21.1349V21.5977H97.4591V22.0605H96.8452V22.5233L95.6174 22.6776V22.9861L93.9291 23.1404L93.7757 23.4489L92.7013 23.7575L92.3943 23.9118H91.4735L91.1665 23.6032H90.5526V23.9118L89.6317 23.6032L88.4039 23.4489L88.2504 22.9861H87.79L87.1761 22.2148L86.8691 22.0605V21.5977H86.4087V19.7465H86.1017L85.9482 19.4379V18.358H85.6413L85.4878 18.0495V16.044L85.6413 14.6556L86.1017 13.4214H86.4087V12.3415H86.8691V11.4159L87.3295 10.9531L87.483 10.6445L88.7108 10.4903L88.8643 10.0275H89.1713V9.71892L89.6317 9.56465L89.7852 9.25611L90.5526 9.10184V8.7933L92.8548 8.63903V8.33049H94.6965V7.86768ZM93.3152 10.6445V10.9531H91.9339L91.6269 11.1073V11.4159L91.013 11.5702V12.033H90.5526V13.2671L93.7757 13.4214L94.6965 13.2671V12.9586L95.9244 12.8043V12.4958L96.5383 12.3415V11.8787H96.8452L96.9987 11.1073H96.5383V10.6445H93.3152Z" fill="#6A68A7"/>
<path d="M183.407 2.00562L184.789 2.46843L184.635 4.1654H184.328V6.47944L184.175 7.86787H183.868V14.1929H184.175L184.328 15.1186H185.096L185.249 14.6558H186.477V13.4216L187.244 12.8045L187.551 12.3417H187.858V12.0332L189.239 11.8789H191.542L191.695 13.7301H192.002V15.2728H192.463V16.0442H192.923L192.769 16.6613L192.616 16.9698H192.923L193.076 17.4326V18.821H193.383V19.2839L193.997 19.4381L194.304 19.7467V20.2095H194.765L194.611 20.9808L194.304 21.5979H193.844V22.0607L192.923 22.5235L191.695 22.6778L191.542 22.9863H190.621V22.3693H190.314L190.16 21.5979H189.853L189.7 21.1351V19.4381H189.393L189.239 18.5125L188.779 18.3582V17.5869L188.319 17.1241L187.858 16.9698V16.507L187.091 16.6613L186.937 17.4326H186.63V17.8954H186.17L186.016 18.5125H185.709L185.556 19.7467H185.249V20.2095H184.789V20.6723L184.328 20.8266L184.175 21.1351L182.947 21.2894V21.5979L181.566 21.7522L181.105 21.5979L180.952 20.6723H180.645V16.9698H180.184L180.031 14.1929L179.724 14.0387L179.57 12.8045V7.86787L179.724 6.01663L180.031 5.09101L180.184 3.70258H180.491L180.645 3.08551H180.952V2.77697H181.412V2.31416H183.407V2.00562ZM182.793 12.3417L182.486 12.496V12.8045L182.947 13.2673H183.254L183.407 12.496L182.793 12.3417ZM180.645 13.8844V14.1929H180.952V13.8844H180.645ZM191.081 15.7356V16.0442H191.542V15.7356H191.081Z" fill="#6A68A7"/>
<path d="M115.263 10.6445H116.644V10.9531H117.411V10.6445H118.946V10.9531L120.634 11.1073L121.402 11.8787L122.016 12.033V12.3415L122.63 12.4958V12.8043H122.937V13.2671H123.397L123.857 13.7299L124.011 16.044H124.318L124.471 17.1239H124.778V17.4324H124.471V17.8952H124.932V18.358H125.239L125.392 19.7465H125.699V20.2093H126.16V20.6721H126.62V22.5233H126.313L126.16 22.9861H124.932L124.778 23.4489H124.318V23.9117H122.937L122.476 23.4489V22.9861H122.169L122.016 22.0605L121.555 21.5977V20.8263L119.867 20.6721L119.713 21.2892L119.407 21.5977L118.025 21.752V22.0605H117.411V22.369L117.104 22.5233H115.263V22.0605H114.342L114.188 21.4434L113.881 21.2892V20.8263L113.421 20.6721V20.2093H112.807V19.4379L112.5 19.2836V18.9751L112.04 18.8208V14.347H112.5V13.2671H112.807L113.114 12.033L113.881 11.8787V11.4159H114.342V11.1073L115.263 10.9531V10.6445ZM115.877 13.4214L115.723 14.1927H115.263V16.044L114.802 16.1982V16.9696H115.263V17.5867H115.57L115.723 18.358L116.03 18.5123L116.183 19.2836H116.644V19.7465H117.565V19.2836H118.025V18.8208H118.486V18.358H118.793L118.946 16.9696H119.253L119.407 15.5812L119.253 15.2726H118.946L118.793 14.347L118.025 14.1927V13.8842L117.104 13.7299V13.4214H115.877Z" fill="#6A68A7"/>
<path d="M143.042 2.77686H143.963L144.117 3.23967V5.0909L143.963 5.55371H143.656L143.503 7.25068H143.196L143.042 9.25619H142.889L142.582 10.6446H142.275V11.416L141.814 11.5702V11.8788H142.121L142.275 12.8044L142.121 13.4215H141.814V14.8099L141.661 16.1983H141.354L141.661 16.5069L141.507 17.124L141.354 17.4325H140.893V18.3581H141.354V18.8209H141.814V20.2094H142.121V19.7466L143.042 19.9008V20.2094H143.963V19.7466L145.344 19.5923V19.2837H145.805V18.8209H146.265L146.419 18.3581H146.726L146.879 17.4325H147.186L147.493 16.9697H148.107L148.26 16.5069H148.721L148.874 16.0441H149.949V16.5069H149.642V16.9697H149.949V17.8953H149.642L149.488 18.5124L149.335 18.8209H148.721L148.567 19.7466H148.26L148.107 20.5179L147.34 20.8264L147.186 21.135L146.419 21.2893L146.265 21.5978L145.037 21.7521L144.884 22.0606L144.27 22.2149L144.117 22.5234H143.196V22.9862H141.661V22.6777L139.819 22.5234L139.512 22.3691V21.5978H138.591L138.131 20.6722V20.2094H137.824L137.517 19.438L137.21 19.2837V15.5813L137.517 15.2727L137.67 13.8843L137.977 13.73L138.131 13.2672H138.591L138.438 11.5702L138.591 10.9532H138.898V9.25619L139.052 7.71349H139.359L139.512 5.39944H139.819L139.973 4.01102L140.28 3.70248H140.893V3.39394L142.275 3.0854H143.042V2.77686Z" fill="#6A68A7"/>
<path d="M36.2209 12.033H39.9044V12.3415L40.8253 12.033H45.2761V12.4958H44.9692L44.8157 13.4214H44.5087L44.3553 14.1927L43.5879 14.347V14.6555L42.667 14.8098H34.3791L33.9187 14.6555V13.8842L34.2257 13.7299L34.3791 13.2671H34.8396V12.8043H35.3V12.4958L36.2209 12.3415V12.033Z" fill="#6A68A7"/>
<path d="M206.583 25.7632L206.736 26.226H207.043V27.1516H202.132L201.978 27.6144H201.671V28.0772H201.211L201.057 28.8486H200.75V30.6998L200.443 31.0084L200.136 33.4767L200.29 35.3279L200.136 35.7907H199.83L200.136 36.5621L200.29 36.8706L199.676 36.7164V33.0139L199.83 32.0883H200.136V30.3913L200.597 30.237V28.54L201.057 28.3858V27.923H201.518L201.671 27.1516L201.978 26.9973H203.513V26.6888L203.973 26.5345H206.583V25.7632Z" fill="#6A68A7"/>
<path d="M112.04 14.3472L112.5 14.5014V14.81H112.193V15.5813H112.96V16.6612H112.193V16.9698H112.5V18.0496L112.193 18.3582H112.5V18.821L113.114 18.9753L113.421 18.821V19.2838H113.881V18.821H114.342V19.7466L113.114 19.9009L112.807 20.2094V19.4381L112.5 19.2838V18.9753L112.04 18.821V14.3472Z" fill="#6A68A7"/>
<path d="M72.2885 10.6445H72.7489V12.033L72.442 13.2671V18.0495L72.7489 19.2837V22.9861H72.2885V21.5977H72.5954V20.2093H72.2885L72.135 19.1294V12.3415L72.2885 11.4159H72.5954V11.1073H72.2885V10.6445Z" fill="#6A68A7"/>
<path d="M67.8377 4.16528H68.2982V10.0275L68.1447 10.6446H67.8377L67.6842 11.1074H64.6147L64.4612 10.6446H65.996V10.9532H67.2238V10.6446H67.6842L67.8377 9.56473V4.16528Z" fill="#6A68A7"/>
<path d="M8.28784 8.63916L8.44132 9.10197H8.74828L8.90176 10.0276V11.8788H9.20872V15.2728H8.90176V16.6612L8.74828 17.4325H8.44132L8.28784 17.7411V16.9697H8.5948V10.4904L8.28784 9.71905V8.63916Z" fill="#6A68A7"/>
<path d="M206.582 25.7632L206.736 26.226H207.043V27.1516H202.132V27.4602H201.671V27.1516L201.978 26.9973H203.513V26.6888L203.973 26.5345H206.582V25.7632Z" fill="#6A68A7"/>
<path d="M219.475 19.7466H219.935V23.4491H220.242L220.396 23.9119V26.2259H220.856V27.4601H221.163L221.317 28.54H220.856L220.703 27.9229V26.6887L220.242 26.5345V24.3747H219.935L219.782 23.9119V22.5234H219.475V22.0606H219.782V20.2094H219.475V19.7466Z" fill="#6A68A7"/>
<path d="M71.3676 0.617188H71.5211V6.78799H71.828V7.86788H71.3676L71.2141 6.94226V0.771457L71.3676 0.617188Z" fill="#6A68A7"/>
<path d="M223.005 35.9448H223.158V37.6418H223.465L223.619 39.0302H223.926V40.4187H223.619V40.8815H223.005V41.3443H222.698L222.544 40.5729L222.698 40.4187H223.465V38.5674H223.005V35.9448Z" fill="#6A68A7"/>
<path d="M218.861 12.6501L219.014 13.2672L218.861 13.8843H218.554V16.5069H218.861L219.014 16.9697V18.8209L219.475 18.9752V19.7466L218.861 19.2838V17.8953H218.554L218.4 16.9697V13.4215L218.554 12.8044L218.861 12.6501Z" fill="#6A68A7"/>
<path d="M69.0654 21.9062L69.5259 22.0605L69.6793 22.9861V24.8374H69.9863L70.1398 25.763V27.6142H70.4467V28.5399H70.1398L69.9863 28.2313L69.8328 25.763H69.5259L69.3724 22.9861H69.0654V21.9062Z" fill="#6A68A7"/>
<path d="M86.1017 13.4216H86.4087V13.8844H86.1017V16.0442L85.6413 16.1985V17.4327H85.9482L86.1017 17.8955V19.2839H86.4087V19.7467H86.1017L85.9482 19.4382V18.3583H85.6413L85.4878 18.0497V16.0442L85.6413 14.6558L86.1017 13.4216Z" fill="#6A68A7"/>
<path d="M21.998 4.42456H22.4585V4.7331L21.998 5.04164L18.1611 5.19591L17.5472 5.04164V5.35018L17.0867 5.50445H15.8589L16.1658 5.35018V5.04164L17.3937 4.88737H20.6167V4.57883L21.998 4.42456Z" fill="#6A68A7"/>
<path d="M37.9092 12.033H39.9044V12.3415L40.8253 12.033H42.5135V12.3415L42.2066 12.4958H38.0627L37.9092 12.033Z" fill="#6A68A7"/>
<path d="M13.1329 9.69043H16.9699V10.1532H13.2864L12.8259 9.8447L13.1329 9.69043Z" fill="#6A68A7"/>
<path d="M160.078 1.85132H160.539V8.79347H160.078V7.71358H160.385L160.232 3.23975H160.078V1.85132Z" fill="#6A68A7"/>
<path d="M187.398 12.4958H187.551V13.2672L187.091 13.4215V14.6556L186.937 14.8099H185.556V15.1184L185.249 15.2727H184.175L184.328 14.8099V15.1184H185.095L185.249 14.6556H186.477V13.4215L187.244 12.8044L187.398 12.4958Z" fill="#6A68A7"/>
<path d="M162.841 0H164.069L164.222 0.30854V2.31405H164.529V2.77686H164.069V0.46281L162.841 0.61708H161.46V0.92562H160.846L160.999 0.46281L162.38 0.30854L162.841 0Z" fill="#6A68A7"/>
<path d="M12.4318 3.23975H14.2736V3.70256H7.52051V3.54829L12.2784 3.39402L12.4318 3.23975Z" fill="#6A68A7"/>
<path d="M88.2502 22.9863L88.8642 23.1406L90.5524 23.2949L91.9337 23.4491V23.7577H92.2407L92.3942 23.2949H93.7755V23.4491L92.7011 23.7577L92.3942 23.9119H91.4733L91.1663 23.6034H90.5524V23.9119L89.6316 23.6034L88.4037 23.4491L88.2502 22.9863Z" fill="#6A68A7"/>
<path d="M72.2886 18.0496H72.4421L72.749 19.2837V22.9862H72.2886V21.5978H72.5955V20.2093H72.2886V18.0496Z" fill="#6A68A7"/>
<path d="M191.542 12.8044H191.695V13.7301H192.002V15.2728H192.462V15.7356H192.155V16.0441H191.542V15.7356L191.235 15.5813H191.542V12.8044Z" fill="#6A68A7"/>
<path d="M68.2981 13.8843H68.7585V17.8953H69.0655V19.438L68.6051 19.2837L68.4516 14.6556L68.2981 13.8843Z" fill="#6A68A7"/>
<path d="M59.5498 6.3252L60.0102 6.47947V10.6448H59.5498V10.0277H59.8568V8.3307H59.5498V6.3252Z" fill="#6A68A7"/>
<path d="M164.99 11.416H166.064L165.45 11.5703V11.8788L165.143 12.0331L164.99 12.9587H164.683V16.9697H164.529V12.0331L164.99 11.8788V11.416Z" fill="#6A68A7"/>
<path d="M179.724 13.2673H181.105V14.3472H180.184L180.031 14.6558V14.193L179.724 14.0387V13.2673ZM180.645 13.8844V14.193H180.952V13.8844H180.645Z" fill="#6A68A7"/>
<path d="M205.508 21.135H205.815V21.5978H206.276V21.9064H209.806V21.5978H210.266V21.9064L208.731 22.2149H207.196L205.815 22.0606L205.355 21.5978L205.508 21.135Z" fill="#6A68A7"/>
<path d="M201.978 42.27H202.132V43.6584H202.592L202.899 43.967V45.0469H202.592V45.5097H203.82L203.667 45.8182L203.053 45.664V45.9725H202.439V44.2755L201.978 43.8127V42.27Z" fill="#6A68A7"/>
<path d="M112.04 14.3472L112.5 14.5014V14.81H112.193V15.5813H112.96V16.6612H112.193L112.04 16.9698V14.3472Z" fill="#6A68A7"/>
<path d="M91.9338 10.4905H96.0777V10.6447H93.3151V10.9533L91.6269 11.1076V11.4161L91.0129 11.1076L91.7803 10.9533L91.9338 10.4905Z" fill="#6A68A7"/>
<path d="M206.122 12.4958H206.276V16.5069L205.815 16.6611V17.8953H205.355V17.5868H205.662L205.815 15.5812H206.122V12.4958Z" fill="#6A68A7"/>
<path d="M12.2784 14.6558H12.4318V15.7357L12.2784 16.0442H11.9714V17.1241L11.6645 17.5869L11.3575 18.8211H11.0505V18.3582H11.3575L11.511 16.9698H11.8179V15.5814L11.9714 15.1186H12.2784V14.6558Z" fill="#6A68A7"/>
<path d="M215.791 23.449L215.945 23.9118H216.252L216.405 25.763H216.712V26.9972L216.252 26.5344L216.098 25.1459L215.791 24.6831V23.449Z" fill="#6A68A7"/>
<path d="M160.539 13.4216H160.846L160.999 13.7302V15.7357L160.846 16.0442H160.539V13.4216Z" fill="#6A68A7"/>
<path d="M115.263 10.6445H116.644V10.9531H117.411V10.6445H118.025L117.872 11.1073H114.802L115.263 10.9531V10.6445Z" fill="#6A68A7"/>
<path d="M64.4612 10.6445H65.996V10.9531H67.2238V10.6445H67.6842V11.1073H64.6147L64.4612 10.6445Z" fill="#6A68A7"/>
<path d="M164.529 5.55371H164.683V9.10192H165.911V8.79338H166.831L166.525 8.94765V9.25619H164.529V5.55371Z" fill="#6A68A7"/>
<path d="M199.83 33.168H200.136V34.4021L200.29 35.3277L200.136 35.7906H199.83L200.136 36.5619L200.29 36.8704L199.676 36.7162L199.83 33.168Z" fill="#6A68A7"/>
<path d="M73.2095 24.3748H73.5164L73.8234 26.0717L74.1303 26.5345V27.6144H74.5908V28.0772L73.9769 27.923V26.6888H73.6699L73.363 25.3004H73.2095V24.3748Z" fill="#6A68A7"/>
<path d="M164.529 25.3003H164.99L165.143 26.0716L165.45 26.2259V27.6143L164.99 27.4601V26.2259H164.529V25.3003Z" fill="#6A68A7"/>
<path d="M119.867 20.2095H121.248V20.518L121.709 20.6723V21.5979H121.555V20.8266L119.867 20.6723L119.714 21.2894L119.407 20.9808H119.714L119.867 20.2095Z" fill="#6A68A7"/>
<path d="M18.4174 17.4326L18.7243 17.5869L18.4174 18.0497H17.0361V18.3582L16.5756 18.5125H15.5013V18.821H14.7339V18.5125L15.1943 18.3582H16.4222V18.0497L18.2639 17.5869L18.4174 17.4326Z" fill="#6A68A7"/>
<path d="M183.714 9.25635H183.868V14.193H184.175V14.8101H183.714V9.25635Z" fill="#6A68A7"/>
<path d="M189.7 20.9807L190.314 21.135V21.9063L190.774 22.0606V22.5234H191.695L191.542 22.9862H190.621V22.3691H190.314L190.16 21.5978H189.853L189.7 20.9807Z" fill="#6A68A7"/>
<path d="M63.0798 2.77686H63.2333V7.86776H63.5403V8.33057H63.0798V2.77686Z" fill="#6A68A7"/>
<path d="M68.1448 1.38843L68.6052 1.5427H68.2982L68.1448 2.00551H67.8378V2.77686H68.1448V4.16529H67.6843V1.85124L68.1448 1.69697V1.38843Z" fill="#6A68A7"/>
<path d="M218.861 12.6501L219.014 13.2672L218.861 13.8843H218.554V16.9697H218.4V13.4215L218.554 12.8044L218.861 12.6501Z" fill="#6A68A7"/>
<path d="M220.242 25.6089L220.396 26.226H220.856V27.4601H221.163L221.317 28.54H220.856L220.703 27.9229V26.6888L220.242 26.5345V25.6089Z" fill="#6A68A7"/>
<path d="M13.3527 18.821H14.5806V18.9753H13.8132V19.2839L13.3527 19.4381H11.9714V19.7467H11.0505L11.511 19.2839L12.8923 19.1296L13.3527 18.821Z" fill="#6A68A7"/>
<path d="M197.374 29.7742L197.527 30.3912H197.22V31.6254L197.067 32.551H196.606V31.6254H196.913L197.067 29.9284L197.374 29.7742Z" fill="#6A68A7"/>
<path d="M141.354 14.6558L141.661 14.81V16.1985H141.354L141.661 16.507L141.507 17.1241L141.2 17.4326V15.2728L141.354 14.6558Z" fill="#6A68A7"/>
<path d="M2.91621 2.77686H4.14404L3.83708 2.93113V3.23967L1.84186 3.39394V3.70248H1.07446L1.38142 3.54821V3.23967L2.76273 3.0854L2.91621 2.77686Z" fill="#6A68A7"/>
<path d="M126.16 20.6721H126.62V22.5234H126.313L126.16 22.8319V20.6721Z" fill="#6A68A7"/>
<path d="M207.964 11.416H210.726V12.1874L210.42 13.2673H210.266V11.5703H207.964V11.416Z" fill="#6A68A7"/>
<path d="M5.52522 21.5979L5.98566 21.7522H5.6787V23.2949H5.98566V22.9863H6.90653V23.2949L6.59957 23.4491H5.52522L5.21826 23.2949V22.9863H5.52522V21.5979Z" fill="#6A68A7"/>
<path d="M63.0798 8.33057H63.5403V10.1818H63.0798V8.33057Z" fill="#6A68A7"/>
<path d="M3.68359 5.55371H4.75795V5.70798L6.44621 5.86225V6.32506L4.29751 6.01652L3.68359 5.86225V5.55371Z" fill="#6A68A7"/>
<path d="M69.0654 21.9062L69.5259 22.0605L69.6793 22.9861V24.8374H69.5259L69.3724 22.9861H69.0654V21.9062Z" fill="#6A68A7"/>
<path d="M116.03 19.7466H116.644V20.2094H117.104V20.6722L116.184 20.8265L116.03 20.6722V19.7466Z" fill="#6A68A7"/>
<path d="M72.2886 10.6445H72.749V12.033L72.4421 13.2671H72.2886V11.4159H72.5955V11.1073H72.2886V10.6445Z" fill="#6A68A7"/>
<path d="M201.057 39.4932H201.211L201.364 40.7273L201.671 41.3444V41.8072H201.978V42.27H201.518V41.4987L201.057 41.3444V39.4932Z" fill="#6A68A7"/>
<path d="M88.2502 22.9863L88.8642 23.1406L91.1663 23.4491L90.5524 23.6034V23.9119L89.6316 23.6034L88.4037 23.4491L88.2502 22.9863Z" fill="#6A68A7"/>
<path d="M91.9338 21.135H95.1569V21.2893H93.7756V21.5978H92.8547V21.2893H91.9338V21.135Z" fill="#6A68A7"/>
<path d="M100.989 15.5813L101.296 15.7356L100.836 16.1984L100.682 16.6612H100.222V16.9697L99.9147 17.124L99.7612 17.5868L99.3008 17.4325H99.6077L99.7612 16.6612L100.529 16.0441L100.989 15.5813Z" fill="#6A68A7"/>
<path d="M149.488 16.0442H149.949V16.507H149.642V16.9698H149.949V17.8954H149.642L149.488 18.3582V16.0442Z" fill="#6A68A7"/>
<path d="M209.345 15.1184H209.806V16.044H209.499V18.3581H209.345V15.1184Z" fill="#6A68A7"/>
<path d="M115.723 13.2673H117.565L117.718 13.7301H117.104V13.4216H115.877L115.723 14.193H115.263V13.7301H115.57L115.723 13.2673Z" fill="#6A68A7"/>
<path d="M184.175 3.23975H184.635V4.16537H184.328V6.47942H184.175V3.23975Z" fill="#6A68A7"/>
<path d="M17.3431 2.77686H18.8779L18.7244 3.23967H16.5757V3.0854H17.3431V2.77686Z" fill="#6A68A7"/>
<path d="M209.345 18.821L209.959 18.9753L210.266 19.1296V18.821H211.187L210.88 18.9753V19.2839L209.806 19.4381L209.345 19.2839V18.821Z" fill="#6A68A7"/>
<path d="M85.4878 17.4326H85.9482L86.1017 17.8954V19.2839H86.4087V19.7467H86.1017L85.9482 19.4381V18.3582H85.6413L85.4878 17.4326Z" fill="#6A68A7"/>
<path d="M101.449 15.7356L101.603 16.0441H101.91V17.4326H101.603L101.449 17.8954V15.7356Z" fill="#6A68A7"/>
<path d="M180.184 15.1184H180.645V16.044V16.5068V16.9696H180.184V15.1184Z" fill="#6A68A7"/>
<path d="M61.6985 1.85132H63.0798V2.31413H61.238V2.00559L61.6985 1.85132Z" fill="#6A68A7"/>
<path d="M223.005 35.9448H223.158V37.6418H223.465L223.619 38.5674H223.005V35.9448Z" fill="#6A68A7"/>
<path d="M160.999 23.9119L161.46 24.0661V25.7631H160.999V25.146H161.306V24.8375H160.999V23.9119Z" fill="#6A68A7"/>
<path d="M164.069 22.5234L164.222 22.9862L164.99 22.832V23.9119L164.529 23.7576V23.4491H164.069V22.5234Z" fill="#6A68A7"/>
<path d="M86.4084 19.7466H86.5619V21.135H87.0224V21.9064L87.4828 22.0606L87.3293 22.5234L86.8689 22.0606V21.5978H86.4084V19.7466Z" fill="#6A68A7"/>
<path d="M122.016 18.3582H122.63V19.2838H121.709V18.821H122.016V18.3582Z" fill="#6A68A7"/>
<path d="M12.8923 12.3416H15.5015V12.4958H13.8132V12.8044H12.8923V12.3416Z" fill="#6A68A7"/>
<path d="M168.213 8.33057H169.441L169.594 8.63911L169.287 8.79338H167.292V8.63911H168.213V8.33057Z" fill="#6A68A7"/>
<path d="M0.153564 4.93677L1.07444 5.09104V5.24531L3.68358 5.39958V5.55385H0.614001L0.460522 5.09104L0.153564 4.93677Z" fill="#6A68A7"/>
<path d="M63.5403 17.5869H63.6938V19.2839H64.0007V20.2095H63.5403V17.5869Z" fill="#6A68A7"/>
<path d="M68.605 17.8953H69.0654V19.438L68.605 19.2837V17.8953Z" fill="#6A68A7"/>
<path d="M20.5661 16.9697H21.0265V17.8953L20.5661 18.0496V17.5868L19.9521 17.4325L20.1056 17.124L20.5661 16.9697Z" fill="#6A68A7"/>
<path d="M64.4612 12.8044H65.8425L65.996 13.2673H64.4612V12.8044Z" fill="#6A68A7"/>
<path d="M182.486 11.8789H183.407L183.254 12.496H182.486V12.8045L182.793 12.9588H182.333V12.0332L182.486 11.8789Z" fill="#6A68A7"/>
<path d="M160.385 6.47925H160.539V8.7933H160.078V7.71341H160.385V6.47925Z" fill="#6A68A7"/>
<path d="M183.868 6.78784H184.175V7.86773H183.868V9.25616H183.714V6.94211L183.868 6.78784Z" fill="#6A68A7"/>
<path d="M222.237 33.9395H222.544L222.698 34.4023V35.4822H223.005V35.945L222.544 35.7907V34.8651H222.237L222.084 34.4023L222.237 33.9395Z" fill="#6A68A7"/>
<path d="M160.999 29.9285L161.153 30.237H161.46V32.0882H161.306V31.3169H160.999V29.9285Z" fill="#6A68A7"/>
<path d="M10.59 21.5979H11.3574L11.0505 21.7522V22.0607L9.66918 22.215V22.5235H9.20874V22.0607L10.59 21.9064V21.5979Z" fill="#6A68A7"/>
<path d="M64.1542 21.9062H64.4612V22.5233H64.1542V23.2947H64.4612V23.9118H64.0007V22.0605L64.1542 21.9062Z" fill="#6A68A7"/>
<path d="M72.5955 21.4436H72.749V22.9863H72.2886V21.5979L72.5955 21.4436Z" fill="#6A68A7"/>
<path d="M137.517 15.2727H137.67V16.9697H137.21V15.5812L137.517 15.2727Z" fill="#6A68A7"/>
<path d="M202.592 44.7383H202.899V45.0468H202.592V45.5096H203.82L203.666 45.8182L203.052 45.6639V45.9724H202.438V44.8926L202.592 44.7383Z" fill="#6A68A7"/>
<path d="M224.386 41.8071H224.847V43.1956H224.386V41.8071Z" fill="#6A68A7"/>
<path d="M220.856 41.8071H221.316V43.1956H220.856V41.8071Z" fill="#6A68A7"/>
<path d="M71.8281 29.3113H73.2094V29.4655L72.2885 29.7741L72.135 29.9284H70.4468V29.7741H71.8281V29.3113Z" fill="#6A68A7"/>
<path d="M92.3943 13.4216H93.7756V13.8844H92.3943V13.4216Z" fill="#6A68A7"/>
<path d="M119.714 11.1074H120.634L121.248 11.8788L120.788 12.033L120.634 11.5702H119.867L119.714 11.1074Z" fill="#6A68A7"/>
<path d="M164.069 2.77686H164.529V4.16529H164.069V2.77686Z" fill="#6A68A7"/>
<path d="M196.146 33.6309H196.606V34.0937H196.299V35.3278H196.606V35.7906H196.146V33.6309Z" fill="#6A68A7"/>
<path d="M145.805 18.821L145.958 19.4381L145.805 19.7467L145.344 19.9009H144.117L143.963 20.2095V19.7467L145.344 19.5924V19.2839H145.805V18.821Z" fill="#6A68A7"/>
<path d="M137.977 13.73H138.131V15.1184L137.67 15.2727V13.8843L137.977 13.73Z" fill="#6A68A7"/>
<path d="M214.256 12.033H214.41V13.8842H213.949V12.8043H214.256V12.033Z" fill="#6A68A7"/>
<path d="M215.331 11.1074H216.252V11.5702H215.024V11.8788H214.563V11.5702L215.331 11.2617V11.1074Z" fill="#6A68A7"/>
<path d="M16.1153 5.09082H17.4966V5.39936L17.0362 5.55363H15.8083L16.1153 5.39936V5.09082Z" fill="#6A68A7"/>
<path d="M219.014 52.2976H219.475V52.9147H217.633V52.7604L219.014 52.2976Z" fill="#6A68A7"/>
</svg>
